<svg xmlns="http://www.w3.org/2000/svg" viewBox="0 0 1702.62 267.82"><g id="Layer_2" data-name="Layer 2"><g id="Layer_1-2" data-name="Layer 1"><path d="M51.6,155.32a16.54,16.54,0,0,1-.6,3.3,16.54,16.54,0,0,0-.6,3.3,1.27,1.27,0,0,0-1,.75q-.45.75-.75.75,0,1.2-.3,4.35t-.45,6.75q-.15,3.6-.45,7t-.3,4.65a17.38,17.38,0,0,0-1.05,4.8,17.48,17.48,0,0,1-1,4.8,11.75,11.75,0,0,1-.9,3.3,11.59,11.59,0,0,0-.9,3.3V158a8.15,8.15,0,0,1-2.55-.6l-3.3-1.2a21.71,21.71,0,0,0-3.15-.9q-1.5-.3-1.8,0a15.76,15.76,0,0,1-1.5,2.4,40.11,40.11,0,0,0-2.1,4.2,38.18,38.18,0,0,0-1.65,4.35A12.45,12.45,0,0,1,25.5,170q0,.3-.15,1.5t-.45,2.55q-.3,1.35-.45,2.55t-.15,1.5a3.24,3.24,0,0,1-.75,1.65,3.24,3.24,0,0,0-.75,1.65,23,23,0,0,0-2.4,2q-1.5,1.35-3,3t-3,3a6,6,0,0,1-1.8,1.35l-6,3.6H4.5a3.33,3.33,0,0,1-1.65-.75,13.33,13.33,0,0,1-1.65-1.35,3.49,3.49,0,0,1-.6-.9,4.61,4.61,0,0,1-.6-1.8v-3.3a21.06,21.06,0,0,1,.6-3.6q.6-2.7.6-3,.6-1.2,1.8-4.35t2.4-6.6l2.25-6.45a20.88,20.88,0,0,1,1.65-3.9v-3a34.61,34.61,0,0,1-3.9-.45,15.55,15.55,0,0,1-4.2-1.05A4.61,4.61,0,0,0,.6,152a4.61,4.61,0,0,1-.6-1.8v-1.8a24.84,24.84,0,0,1,.6-2.7q.3-1.2.6-2.1l11.4-11.4a9,9,0,0,0,1.5-.3q1.2-.3,2.55-.75t2.55-.9a4.92,4.92,0,0,0,1.5-.75,14.44,14.44,0,0,1,1.5-3.6q1.5-3,2.1-4.5a49.3,49.3,0,0,1,1.65-6q1.35-4.2,3-9t2.85-8.85q1.2-4,1.8-5.85a5.41,5.41,0,0,0,.75-1.8q.45-1.5.9-3.3t.9-3.45a14.13,14.13,0,0,1,.75-2.25q.3-1.2.9-3.45T39,73.12q.6-2.1,1-3.75a13,13,0,0,0,.45-2q0-.3.15-5.55t.3-11.4q.15-6.15.15-11.4V33.22a8.73,8.73,0,0,0,1.35-3.15,26.47,26.47,0,0,1,1-3.15,17.31,17.31,0,0,1,1.5-3q1.5-2.7,2.1-3.6a5.91,5.91,0,0,1,1.35-2.4,8.1,8.1,0,0,1,1.95-2.1,2,2,0,0,1,.45-1.2,7.88,7.88,0,0,0,.75-1.2A43.4,43.4,0,0,1,55.35,11a19.89,19.89,0,0,0,3.15-2.1,9.3,9.3,0,0,1,1.8-.6,9.87,9.87,0,0,1,3-.6h3.3l1.2,1.2v15q-.3,3.3-.6,5.25t-.45,3.75q-.15,1.8-.15,2.1v6.3q0,.6.15,5t.3,9.6q.15,5.25.45,9.75t.3,5.1a26.35,26.35,0,0,0,.75,4.2,30.53,30.53,0,0,1,.75,3.9q.6,1.5,1.8,5.7t1.8,6a43.35,43.35,0,0,0,1.5,5L77,102.82l2.55,7.35q1.2,3.45,1.5,4.65.3.9,1.5,3.9a39,39,0,0,1,1.5,4.2,21.75,21.75,0,0,0,2.1,3.75,8.32,8.32,0,0,1,1.5,2.85,9.84,9.84,0,0,1,3,1.35,9.84,9.84,0,0,0,3,1.35A7,7,0,0,0,95,133.27q.75.45.75.75a24.15,24.15,0,0,0-.6,6.6,24.15,24.15,0,0,0,.6,6.6q1.8,3.9,3,6.6t2.7,5.4q1.5,2.7,2.4,4.2.3.6,2,5.55l3.6,10.8q2,5.85,3.6,10.95a38.38,38.38,0,0,0,2,5.4,10.32,10.32,0,0,0,1.8,3.6,16.8,16.8,0,0,0,1.5,2.4v6.6a11.31,11.31,0,0,0-1.65,3.15q-1,2.53-1.65,3.75-.3.28-1.35,1.35c-.7.69-1.5,1.5-2.4,2.4l-2.55,2.55-1.8,1.8a4.44,4.44,0,0,0-1.8.6,4.78,4.78,0,0,1-1.8.6H95.1a16.68,16.68,0,0,1-3-1.95q-2.7-2-3.6-2.55a8.14,8.14,0,0,0-.75-2.4,8.32,8.32,0,0,1-.75-2.4v-5.4l-1.2-2.4a7.05,7.05,0,0,1-.9-1.95,3.62,3.62,0,0,0-.9-1.65,66.54,66.54,0,0,1-5.1-11.4q-3-8.1-6.3-16.5-3.6-9.9-7.8-21ZM47.1,116,45,121.27a19.41,19.41,0,0,0-1.5,4.65,15.91,15.91,0,0,1-.15,1.8,15.91,15.91,0,0,0-.15,1.8H45a12.08,12.08,0,0,1,4.2-1.05q3.3-.45,3.9-1v-1.5a21,21,0,0,0-1.35-4.65A18.71,18.71,0,0,1,50.4,116q-.6,0-1-1.35t-.75-1.35Z" fill="#f9f9f9"/><path d="M146.4,164.32q-.32-2.4-.6-3.9t-.6-3q-.31-1.5-.6-2.4a36.76,36.76,0,0,0-.45-4.35c-.3-2.1-.56-3.55-.75-4.35a27.69,27.69,0,0,1-.75-3.15c-.3-1.5-.66-3-1.05-4.5s-.75-2.9-1-4.2a14.89,14.89,0,0,0-.75-2.55,27.72,27.72,0,0,0-1.35-6.75,47.88,47.88,0,0,0-1.95-5.85,11.49,11.49,0,0,0-.6-2.85,11,11,0,0,1-.6-2.55l-1.5-1.2a6.79,6.79,0,0,0-1.35.15,7.12,7.12,0,0,1-1.35.15v24l-2.7,3a13.75,13.75,0,0,0-.6-2.1,9.35,9.35,0,0,1-.6-2.4c0-1-.11-2.65-.3-5s-.36-4.75-.45-7.35-.26-5-.45-7.35-.3-3.85-.3-4.65h-2.1c0,.6-.11,1.8-.3,3.6s-.36,3.75-.45,5.85-.26,4-.45,5.85-.3,3-.3,3.6a40.87,40.87,0,0,1-.6,5.25,15.58,15.58,0,0,1-1.2,4.65,4.09,4.09,0,0,1-.6.9l-.6.6a55.13,55.13,0,0,0-.75-6.3,50.68,50.68,0,0,1-.75-6.3,27.11,27.11,0,0,1-.75-3.6c-.3-1.8-.56-3.75-.75-5.85s-.36-4.1-.45-6-.15-3.35-.15-4.35a8.14,8.14,0,0,1-2.4-.75,10.88,10.88,0,0,0-2.1-.75,26,26,0,0,1-3.45-.6q-2.86-.6-3.45-1.2l-1.2-1.2v-6.9l1.2-2.7a21.71,21.71,0,0,1,2-2.4c.9-1,1.84-2,2.85-3s2-2,3-2.85,1.69-1.55,2.1-2a11.08,11.08,0,0,1,1.5-.6,10.9,10.9,0,0,0,1-.6,1.83,1.83,0,0,1,1-.3c.79-.2,2.4-.45,4.8-.75a17.48,17.48,0,0,0,4.8-1v-1.2L117.6,41a9.32,9.32,0,0,1-.6-1.5,6.37,6.37,0,0,1-.3-2.1V36.07a2.85,2.85,0,0,1,.3-1.35l.6-1.8a2.54,2.54,0,0,1,.3-1.2,7.32,7.32,0,0,0,.45-1.2,2.49,2.49,0,0,1,.75-1.2,25.58,25.58,0,0,0,1.5-2.1q1.19-1.8,1.5-2.4l3.6-3.6a7.57,7.57,0,0,0,1.8-.9,3.81,3.81,0,0,1,1.35-.9,4.2,4.2,0,0,0,1.35-.9q.59-.3,1.8-1.05a3.91,3.91,0,0,1,1.8-.75h4.5a7.85,7.85,0,0,0,2.1,1.5,8.29,8.29,0,0,0,3,1.8q.28.3,1.8,1.5t3,2.55q1.49,1.35,3,2.55a13.89,13.89,0,0,0,2.1,1.5,17.22,17.22,0,0,0,2.4,1.8,18.59,18.59,0,0,1,2.4,1.8q2.09.9,6.45,3.15c2.89,1.5,5.85,3.05,8.85,4.65s5.79,3,8.4,4.2,4.29,1.8,5.1,1.8a66.28,66.28,0,0,0,8.4,4q6,2.55,12.75,5.55t12.6,5.55c3.9,1.7,6.64,2.85,8.25,3.45a2.05,2.05,0,0,1,1.5.6l.6.6v6.9a15.5,15.5,0,0,1-.6,1.5c-.6,1-1.11,1.5-1.5,1.5q-.61,1.2-3,4.8a53.25,53.25,0,0,0-3,4.8c0,1.2-.06,3.35-.15,6.45s-.26,6.4-.45,9.9-.45,6.75-.75,9.75-.56,5.1-.75,6.3c0,.4-.06,1.15-.15,2.25s-.21,2.35-.3,3.75-.26,2.75-.45,4a22,22,0,0,1-.6,2.85,26.25,26.25,0,0,1-.6,4.5,27.85,27.85,0,0,0-.6,3.6,4.88,4.88,0,0,0-1,1.95c-.3.9-.56,1.35-.75,1.35V88.42h-1.5a1.28,1.28,0,0,0-1.05.6,1.31,1.31,0,0,1-1.05.6,32.74,32.74,0,0,1-.75,5.25,33.27,33.27,0,0,0-.75,4.65H210a36.9,36.9,0,0,0-.75-4.65q-.76-3.75-1.05-5.25a9.36,9.36,0,0,1-1.5-1.2l-1-1a1.46,1.46,0,0,0-1.05-.45c0-.4-.81-1-2.4-1.8l-3.6-1.8q-2.41-1.2-8.85-3.9T176,73.57q-7.37-3.15-13.8-5.85t-8.85-3.6v1.2q.28,1.5,1,4.5T155.7,76a54.66,54.66,0,0,0,1.35,5.7,23,23,0,0,0,1,3.15,3.88,3.88,0,0,0,.75,1.8,4.11,4.11,0,0,1,.75,1.8,5.5,5.5,0,0,1,1.5.6,5,5,0,0,0,1.5.6q.9.3,3.6,1c1.8.5,3.64,1,5.55,1.65s3.69,1.15,5.4,1.65a27.94,27.94,0,0,1,3.15,1q.9.3,3.15.9t4.5,1.35c1.5.5,2.94,1,4.35,1.5a11,11,0,0,0,2.7.75,4.08,4.08,0,0,1,1.8.75,3.91,3.91,0,0,0,1.8.75,19.29,19.29,0,0,1,1.65,2.1q1,1.5,1.65,1.5v4.5l-3.3,6.6q-.61.6-3.15,3.15A31.88,31.88,0,0,1,192,122q-.62,1.2-3.15,2.25a13.31,13.31,0,0,1-3.15,1h-6.9a19.62,19.62,0,0,1-3.15-1.35,15.34,15.34,0,0,1-3.45-2,12.37,12.37,0,0,0-2.1.3,12.92,12.92,0,0,1-2.1.3,2.25,2.25,0,0,1-.15.9,2,2,0,0,0-.15.9v.9a17.86,17.86,0,0,0,.6,3.45c.39,1.7.75,3.6,1,5.7s.6,4,.9,5.7a24.49,24.49,0,0,1,.45,3.45V191a10.34,10.34,0,0,1-.6,2.4,11.3,11.3,0,0,0-.6,2.1c-.21.39-.41.75-.6,1a6.77,6.77,0,0,0-.6,1.05c-.21.6-.41,1.09-.6,1.5-.41.39-1,1.09-1.95,2.1s-1.86,2-2.85,3-2,1.95-2.85,2.85a10.4,10.4,0,0,1-2,1.65l-3.15,1.5c-1.71.79-2.85,1.29-3.45,1.5H150q-.62,0-2.1-1.35c-1-.9-1.5-1.46-1.5-1.65Z" fill="#f9f9f9"/><path d="M260.09,197.92q-.3,0-3.6.45a40.47,40.47,0,0,1-4.5.45,13.89,13.89,0,0,0-1.5-2.1,6.33,6.33,0,0,1-1.2-1.8L252,176a17.67,17.67,0,0,0-3.45-1.5q-2.55-.9-3.15-1.2a9.36,9.36,0,0,1-2.85-2.85,11.75,11.75,0,0,1-1.65-2.55v-3.6q.3-1.2.75-2.7a10.46,10.46,0,0,0,.45-1.8,8.81,8.81,0,0,1,.3-2.1,7.38,7.38,0,0,1,1.2-3q.3-.3,2.1-2.85a11.68,11.68,0,0,1,2.4-2.85q.6-.9,1.5-2.1.6-.9,1-1.65a7,7,0,0,1,1.05-1.35V140a9.52,9.52,0,0,1,.6-2.7l.6-1.8a19.27,19.27,0,0,0-.75-3.3q-.75-2.7-1.35-4.5.6-.9-.45-5.4t-1.35-6.6q0-.6.15-2.4t-.15-2.1a19,19,0,0,1-1.2-3.45q-.6-2.25-1.2-4.2a31.49,31.49,0,0,1-.9-3.6,18.74,18.74,0,0,1-.3-2q-.6-1.5-2.1-5t-3-7.35q-1.5-3.9-2.85-7.2a30.36,30.36,0,0,1-1.65-4.8q0-.9-1.65-3.3T231.89,68a17.88,17.88,0,0,0-2.4-1.8q-1.8-1.2-3.9-2.55t-3.9-2.55a8.36,8.36,0,0,0-2.1-1.2c-.2,0-.79-.8-1.8-2.4a38.45,38.45,0,0,0-2.7-3.9,3.57,3.57,0,0,0-.6-1.65,3.82,3.82,0,0,1-.6-1.65v-1.5a3.64,3.64,0,0,1,.15-1,3.06,3.06,0,0,0,.15-1.05,6.43,6.43,0,0,1,.45-1.5,6.43,6.43,0,0,0,.45-1.5,3,3,0,0,0,.6-.9,1.76,1.76,0,0,1,.6-.75c.21-.1.3-.35.3-.75.21-.2.75-.9,1.65-2.1a5.91,5.91,0,0,0,1.35-2.4,31.68,31.68,0,0,1,3.15-2.4,31.68,31.68,0,0,0,3.15-2.4,6.86,6.86,0,0,1,2.7-1.2,13.51,13.51,0,0,1,2.7-.6l1.8-.6q.6-.3,1.35-.6a3.68,3.68,0,0,1,1.35-.3h1.5q.9.6,3.6,2.1t3,2.4a13.71,13.71,0,0,1,2.25,1.8l3.6,3.3q1.95,1.8,3.6,3.45L255.59,44q1.2.6,3.45,1.5a10.25,10.25,0,0,0,3.45.9q3.6.6,13.35,1.65t20.7,2.4L317.09,53q9.6,1.2,13.2,1.5,1.2.9,6.15,1.8a45.53,45.53,0,0,0,7.05.9,8.61,8.61,0,0,0,4.5,2.1,21.23,21.23,0,0,1,3.6.9q.6.3,2.55,1.2t4.05,1.95q2.1,1,4.2,1.95t3,1.2a4,4,0,0,1,1.8.75A4,4,0,0,0,369,68l2.4,3q1.2,1.5,1.8,1.5a21.21,21.21,0,0,0,1.65,2.4,5.91,5.91,0,0,1,1.35,2.4q0,.6-.15,2.7t-.15,3.3a4.65,4.65,0,0,0-.9,3.3v2.1a4.68,4.68,0,0,1-.75,1.5q-.75,1.2-1.65,2.7t-1.95,3A17.06,17.06,0,0,1,369,98q-.6.6-1.8,2.1t-1.8,2.1l-4.5,4.5-3.6,3.6q-1.8,1.5-6.6,5.25t-10.2,8.1q-5.4,4.35-10.2,8.25t-6.6,5.4a1.27,1.27,0,0,1,1.05.75,7,7,0,0,0,1.05,1.35,20.46,20.46,0,0,1,2.1,1.35,31.51,31.51,0,0,1,3,2.4q1.5,1.35,2.85,2.4a4.1,4.1,0,0,0,1.95,1.05,25.86,25.86,0,0,0,3.3,2.55q2.4,1.65,4.8,3.45t4.65,3.3a22.29,22.29,0,0,1,3.15,2.4,7.22,7.22,0,0,0,1.8,1.8,7.53,7.53,0,0,1,2.1,2.4,17.51,17.51,0,0,1,3.15,2.25l3.9,3.3q1.95,1.65,3.45,3.15a11,11,0,0,1,1.8,2.1,3.45,3.45,0,0,0,1,1.8l2.25,2.55,2.25,2.55q1.05,1.2,1.05,1.5a15.14,15.14,0,0,1,1.8,3.6,4.94,4.94,0,0,0-.3,1.5v5.4a9.11,9.11,0,0,0-2.1,2.55,23.83,23.83,0,0,1-2.1,2.85,18.74,18.74,0,0,1-3.6,3.15,21,21,0,0,1-3.9,2.55,10.09,10.09,0,0,1-3,1.5c-1.6.6-2.6,1-3,1.2h-2.7a7.83,7.83,0,0,1-1.35-.15,6.25,6.25,0,0,0-1.35-.15,35.8,35.8,0,0,1-2.7-3.3q-1.8-2.41-3.75-4.8t-3.75-4.8a34.44,34.44,0,0,0-2.7-3.3q-.6,0-2.85-2T333,184.12q0-.6-1.5-1.8t-1.5-1.8a47.18,47.18,0,0,1-4.05-2.85q-2.55-1.95-5.1-3.75t-4.5-3.15a26.5,26.5,0,0,1-2.25-1.65q-.6-.3-2.7-1.65l-4.65-3q-2.55-1.65-4.8-2.85t-3.15-1.8a3.77,3.77,0,0,0-1.5-.9,3.77,3.77,0,0,1-1.5-.9l-1.8-.9a3.69,3.69,0,0,0-1.65.6,7.83,7.83,0,0,0-1.65,1.2q-.9,0-3.3,1.8t-3.3,1.8a8.54,8.54,0,0,0-1.8,1.5,8.54,8.54,0,0,1-1.8,1.5,11.82,11.82,0,0,0-1.2,3.45q-.6,2.55-1.2,5.25t-1,5.1a29.28,29.28,0,0,1-.75,3.3,6.43,6.43,0,0,1-.45,1.5q-.45,1.2-.9,2.55a19.44,19.44,0,0,1-1.05,2.55,5.26,5.26,0,0,0-.6,1.5q-.3.6-1.05,2.4c-.5,1.2-1,2.44-1.5,3.75s-1,2.55-1.5,3.75-.85,2-1.05,2.4l-1.5,1.5a5.23,5.23,0,0,0-1.5,1.5l1.2-9.3a35.35,35.35,0,0,0-2.1,4.35,36.71,36.71,0,0,0-1.8,4.65,31.21,31.21,0,0,1-.45,3.75q-.45,2.84-.9,5.85t-.9,5.85a30.76,30.76,0,0,0-.45,3.75l-2.4-3Zm9.6-121.5q.3,1.8,1.5,6.75t2.4,10.65q1.2,5.7,2.4,10.65t1.8,6.75a14.13,14.13,0,0,1,.75,2.25,31,31,0,0,1,.75,3.75q.3,2.1.45,3.9t.15,2.1l.9,2.7.6,1.8h2.7q1.2,0,4.2.15t6.45.45q3.45.3,6.45.45a33.38,33.38,0,0,1,4.5.45l3-1.5q.9-.6,2.85-2.1t4.2-3q2.25-1.5,4.35-2.85t3-2q1.5-1.2,5-4.2t7.35-6.15q3.9-3.15,7.2-5.85t4.8-3.9q.6,0,1.35-1.5a8.45,8.45,0,0,1,1.35-2.1q-.6,0-1.65-1.35a4.1,4.1,0,0,1-1.05-2q-.9,0-3.3-1.95t-3.3-2a5.76,5.76,0,0,0-2-.75,37.88,37.88,0,0,1-3.6-1.2q-2-.75-4.2-1.5a12.34,12.34,0,0,1-3.45-1.65q-1.5-.3-4-1a17,17,0,0,0-3.15-.75q-1.5-.3-2.7-.6a26.34,26.34,0,0,0-3.9-.6h-6.3q-1.2.3-1.65,2.1a5.41,5.41,0,0,1-1,2.4A11.22,11.22,0,0,1,304,86a11.22,11.22,0,0,0-.75,2.7h-1.2a44.8,44.8,0,0,0-.75-5.55,42.85,42.85,0,0,1-.75-5.85v-.6a.86.86,0,0,0-.3-.6h-2.4q-.3.9-1.5,4.65a23.11,23.11,0,0,0-1.2,4.65,7.08,7.08,0,0,1-.9,3,7.24,7.24,0,0,0-.9,2.4h-1.2l-.9-.9q0-.3-.3-2.55a28,28,0,0,1-.3-3.15q-.6-1.2-.45-4.8t-.45-4.8l-18.9-1.2Z" fill="#f9f9f9"/><path d="M432,191.92a29.28,29.28,0,0,0-.75,3.3q-.45,2.39-1.05,4.8t-1.05,4.8a29.84,29.84,0,0,1-.75,3.3,5.5,5.5,0,0,1-.6,1.5,5,5,0,0,0-.6,1.5h-1.8a10.41,10.41,0,0,0-.75-2.1,8.32,8.32,0,0,1-.75-2.4,20.21,20.21,0,0,1-.6-3.3c-.2-1.61-.35-3.3-.45-5.1s-.25-3.45-.45-4.95a11.57,11.57,0,0,0-.6-2.85,44.13,44.13,0,0,0-4.8-1.8,44.13,44.13,0,0,1-4.8-1.8,5.26,5.26,0,0,1-1.5-.6,3.25,3.25,0,0,1-1.5-1.2q-.6-.3-1.35-.75t-1.65-1.05a16.46,16.46,0,0,0-2.1-.9,18.16,18.16,0,0,0-2.55-2.7q-1.95-1.8-3.9-3.9l-3.75-4.05a27.48,27.48,0,0,1-2.4-2.85q-.6,0-1.8-1.95t-1.8-2.85a9.1,9.1,0,0,1-1.35-2,20.83,20.83,0,0,1-1.35-3q-.6-1.65-1.2-3a6.68,6.68,0,0,1-.6-1.65q-.6-.3-1.8-4.35t-1.8-5.55a29.28,29.28,0,0,1-.75-3.3,6.5,6.5,0,0,0-1.05-3,59.54,59.54,0,0,0-.6-6.75q-.6-4.65-.6-5.85v-11.7q0-.6.15-2.7t.45-4.35q.3-2.25.45-4.5t.15-3.15A16,16,0,0,0,379,94.87a18.5,18.5,0,0,1,.75-3.75l1-3.15,1.5-4.5q.75-2.25,1.5-4.35t1.05-3a35.74,35.74,0,0,1,1.65-3.6q1.35-2.7,3-5.85t2.85-5.85a28.58,28.58,0,0,1,1.8-3.6,21.17,21.17,0,0,0,1.5-2.1q1.2-1.8,2.55-3.75t2.55-3.6q1.2-1.65,1.5-1.65a6.44,6.44,0,0,0,1.2-2.1,11.64,11.64,0,0,1,.6-1.5v-9.9l1.5-2.7q.9-.9,2.55-2.7t3.45-3.6q1.8-1.8,3.45-3.3t2.25-2.1q.9-.6,3.3-1.95a8.76,8.76,0,0,1,3.3-1.35h9.6a9.77,9.77,0,0,1,3.45,1.35,16.36,16.36,0,0,1,3.15,1.95q.6.6,3,2.85t5.25,5.1q2.85,2.85,5.4,5.55a43.78,43.78,0,0,0,4.05,3.9q.3.6,2.1,3.15a33.65,33.65,0,0,1,2.4,3.75,17.88,17.88,0,0,1,1.8,2.4,17.88,17.88,0,0,0,1.8,2.4l2.7,4.5a13.15,13.15,0,0,1,1.8,3.6,23.88,23.88,0,0,0,1.65,3.3q1.35,2.4,2.7,5t2.4,4.8q1,2.25,1.35,3.15a14.26,14.26,0,0,1,1.8,3.9,24.67,24.67,0,0,0,1.8,4.2q.3,1.2,1.5,4.8a49.83,49.83,0,0,1,1.5,5.1,6.84,6.84,0,0,1,1.05,3.15,26.93,26.93,0,0,1,.45,3.15q.6,2.1,1.35,5.85t.75,4v22.5a24.47,24.47,0,0,1-.75,3.6,37.49,37.49,0,0,1-1.35,4.5,24.13,24.13,0,0,1-.45,3.75,6.84,6.84,0,0,1-1.05,3.15,12.54,12.54,0,0,1-.6,2.1,9.82,9.82,0,0,0-.6,2.4,30.79,30.79,0,0,0-1.65,3q-1,2.1-2.1,4.05t-1.95,3.75a11.7,11.7,0,0,1-1.2,2.1,13.61,13.61,0,0,1-2.1,3.75,31.68,31.68,0,0,1-2.4,3.15,19.22,19.22,0,0,0-2.55,2.25l-3.45,3.45L463,176.77a12.32,12.32,0,0,1-2.25,1.95q0,.3-1.2,1.2t-2.7,2q-1.5,1-3,1.95a13.15,13.15,0,0,1-2.4,1.2,5,5,0,0,1-1.2.75l-2.1,1q-1.2.6-2.25,1.05a4.88,4.88,0,0,1-1.35.45q-1.2,0-1.2,2.1c-.2,1.8-.4,5-.6,9.75s-.35,9.69-.45,15-.25,10.35-.45,15.15-.3,8.19-.3,10.2a19,19,0,0,1-.3,3l-.6,3.6q-.3,2.08-.6,4.5H438l-2.7-59.7Zm-29.7-75.3A22.66,22.66,0,0,0,403,121q.75,3.15,1,4.65a44.13,44.13,0,0,1,1.8,4.8,44.13,44.13,0,0,0,1.8,4.8,52,52,0,0,1,2.4,4.65q1.8,3.75,2.1,4.65a19.27,19.27,0,0,0,2.55,3.45,19.27,19.27,0,0,1,2.55,3.45l6.6,6.6a7.57,7.57,0,0,1,1.8.9A7,7,0,0,0,427,160q.75.45,1.35.75a7,7,0,0,0,1.8,1.2,4.61,4.61,0,0,0,1.8.6,5.41,5.41,0,0,0,2.4,1,15.94,15.94,0,0,0,2.1.45h16.2q.6-.6,2.55-2.4a16.59,16.59,0,0,1,2.55-2.1l1.5-3a16.63,16.63,0,0,0,1.5-3.9,5.41,5.41,0,0,0,1-2.4,12.61,12.61,0,0,0,.45-2.4,5.7,5.7,0,0,0,.6-2.25q.3-1.95.45-4.65t.45-5.25q.3-2.55.6-4v-1.5a33.36,33.36,0,0,1-.6-3.45q-.3-2.25-.45-4.65a41.7,41.7,0,0,0-.45-4.2,10,10,0,0,0-.6-2.4,17,17,0,0,0-.75-3.15,15,15,0,0,1-.75-3.75q-.3-.9-1.5-4.65t-1.5-4.65q-.6-1.2-1.8-4.35a14,14,0,0,0-1.8-3.75q-.3-.9-1.35-3.3t-2.4-4.8l-2.7-4.8a23.88,23.88,0,0,1-1.65-3.3q-.6-1.2-2.4-4.2a27.7,27.7,0,0,1-2.1-3.9q-.6-.6-2.55-3.15a27.6,27.6,0,0,1-2.55-3.75q-.3,0-1.5-1.35t-1.5-1.35l-1.5,2.7q-.6,1.2-1.35,3.15a12.71,12.71,0,0,0-.75,2.25q0,.9-.3,4.65t-.45,8.1q-.15,4.35-.45,8.25t-.3,4.8a43.18,43.18,0,0,1-.6,4.65,43.18,43.18,0,0,0-.6,4.65,15,15,0,0,1-1.2-4.65,43.18,43.18,0,0,1-.6-4.65q0-2.1-.3-8t-.45-12.3q-.15-6.45-.45-12.15t-.3-8.1h-3.6q-.3,0-2.1,2a27.48,27.48,0,0,0-2.4,2.85,25.51,25.51,0,0,0-2.4,3.6,43,43,0,0,1-3,4.5,3.69,3.69,0,0,1-.6,1.65,3.69,3.69,0,0,0-.6,1.65L408.14,70l-1.5,4.5q-.75,2.25-1.5,4.35t-1.05,2.7l-1,4.2a21.46,21.46,0,0,0-.75,3.9v27Z" fill="#f9f9f9"/><path d="M616.49,204.22a3.13,3.13,0,0,0-1.65.75,3.37,3.37,0,0,1-1.65.75,8.14,8.14,0,0,1-1.35,1.05,1.25,1.25,0,0,0-.75,1v19.5h-1.5a32.92,32.92,0,0,0-.45-4.2q-.45-3-.9-6.45t-1-6.45a24.57,24.57,0,0,1-.6-4.5,6.54,6.54,0,0,0-.6-1.65q-.62-1.35-1.35-3.15t-1.65-3.6l-1.5-3a25.25,25.25,0,0,1-1.65-3.15q-1.07-2.25-2.25-4.8c-.8-1.7-1.61-3.35-2.4-5a35.23,35.23,0,0,0-1.8-3.3,14.09,14.09,0,0,0-1.65-3.6,34,34,0,0,0-2.85-4.5q-.9-1.2-4.2-6.45t-7.2-11.25l-7.2-11.1c-2.21-3.4-3.6-5.5-4.2-6.3a19.79,19.79,0,0,0-1.8-3.3q-1.51-2.4-3.15-5.1t-3-5.25a27.51,27.51,0,0,1-1.65-3.45,9.39,9.39,0,0,1-2.1-2.1,5.63,5.63,0,0,1-1.5-2.4h-1.2q-.3,1.2-.75,4.5t-1.05,6.9c-.41,2.4-.75,4.75-1,7.05a44.42,44.42,0,0,0-.45,4.65q-.61,2.4-1.35,7.2t-.75,5.4c0,.6,0,2,.15,4.2s.15,4.6.15,7.2v7.2a18,18,0,0,1-.3,4.2,9.36,9.36,0,0,1-.3,2.1c-.2.6-.41,1.15-.6,1.65s-.41,1-.6,1.35a.86.86,0,0,0-.3.6,2.49,2.49,0,0,1-.3.9,10.35,10.35,0,0,0-.6,1.5,18.31,18.31,0,0,1-2.1,2.4q-1.51,1.5-3.15,3l-3,2.7c-.9.8-1.46,1.3-1.65,1.5a14.19,14.19,0,0,1-3.15,1.8c-1.7.8-3,1.4-3.75,1.8h-2.7q-.62,0-1.8-1.5t-1.8-2.1q-.3,0-.75-1.35a5,5,0,0,0-1-1.95l-6.3-18.9c-.41-1.6-1.5-5.25-3.3-10.95s-3.71-11.85-5.7-18.45-3.9-12.75-5.7-18.45-2.9-9.35-3.3-11q-.3-1.2-1.2-3.75t-1.95-5.4c-.71-1.9-1.35-3.65-1.95-5.25s-1-2.7-1.2-3.3a12,12,0,0,0-1.5-2.55,8.32,8.32,0,0,1-1.5-2.85v-9.3a11.64,11.64,0,0,0,.6-1.5,4.61,4.61,0,0,0,.6-1.8,15.41,15.41,0,0,0,3-3.6c1.2-1.8,2-2.7,2.4-2.7,0-.2.79-1,2.4-2.25s2.8-2.35,3.6-3.15a12.82,12.82,0,0,0,2.1-.6,12.26,12.26,0,0,0,1.5-.6h4.5q.6,0,1.8,1.5a24.12,24.12,0,0,0,1.8,2.1,19.62,19.62,0,0,1,1.5,3.3,25.53,25.53,0,0,1,1.5,4.8q.9,2.1,3,8.25c1.39,4.1,2.85,8.5,4.35,13.2s2.89,9.15,4.2,13.35,2.25,7.1,2.85,8.7a15.78,15.78,0,0,0,1.2-4.8,43.68,43.68,0,0,0,.6-5.1q0-.3.3-2.25t.45-4.35q.15-2.4.45-4.65a30.66,30.66,0,0,0,.3-3.15,14.16,14.16,0,0,0,.6-3.3q.28-2.7.45-5.7t.45-5.7a13.1,13.1,0,0,1,.6-3.3,15.34,15.34,0,0,1,.3-2.55q.28-1.65.45-3.45t.45-3.45a16.93,16.93,0,0,0,.3-2.25l1.8-2.7a16.09,16.09,0,0,1,2.4-3.75c1.2-1.5,2-2.45,2.4-2.85a34.55,34.55,0,0,1,3-2.4,29.42,29.42,0,0,1,3-2.1,6.51,6.51,0,0,1,2.4-1.2,23.28,23.28,0,0,0,3-1.2h2.7a16.37,16.37,0,0,0,1.35,1.2,1.66,1.66,0,0,1,.75,1.2,9.35,9.35,0,0,0,.6,2.4q.6,1.8,1.5,3.9t1.65,3.9a8.57,8.57,0,0,1,.75,2.4q.9,2.1,3.6,7.65t5.85,11.85c2.1,4.2,4.09,8.15,6,11.85a68.07,68.07,0,0,0,4.35,7.65,9.81,9.81,0,0,0,1.05,2.25q1,2,2.7,4.5c1.09,1.7,2.2,3.4,3.3,5.1a49.42,49.42,0,0,1,2.55,4.35,26.63,26.63,0,0,0,1.5,2.4c.79,1.2,1.6,2.5,2.4,3.9s1.6,2.75,2.4,4,1.39,2.25,1.8,2.85a2.69,2.69,0,0,0,.45,1.35,6.61,6.61,0,0,0,1,1.35,11.92,11.92,0,0,0,1.5,1.8,1.27,1.27,0,0,0,.75,1.05,1.29,1.29,0,0,1,.75,1v-11.7c0-1.4-.11-4.35-.3-8.85s-.45-9.45-.75-14.85-.6-10.6-.9-15.6-.56-8.7-.75-11.1a20.21,20.21,0,0,1-.6-3.6q-.3-2.7-.45-5.55t-.45-5.25q-.3-2.4-.3-3a32.52,32.52,0,0,0-.75-5.55,32.5,32.5,0,0,1-.75-4.95l-.6-1.2q-.9-1.5-1.5-1.5c-.41.4-1.4,1.25-3,2.55s-2.6,2.15-3,2.55a27.62,27.62,0,0,0-2.4,1.5q-1.8,1.2-2.4,1.5a1.83,1.83,0,0,0-1.05.3,9.81,9.81,0,0,1-1,.6l-1.2.6H576a1.71,1.71,0,0,1-1.2-.6,3.25,3.25,0,0,1-.6-.9v-5.4a16.59,16.59,0,0,0,1.5-2.4,7.57,7.57,0,0,0,.9-1.8,10.35,10.35,0,0,1,.6-1.5q.6-1.2,1.8-3.15a6.6,6.6,0,0,1,1.8-2.25l3.15-3.15c1.5-1.5,3-3.05,4.65-4.65l4.2-4.2a13.75,13.75,0,0,0,2.1-2.4q.9-1.2,4.8-2.85a17.06,17.06,0,0,1,5.4-1.65,4.94,4.94,0,0,0,1.5-.3,4.51,4.51,0,0,1,1.8-.6,26,26,0,0,1,2.7.6,6.65,6.65,0,0,0,2.1.3,6.51,6.51,0,0,1,1.65.3,3.79,3.79,0,0,1,1.65.9,5.63,5.63,0,0,0,1.5,2.4,9.39,9.39,0,0,0,2.1,2.1,21.84,21.84,0,0,0,.3,2.55,4.69,4.69,0,0,0,.9,2.55,26.35,26.35,0,0,0,.75,4.2,32.66,32.66,0,0,1,.75,3.9c.19,1.4.45,3.8.75,7.2s.64,5.5,1.05,6.3q.28,6.3,1.2,17.85t1.65,23.55q.73,12,1.35,21.45t.6,11.25V188a13,13,0,0,0-1.8,3.15,13.94,13.94,0,0,1-1.8,3.15,7.86,7.86,0,0,1-1.35,2.7c-.9,1.39-1.46,2.29-1.65,2.7l-1.5,2.7c0,.6.1,1.74.3,3.45s.34,3.54.45,5.55.25,3.84.45,5.55.3,2.85.3,3.45v2.85c0,1.5,0,3.15.15,4.95s.15,3.64.15,5.55V241c0,1.29-.05,2.55-.15,3.75s-.15,2.29-.15,3.3v1.8l-1.5,3a24.16,24.16,0,0,1-.9-6.3q-.3-4.82-.3-6.3a34.26,34.26,0,0,1-.75-4.8c-.3-2.61-.56-5.4-.75-8.4s-.41-5.81-.6-8.4-.3-4.2-.3-4.8a36.62,36.62,0,0,0-.6-4.8A35.24,35.24,0,0,1,616.49,204.22Z" fill="#f9f9f9"/><path d="M673.18,182.92a4.7,4.7,0,0,1-1.2.9,9.81,9.81,0,0,0-1.05.6,1.85,1.85,0,0,1-1,.3q-.9.6-2.1,1.5-2.4,1.8-2.7,2.1a27.49,27.49,0,0,0-3.6,1.5l-2.4,1.2a3.68,3.68,0,0,0-1.35.3,3.19,3.19,0,0,1-2.7,0,3.68,3.68,0,0,0-1.35-.3l-.6-.6-.6-.6v-5.1q.3-2.4.6-3.75a25.34,25.34,0,0,0,.45-2.7q.15-1.35.15-1.65a54.07,54.07,0,0,0,1.2-5.7q.6-3.6.6-4.2v-46.8q0-.3-.6-.75a11.26,11.26,0,0,1-1.2-1h-1.2a4,4,0,0,1-1.65.6,25.34,25.34,0,0,1-2.7.45,30.44,30.44,0,0,0-3.75.75h-8.1a3.49,3.49,0,0,1-.9-.6,1.73,1.73,0,0,1-.6-1.2l-.6-.6a2.37,2.37,0,0,1-.3-1.5,3.34,3.34,0,0,1,.3-1.5l.6-1.2a4.94,4.94,0,0,1,.3-1.5,12.76,12.76,0,0,1,1.2-1.8q.3-.6,1.5-2.4t1.5-2.4q0-.6,1.5-1.65a17.06,17.06,0,0,0,2.1-1.65q.6,0,3-2.1t3-2.7a2,2,0,0,0,1.5-.6,3.49,3.49,0,0,0,.6-.9v-3a27.29,27.29,0,0,1-.75-5.1q-.45-4.5-1.05-9.9t-1-10.05a39.48,39.48,0,0,0-.75-5.55l-3-6q-.6-.9-1.8-2.85t-1.8-2a19.53,19.53,0,0,0-3-3.75q-2.4-2.55-3-3.15a7.69,7.69,0,0,1-2.7-1.35q-2.08-1.35-2.7-1.65l-1.2-1.5v-6.6a11.07,11.07,0,0,1,1.35-3.15c.9-1.7,1.46-2.75,1.65-3.15a18.23,18.23,0,0,1,3.15-3.75L637.48,20a23.5,23.5,0,0,0,3.75-1.5l3.15-1.5h4.5a10.64,10.64,0,0,1,2.1.75q1.8.75,3.75,1.65t3.6,1.5a8.26,8.26,0,0,0,2.25.6,46.09,46.09,0,0,0,4.5,2.25,15.41,15.41,0,0,0,3.6,1.35q1.5.6,4.35,1.5t6,1.95q3.15,1,5.7,1.95t3.15,1.2a18,18,0,0,1,3,.6q2.4.6,5.55,1.5t6.3,1.65a22.82,22.82,0,0,0,4.95.75,24.47,24.47,0,0,1,3.6.75,20.51,20.51,0,0,0,4.5.75,14.8,14.8,0,0,0,2.1.75q1.5.45,3,.75t2.85.45q1.35.15,1.65.15,2.1,0,6.9.45t10.2,1q5.4.6,10.2,1t6.9.75l.6.6.6.6v6.9l-1.2,2.7q-.6.9-1.8,2.4l-2.4,3-2.4,3q-1.2,1.5-1.5,1.8l-3.3,63.9-2.7,1.5V67.42l-1.2.6a.86.86,0,0,1-.6.3.27.27,0,0,0-.3.3q-.3.3-.6,4.35t-.45,8.7q-.15,4.65-.75,12.15,0,.6-1.2,1.2l-1.2.6V67.42a34.47,34.47,0,0,0-4.35-.6q-3.15-.3-6.6-.45t-6.6-.45q-3.15-.3-4.35-.3a21,21,0,0,1-2.85-.3q-1.95-.3-4-.45t-3.9-.45a18.41,18.41,0,0,0-2.4-.3q-.9-.3-4.5-1.05t-7.65-1.65q-4-.9-7.65-1.5a39.36,39.36,0,0,0-4.5-.6h-1.2a18.41,18.41,0,0,1-.3,2.4q-.3,1.8.3,2.4,0,.3.15,4.35t.3,8.85q.15,4.8.75,12.9,1.8.3,6.3.6l9.45.6q5,.3,9.3.6t6.15.6a20.64,20.64,0,0,1,3.15.6,20.64,20.64,0,0,0,3.15.6,6.14,6.14,0,0,0,1.65,1.65q1.35,1.05,1.35,1.65v4.8a3.69,3.69,0,0,1-.6,1.65,3.69,3.69,0,0,0-.6,1.65,29.35,29.35,0,0,1-1.8,3,17.54,17.54,0,0,1-1.5,1.8,12.87,12.87,0,0,1-2.4,3l-2.4,2.4q-1.2.6-3.75,1.65a13,13,0,0,1-3.15,1.05,1.22,1.22,0,0,1-.9.3,4.18,4.18,0,0,1-1.8.3,8.81,8.81,0,0,1-2.1-.3,8.21,8.21,0,0,0-1.8-.3,37.48,37.48,0,0,1-3.9-.6,32.42,32.42,0,0,0-4.2-.6h-8.1v41.7q.9,0,5.1-.6t5.1-.6q1.2,0,4.65-.3t7.35-.45q3.9-.15,7.35-.45t4.95-.3q-.6-.9-2.1-3.9a11.68,11.68,0,0,1-1.5-4.2,33.57,33.57,0,0,0-.6-3.75,27.9,27.9,0,0,1-.6-4.35v-2.1a9.82,9.82,0,0,1,.6-2.4,12.54,12.54,0,0,0,.6-2.1,12.54,12.54,0,0,1,.6-2.1,3.77,3.77,0,0,1,.9-1.5,8.87,8.87,0,0,1,1.8-2q1.5-1.35,3-2.85t3-2.85a23,23,0,0,1,2.4-2q.6-.3,1.65-.75a5.21,5.21,0,0,0,1.65-1h6.3a11.64,11.64,0,0,0,.6,1.5,4.72,4.72,0,0,0,1.2,1.8,26.58,26.58,0,0,0,.6,3.45q.6,2.85.6,3.15.6,1.2,2.55,4.8t2.55,4.8a15.53,15.53,0,0,0,2.1,3.3q1.8,2.4,2.4,3.3a8.87,8.87,0,0,0,1.8,1.95q1.5,1.35,3,2.85t3,2.85a23,23,0,0,0,2.4,1.95q.6.6,3.9,3.15t4.2,3.45a17.88,17.88,0,0,0,2.4,1.8,6.86,6.86,0,0,1,2.1,1.8q.9.3,3.75,1.65t6.15,2.85q3.3,1.5,6.15,3t3.75,2.1a11.22,11.22,0,0,1,2,1.5q1.35,1.2,1.35,1.5v6.3a4.85,4.85,0,0,1-.75,2q-.75,1.35-1.05,1.35a23,23,0,0,1-1.95,2.4q-1.35,1.5-2.85,3t-2.85,3a9.44,9.44,0,0,1-1.95,1.8,3.88,3.88,0,0,0-1.8.75,4.11,4.11,0,0,1-1.8.75h-8.1a8.74,8.74,0,0,1-2.1-.45l-3.45-1.05q-2-.61-3.6-1.2a7.83,7.83,0,0,1-2-.9l-6.45-1.65q-4.05-1-8.25-1.95t-7.35-1.65a27.39,27.39,0,0,0-3.75-.75,4.94,4.94,0,0,1-1.5-.3,12.54,12.54,0,0,0-2.1-.6,6.43,6.43,0,0,0-1.5.45,6.43,6.43,0,0,1-1.5.45,25.67,25.67,0,0,1-.3,2.7q-.3,2.1-.45,4.35c-.1,1.5-.25,2.94-.45,4.35a25.13,25.13,0,0,0-.3,2.7,26.54,26.54,0,0,1-.75,4.2q-.75,3.28-1.35,3.9a4.08,4.08,0,0,1-.75,1.8,3.91,3.91,0,0,0-.75,1.8q0-.62-.15-2.25c-.1-1.11-.25-2.25-.45-3.45s-.35-2.36-.45-3.45-.15-1.95-.15-2.55a11.69,11.69,0,0,1-.6-2.85q-.3-2.25-.6-4.95t-.45-5.1q-.15-2.4-.15-3.3l-1.5-1.5a2.69,2.69,0,0,0-1.35.45,2.69,2.69,0,0,1-1.35.45v47.7l-2.1,8.1c-.4-.21-.8-.9-1.2-2.1a9.93,9.93,0,0,1-.6-2.4,20.9,20.9,0,0,0-.3-2.85c-.2-1.31-.35-2.7-.45-4.2s-.25-3-.45-4.5a28,28,0,0,1-.3-3.15q-.3-2.11-.6-7.65c-.2-3.71-.35-7.65-.45-11.85s-.25-8.16-.45-11.85-.4-6.35-.6-8Z" fill="#f9f9f9"/><path d="M826.18,155.32a16.54,16.54,0,0,1-.6,3.3,16.54,16.54,0,0,0-.6,3.3,1.27,1.27,0,0,0-1.05.75q-.45.75-.75.75,0,1.2-.3,4.35t-.45,6.75q-.15,3.6-.45,7t-.3,4.65a17.38,17.38,0,0,0-1,4.8,17.48,17.48,0,0,1-1,4.8,11.75,11.75,0,0,1-.9,3.3,11.59,11.59,0,0,0-.9,3.3V158a8.15,8.15,0,0,1-2.55-.6l-3.3-1.2a21.71,21.71,0,0,0-3.15-.9q-1.5-.3-1.8,0a15.76,15.76,0,0,1-1.5,2.4,40.11,40.11,0,0,0-2.1,4.2,38.18,38.18,0,0,0-1.65,4.35,12.45,12.45,0,0,1-1.65,3.75q0,.3-.15,1.5t-.45,2.55q-.3,1.35-.45,2.55t-.15,1.5a3.24,3.24,0,0,1-.75,1.65,3.24,3.24,0,0,0-.75,1.65,23,23,0,0,0-2.4,2q-1.5,1.35-3,3t-3,3a6,6,0,0,1-1.8,1.35l-6,3.6h-2.1a3.33,3.33,0,0,1-1.65-.75,13.33,13.33,0,0,1-1.65-1.35,3.49,3.49,0,0,1-.6-.9,4.61,4.61,0,0,1-.6-1.8v-3.3a21.06,21.06,0,0,1,.6-3.6q.6-2.7.6-3,.6-1.2,1.8-4.35t2.4-6.6l2.25-6.45a20.88,20.88,0,0,1,1.65-3.9v-3a34.61,34.61,0,0,1-3.9-.45,15.55,15.55,0,0,1-4.2-1.05,4.61,4.61,0,0,0-.6-1.8,4.61,4.61,0,0,1-.6-1.8v-1.8a24.84,24.84,0,0,1,.6-2.7q.3-1.2.6-2.1l11.4-11.4a9,9,0,0,0,1.5-.3q1.2-.3,2.55-.75t2.55-.9a4.92,4.92,0,0,0,1.5-.75,14.44,14.44,0,0,1,1.5-3.6q1.5-3,2.1-4.5a49.3,49.3,0,0,1,1.65-6q1.35-4.2,3-9t2.85-8.85q1.2-4,1.8-5.85a5.41,5.41,0,0,0,.75-1.8q.45-1.5.9-3.3t.9-3.45a14.13,14.13,0,0,1,.75-2.25q.3-1.2.9-3.45t1.2-4.35q.6-2.1,1-3.75a13,13,0,0,0,.45-2q0-.3.15-5.55t.3-11.4q.15-6.15.15-11.4V33.22A8.73,8.73,0,0,0,817,30.07a26.47,26.47,0,0,1,1.05-3.15,17.31,17.31,0,0,1,1.5-3q1.5-2.7,2.1-3.6a5.91,5.91,0,0,1,1.35-2.4,8.1,8.1,0,0,1,2-2.1,2,2,0,0,1,.45-1.2,7.88,7.88,0,0,0,.75-1.2,43.4,43.4,0,0,1,3.75-2.4,19.89,19.89,0,0,0,3.15-2.1,9.3,9.3,0,0,1,1.8-.6,9.87,9.87,0,0,1,3-.6h3.3l1.2,1.2v15q-.3,3.3-.6,5.25t-.45,3.75q-.15,1.8-.15,2.1v6.3q0,.6.15,5t.3,9.6q.15,5.25.45,9.75t.3,5.1a26.35,26.35,0,0,0,.75,4.2,30.53,30.53,0,0,1,.75,3.9q.6,1.5,1.8,5.7t1.8,6a43.35,43.35,0,0,0,1.5,5l2.55,7.35,2.55,7.35q1.2,3.45,1.5,4.65.3.9,1.5,3.9a39,39,0,0,1,1.5,4.2,21.75,21.75,0,0,0,2.1,3.75,8.32,8.32,0,0,1,1.5,2.85,9.84,9.84,0,0,1,3,1.35,9.84,9.84,0,0,0,3,1.35,7,7,0,0,0,1.35,1.05q.75.45.75.75a24.15,24.15,0,0,0-.6,6.6,24.15,24.15,0,0,0,.6,6.6q1.8,3.9,3,6.6t2.7,5.4q1.5,2.7,2.4,4.2.3.6,2,5.55l3.6,10.8q2,5.85,3.6,10.95a38.38,38.38,0,0,0,2,5.4,10.32,10.32,0,0,0,1.8,3.6,16.8,16.8,0,0,0,1.5,2.4v6.6a11.31,11.31,0,0,0-1.65,3.15q-1.05,2.53-1.65,3.75-.3.28-1.35,1.35c-.7.69-1.5,1.5-2.4,2.4l-2.55,2.55q-1.2,1.19-1.8,1.8a4.44,4.44,0,0,0-1.8.6,4.78,4.78,0,0,1-1.8.6h-8.1a16.68,16.68,0,0,1-3-1.95q-2.7-2-3.6-2.55a8.14,8.14,0,0,0-.75-2.4,8.32,8.32,0,0,1-.75-2.4v-5.4l-1.2-2.4a7.05,7.05,0,0,1-.9-1.95,3.62,3.62,0,0,0-.9-1.65,66.54,66.54,0,0,1-5.1-11.4q-3-8.1-6.3-16.5-3.6-9.9-7.8-21Zm-4.5-39.3-2.1,5.25a19.41,19.41,0,0,0-1.5,4.65,15.91,15.91,0,0,1-.15,1.8,15.91,15.91,0,0,0-.15,1.8h1.8a12.08,12.08,0,0,1,4.2-1.05q3.3-.45,3.9-1v-1.5a21,21,0,0,0-1.35-4.65A18.71,18.71,0,0,1,825,116q-.6,0-1.05-1.35t-.75-1.35Z" fill="#f9f9f9"/><path d="M918,197.92q-.3,0-3.6.45a40.91,40.91,0,0,1-4.5.45,14.69,14.69,0,0,0-1.5-2.1,6.33,6.33,0,0,1-1.2-1.8l2.7-18.9a18,18,0,0,0-3.45-1.5q-2.55-.9-3.15-1.2a9.25,9.25,0,0,1-2.85-2.85,11.75,11.75,0,0,1-1.65-2.55v-3.6c.19-.8.45-1.7.75-2.7a10.46,10.46,0,0,0,.45-1.8,8.81,8.81,0,0,1,.3-2.1,7.24,7.24,0,0,1,1.2-3c.19-.2.9-1.15,2.1-2.85A11.45,11.45,0,0,1,906,149q.6-.9,1.5-2.1.6-.9,1-1.65a6.61,6.61,0,0,1,1.05-1.35V140a9.18,9.18,0,0,1,.6-2.7l.6-1.8a20.39,20.39,0,0,0-.75-3.3q-.75-2.7-1.35-4.5.6-.9-.45-5.4t-1.35-6.6c0-.4,0-1.2.15-2.4s0-1.9-.15-2.1a18.28,18.28,0,0,1-1.2-3.45c-.41-1.5-.8-2.9-1.2-4.2a27.79,27.79,0,0,1-.9-3.6,18.74,18.74,0,0,1-.3-2c-.41-1-1.1-2.65-2.1-5s-2-4.75-3-7.35-1.95-5-2.85-7.2a29.34,29.34,0,0,1-1.65-4.8c0-.6-.56-1.7-1.65-3.3s-1.85-2.4-2.25-2.4a18.59,18.59,0,0,0-2.4-1.8c-1.2-.8-2.51-1.65-3.9-2.55s-2.7-1.75-3.9-2.55a8.56,8.56,0,0,0-2.1-1.2q-.3,0-1.8-2.4a42,42,0,0,0-2.7-3.9,3.69,3.69,0,0,0-.6-1.65,3.69,3.69,0,0,1-.6-1.65v-1.5a3.32,3.32,0,0,1,.15-1,3.32,3.32,0,0,0,.15-1.05,6.43,6.43,0,0,1,.45-1.5,6.43,6.43,0,0,0,.45-1.5,3.49,3.49,0,0,0,.6-.9,1.62,1.62,0,0,1,.6-.75q.3-.15.3-.75.3-.3,1.65-2.1a5.91,5.91,0,0,0,1.35-2.4,31.68,31.68,0,0,1,3.15-2.4,34.49,34.49,0,0,0,3.15-2.4,6.86,6.86,0,0,1,2.7-1.2,13.23,13.23,0,0,1,2.7-.6l1.8-.6q.6-.3,1.35-.6a3.6,3.6,0,0,1,1.35-.3h1.5q.9.6,3.6,2.1t3,2.4A13.71,13.71,0,0,1,904,35l3.6,3.3q1.95,1.8,3.6,3.45L913.48,44c.79.4,1.95.9,3.45,1.5a10.25,10.25,0,0,0,3.45.9q3.6.6,13.35,1.65t20.7,2.4L975,53q9.6,1.2,13.2,1.5c.79.6,2.85,1.2,6.15,1.8a45.53,45.53,0,0,0,7,.9,8.61,8.61,0,0,0,4.5,2.1,21.83,21.83,0,0,1,3.6.9c.4.2,1.24.6,2.55,1.2s2.65,1.25,4.05,1.95,2.8,1.35,4.2,1.95,2.4,1,3,1.2a4,4,0,0,1,1.8.75,3.91,3.91,0,0,0,1.8.75c.79,1,1.6,2,2.4,3s1.39,1.5,1.8,1.5a19.87,19.87,0,0,0,1.65,2.4,5.91,5.91,0,0,1,1.35,2.4q0,.6-.15,2.7c-.11,1.4-.15,2.5-.15,3.3a4.65,4.65,0,0,0-.9,3.3v2.1a4.93,4.93,0,0,1-.75,1.5q-.75,1.2-1.65,2.7t-2,3a18.11,18.11,0,0,1-1.65,2.1,24.12,24.12,0,0,0-1.8,2.1q-1.2,1.5-1.8,2.1l-4.5,4.5-3.6,3.6c-1.2,1-3.41,2.75-6.6,5.25s-6.6,5.2-10.2,8.1-7,5.65-10.2,8.25-5.4,4.4-6.6,5.4a1.27,1.27,0,0,1,1,.75,6.61,6.61,0,0,0,1,1.35,21.65,21.65,0,0,1,2.1,1.35,32.82,32.82,0,0,1,3,2.4q1.5,1.35,2.85,2.4a4.06,4.06,0,0,0,2,1.05,25.14,25.14,0,0,0,3.3,2.55c1.6,1.1,3.19,2.25,4.8,3.45s3.15,2.3,4.65,3.3a22.29,22.29,0,0,1,3.15,2.4,6.87,6.87,0,0,0,1.8,1.8,7.66,7.66,0,0,1,2.1,2.4,18.25,18.25,0,0,1,3.15,2.25l3.9,3.3c1.3,1.1,2.44,2.15,3.45,3.15a11,11,0,0,1,1.8,2.1,3.38,3.38,0,0,0,1,1.8l2.25,2.55,2.25,2.55q1.05,1.2,1,1.5a15.94,15.94,0,0,1,1.8,3.6,4.94,4.94,0,0,0-.3,1.5v5.4a8.93,8.93,0,0,0-2.1,2.55,25,25,0,0,1-2.1,2.85,19.45,19.45,0,0,1-3.6,3.15,21,21,0,0,1-3.9,2.55,10.23,10.23,0,0,1-3,1.5c-1.61.6-2.6,1-3,1.2h-2.7a7.63,7.63,0,0,1-1.35-.15,6.25,6.25,0,0,0-1.35-.15,35.8,35.8,0,0,1-2.7-3.3q-1.8-2.41-3.75-4.8c-1.31-1.61-2.55-3.21-3.75-4.8a34.44,34.44,0,0,0-2.7-3.3c-.41,0-1.35-.65-2.85-2s-2.85-2.45-4-3.45q0-.6-1.5-1.8c-1-.8-1.5-1.4-1.5-1.8a44.22,44.22,0,0,1-4-2.85c-1.7-1.3-3.41-2.55-5.1-3.75l-4.5-3.15a23.22,23.22,0,0,1-2.25-1.65q-.62-.3-2.7-1.65l-4.65-3q-2.55-1.65-4.8-2.85t-3.15-1.8a3.84,3.84,0,0,0-1.5-.9,3.77,3.77,0,0,1-1.5-.9l-1.8-.9a3.65,3.65,0,0,0-1.65.6,7.58,7.58,0,0,0-1.65,1.2q-.9,0-3.3,1.8c-1.61,1.2-2.7,1.8-3.3,1.8a8.06,8.06,0,0,0-1.8,1.5,8.54,8.54,0,0,1-1.8,1.5,11.53,11.53,0,0,0-1.2,3.45c-.41,1.7-.8,3.45-1.2,5.25s-.75,3.5-1.05,5.1a31.77,31.77,0,0,1-.75,3.3,6.43,6.43,0,0,1-.45,1.5q-.45,1.2-.9,2.55a19.44,19.44,0,0,1-1.05,2.55,5,5,0,0,0-.6,1.5c-.2.4-.56,1.2-1,2.4s-1,2.44-1.5,3.75-1,2.55-1.5,3.75-.86,2-1,2.4l-1.5,1.5a5.23,5.23,0,0,0-1.5,1.5l1.2-9.3a61,61,0,0,0-3.9,9,31.21,31.21,0,0,1-.45,3.75q-.45,2.84-.9,5.85t-.9,5.85a30.76,30.76,0,0,0-.45,3.75l-2.4-3Zm9.6-121.5c.19,1.2.7,3.45,1.5,6.75s1.6,6.85,2.4,10.65,1.6,7.35,2.4,10.65,1.39,5.55,1.8,6.75a15.27,15.27,0,0,1,.75,2.25,31,31,0,0,1,.75,3.75q.29,2.1.45,3.9t.15,2.1l.9,2.7.6,1.8H942c.79,0,2.2,0,4.2.15s4.15.25,6.45.45,4.45.35,6.45.45a33.76,33.76,0,0,1,4.5.45l3-1.5c.6-.4,1.54-1.1,2.85-2.1s2.7-2,4.2-3,3-2,4.35-2.85l3-2q1.5-1.2,4.95-4.2c2.29-2,4.75-4.05,7.35-6.15l7.2-5.85c2.2-1.8,3.79-3.1,4.8-3.9q.6,0,1.35-1.5a7.91,7.91,0,0,1,1.35-2.1c-.41,0-1-.45-1.65-1.35a4,4,0,0,1-1.05-2q-.9,0-3.3-1.95c-1.61-1.3-2.7-2-3.3-2a5.86,5.86,0,0,0-1.95-.75,37.88,37.88,0,0,1-3.6-1.2c-1.31-.5-2.7-1-4.2-1.5a12.2,12.2,0,0,1-3.45-1.65q-1.51-.3-4.05-1a17,17,0,0,0-3.15-.75q-1.51-.3-2.7-.6a26.34,26.34,0,0,0-3.9-.6h-6.3q-1.2.3-1.65,2.1a5.41,5.41,0,0,1-1.05,2.4,11.75,11.75,0,0,1-.75,2.7,11.22,11.22,0,0,0-.75,2.7H960a47,47,0,0,0-.75-5.55,42.85,42.85,0,0,1-.75-5.85v-.6a.91.91,0,0,0-.3-.6h-2.4c-.2.6-.71,2.15-1.5,4.65a23.11,23.11,0,0,0-1.2,4.65,7.08,7.08,0,0,1-.9,3,7.24,7.24,0,0,0-.9,2.4h-1.2l-.9-.9c0-.2-.11-1-.3-2.55a28,28,0,0,1-.3-3.15q-.62-1.2-.45-4.8t-.45-4.8l-18.9-1.2Z" fill="#f9f9f9"/><path d="M1097.22,192.67a9.42,9.42,0,0,0-3.75-1.35,1.73,1.73,0,0,0-.6-1.2l-.6-.6v-6.3a13.51,13.51,0,0,1,.6-2.7,13.51,13.51,0,0,0,.6-2.7,13.14,13.14,0,0,0,1.65-2.4,5.84,5.84,0,0,1,1.65-2.1,25.85,25.85,0,0,0,3.3-3.15q2.4-2.55,3.3-3.75a6.76,6.76,0,0,0,2.55-1.35,6.76,6.76,0,0,1,2.55-1.35q.3-.6,2.1-1.05a5.41,5.41,0,0,0,2.4-1h2.1q.6.6,1.65,1.8a3.45,3.45,0,0,1,1,1.8q.6.3,1.2,2.1a9.82,9.82,0,0,1,.6,2.4v3.6a31.2,31.2,0,0,1-1.5,3.3,31.2,31.2,0,0,0-1.5,3.3q-.3.3-1.35,1.5L1113,184q-1.2,1.35-2.1,2.55a18.15,18.15,0,0,1-1.2,1.5,11.64,11.64,0,0,1-.6,1.5l-.6,1.8a15,15,0,0,1-.3,1.8,29,29,0,0,0-.45,3.3c-.1,1.2-.25,2.34-.45,3.45a15,15,0,0,0-.3,2.25,28.74,28.74,0,0,0-.75,3.3c-.3,1.59-.55,3.3-.75,5.1s-.35,3.45-.45,4.95-.15,2.44-.15,2.85a17.22,17.22,0,0,1-.75,3.6,26.86,26.86,0,0,0-.75,3h-1.8l-1.2-1.2V194A11.07,11.07,0,0,1,1097.22,192.67Z" fill="#f9f9f9"/><path d="M1174.77,200.75c-1.82-.63-3.08-1.09-3.78-1.36s-1.68-.84-3.36-1.68l-3.36-1.68c-.28-.15-.91-.53-1.89-1.16s-2-1.29-3-2l-3.15-2.1-2.21-1.47a7.19,7.19,0,0,1-1.26-.95c-.56-.49-1.15-1-1.78-1.47s-1.2-.94-1.68-1.36-.81-.7-1-.84l-17-17L1130,166c-.28-.42-.6-.88-.94-1.37a10.19,10.19,0,0,0-.95-1.15c-.28-.42-.7-1.09-1.26-2a11.1,11.1,0,0,0-1.26-1.78l-1.05-1.89a9.46,9.46,0,0,0-.42-1.89,4.8,4.8,0,0,0-.84-1.89,21,21,0,0,0-.42-2.52q-.21-.84-.42-1.89v-7.77a10.23,10.23,0,0,1,.42-2.42,10.17,10.17,0,0,0,.42-2.41c.28-.56.7-1.44,1.26-2.63s1.16-2.38,1.79-3.57,1.18-2.27,1.68-3.25.8-1.61.94-1.89a11.29,11.29,0,0,0,1.89-1.79c1-1,2.06-2.17,3.26-3.36s2.34-2.38,3.46-3.57a28.56,28.56,0,0,1,2.73-2.62,10.85,10.85,0,0,1,1.79-1.26c.9-.56,1.57-1,2-1.26a21.68,21.68,0,0,0,3.36-1.47l3.36-1.68q1.05-.42,3.57-1.26a30.89,30.89,0,0,0,3.36-1.26c.42,0,1.19,0,2.31-.11s2.34-.17,3.68-.31,2.58-.25,3.78-.32,2-.1,2.41-.1a13.91,13.91,0,0,1-.21-2.94,10.87,10.87,0,0,1,.21-2.73,5.06,5.06,0,0,1,1-2.42,25,25,0,0,0,1.47-2.41,22.76,22.76,0,0,1,2.73-2.73,27.33,27.33,0,0,0,2.94-2.94l4.2-2.1h2.52a3.48,3.48,0,0,0,1.05.52,1.84,1.84,0,0,1,1,.74l1,.84c.14.28.32.59.53.94a5.84,5.84,0,0,1,.52,1.16q.21.84.42,1.47c.28.42.66,1.08,1.16,2a8.35,8.35,0,0,0,1.15,1.79,33.1,33.1,0,0,0,3,3.15c1.6,1.54,3.32,3.22,5.14,5l5.25,5.25,3.57,3.57a5,5,0,0,1,1.37.94l2.52,2.1c.9.77,1.78,1.51,2.62,2.21A12.12,12.12,0,0,0,1217,120l1.58,1.57c.76.77,1.53,1.58,2.31,2.42l2.2,2.41c.7.77,1.19,1.3,1.47,1.58a14.38,14.38,0,0,0,.74,1.26,2.89,2.89,0,0,1,.52,1.26,5.3,5.3,0,0,0-.63,1.26c-.14.28-.28.59-.42.94a2.6,2.6,0,0,0-.21.95,1.28,1.28,0,0,1-.21.73,7,7,0,0,0-.42.74,8.15,8.15,0,0,1-.42,1.05c-.28.28-.7.66-1.26,1.15s-1.15,1-1.78,1.68-1.2,1.23-1.68,1.79-.81.91-1,1l-2.2,1.05c-1.2.56-2,.91-2.42,1h-3.57a10.5,10.5,0,0,1-1.47-1c-.7-.56-1.47-1.16-2.31-1.79l-2.41-1.78a15.35,15.35,0,0,0-1.58-1.05,36,36,0,0,0-3.78-2.63,25.37,25.37,0,0,1-2.94-2,34.21,34.21,0,0,0-3.36-1.68,21,21,0,0,0-3.78-1.47,30.89,30.89,0,0,0-3.36-1.26,30.89,30.89,0,0,1-3.36-1.26h-1.89v11.34h-1.89V126.94h-1.89a27.33,27.33,0,0,1-1,2.94q-.84,2.1-1,2.73l-1,1a3.8,3.8,0,0,1-.73-1.68c-.21-.84-.46-1.33-.74-1.47a15,15,0,0,0-.52-2.94,14.31,14.31,0,0,1-.53-2.73,10.52,10.52,0,0,0-3.25-.84,10.43,10.43,0,0,1-3.26-.84h-12.6a11.52,11.52,0,0,0-1.47.63l-2.1,1c-.42.14-1.23.49-2.41,1s-1.93.91-2.21,1l-1.05,1c-.14.28-.39.7-.73,1.26a2.7,2.7,0,0,0-.53,1.26v11.34a11,11,0,0,0,1.05,1.68,11.8,11.8,0,0,1,.74,1.26l.52,1.05c.28.56.7,1.29,1.26,2.2a4.84,4.84,0,0,0,1.26,1.58,7.87,7.87,0,0,0,1,1.36l1.79,2,1.78,2a7.83,7.83,0,0,1,1,1.37,4.75,4.75,0,0,0,1.37,1.68c.76.7,1.57,1.47,2.41,2.31l2.42,2.41a14.07,14.07,0,0,1,1.57,1.79q.42.42,1.47,1.26c.7.56,1.47,1.22,2.31,2s1.68,1.47,2.52,2.1a8,8,0,0,0,1.89,1.16c.28.28,1,.87,2.1,1.78a11.79,11.79,0,0,1,2.1,2q.63.42,1.68,1.05c.7.42,1.43.84,2.21,1.26l2.1,1.15a6.47,6.47,0,0,1,1.15.74,16.34,16.34,0,0,0,3.15,1.68q2.73,1.26,3.57,1.68c.28.14.59.28,1,.42s.66.28.94.42l1.26.42h8.19c.14,0,.32-.14.53-.42a7.82,7.82,0,0,1,.73-.84l.84-1.89a6.78,6.78,0,0,0,.74-2.31,14.92,14.92,0,0,0,.31-2.31,9.87,9.87,0,0,0,.53-1.58,22.78,22.78,0,0,0,.52-2.52c.14-.91.24-1.75.32-2.52s.1-1.29.1-1.57a7.16,7.16,0,0,1,.53-2.31,8.27,8.27,0,0,0,.52-1.89,10.21,10.21,0,0,0,.53-1.47c.21-.7.45-1,.73-1a8.81,8.81,0,0,1,1.16-1.47,27.72,27.72,0,0,1,2.1-2.1c.76-.7,1.43-1.37,2-2s1-1.08,1.26-1.36a8.15,8.15,0,0,1,1-.42,8.78,8.78,0,0,1,1.47-.42c.28-.14.59-.28.95-.42a2.88,2.88,0,0,0,.94-.63,5.3,5.3,0,0,1,1.26-.63q.42.42,1.47,1.26t1,1.26v8c0,.28-.14,1.29-.42,3a27.75,27.75,0,0,0-.42,4.1,5.17,5.17,0,0,0-.84,2.1,5.17,5.17,0,0,1-.84,2.1,9.24,9.24,0,0,1-.94,2.73,21.43,21.43,0,0,0-1.16,2.94,7.13,7.13,0,0,1-1,2.52,6.57,6.57,0,0,1-1.47,2.1,5.53,5.53,0,0,1-.73,1.78,9.13,9.13,0,0,1-1.16,1.79,11.24,11.24,0,0,0-2.1,2.41,22.49,22.49,0,0,1-1.68,2.21l-1.89,1.89c-.28.27-1,.87-2.2,1.78l-2.63,2-.94.42a2.47,2.47,0,0,0-.95.63l-1.26.84a3.74,3.74,0,0,1-1.05.52c-.56.21-1.15.45-1.78.74s-1.23.52-1.79.73a4.63,4.63,0,0,1-1,.32,3.69,3.69,0,0,1-1.47.73c-.7.21-1,.45-1,.74l-.84,1.89a6.27,6.27,0,0,0-.73.84c-.21.27-.39.42-.53.42a10.4,10.4,0,0,0-.31-1.47,3.73,3.73,0,0,0-.74-1.68q0-.63-.42-.63h-.21q-.21,0-.84.63c0,1-.07,2.73-.21,5.25s-.25,5.25-.31,8.19-.18,5.67-.32,8.19-.21,4.26-.21,5.25c0,.42-.14,1.64-.42,3.67a36.5,36.5,0,0,0-.42,4.52,18.64,18.64,0,0,0-.84,3.15,20.32,20.32,0,0,0-.42,2.52,3.7,3.7,0,0,1-.52,1.05,2.94,2.94,0,0,0-.53,1V201.7A16.17,16.17,0,0,1,1174.77,200.75Z" fill="#f9f9f9"/><path d="M1255,192.46a20.19,20.19,0,0,0-.53,2.31c-.21,1.11-.45,2.23-.73,3.36s-.53,2.23-.74,3.36-.39,1.89-.52,2.31a3.93,3.93,0,0,1-.42,1,3.47,3.47,0,0,0-.42,1.05h-1.26a7.41,7.41,0,0,0-.53-1.47,5.78,5.78,0,0,1-.52-1.68,14.21,14.21,0,0,1-.42-2.31c-.14-1.13-.25-2.31-.32-3.57s-.17-2.42-.31-3.47a8,8,0,0,0-.42-2,30.89,30.89,0,0,0-3.36-1.26,30.89,30.89,0,0,1-3.36-1.26,3.68,3.68,0,0,1-1.05-.42,2.27,2.27,0,0,1-1-.84c-.28-.14-.6-.32-1-.53s-.73-.45-1.15-.73a11.52,11.52,0,0,0-1.47-.63,12.83,12.83,0,0,0-1.79-1.89q-1.37-1.26-2.73-2.73l-2.62-2.84a19.33,19.33,0,0,1-1.68-2c-.29,0-.7-.46-1.26-1.37s-1-1.57-1.26-2a6.07,6.07,0,0,1-.95-1.37,14.58,14.58,0,0,1-.94-2.1q-.42-1.16-.84-2.1a4.25,4.25,0,0,1-.42-1.15c-.28-.14-.7-1.16-1.26-3.05s-1-3.18-1.26-3.88a20.19,20.19,0,0,1-.53-2.31,4.57,4.57,0,0,0-.73-2.1,41.74,41.74,0,0,0-.42-4.73c-.28-2.17-.42-3.53-.42-4.09v-8.19c0-.28,0-.91.1-1.89s.18-2,.32-3.05.24-2.1.31-3.15.11-1.78.11-2.2a11.26,11.26,0,0,0,.73-3,12.71,12.71,0,0,1,.53-2.62c.13-.42.38-1.16.73-2.21l1-3.15c.35-1.05.7-2.06,1-3s.6-1.68.74-2.1a24.57,24.57,0,0,1,1.15-2.52q.94-1.89,2.1-4.1t2-4.09a20,20,0,0,1,1.26-2.52,14.82,14.82,0,0,0,1-1.47c.56-.84,1.15-1.72,1.78-2.63s1.23-1.75,1.79-2.52.91-1.15,1-1.15a4.51,4.51,0,0,0,.84-1.47,8.15,8.15,0,0,1,.42-1.05V81l1-1.89c.42-.42,1-1,1.78-1.89s1.58-1.68,2.42-2.52,1.64-1.61,2.41-2.31,1.3-1.19,1.58-1.47,1.19-.74,2.31-1.37a6.09,6.09,0,0,1,2.31-.94H1256a6.78,6.78,0,0,1,2.41.94,11.48,11.48,0,0,1,2.21,1.37c.28.28,1,.94,2.1,2s2.34,2.24,3.67,3.57,2.59,2.63,3.78,3.89a30.57,30.57,0,0,0,2.84,2.73c.14.28.63,1,1.47,2.2a23.5,23.5,0,0,1,1.68,2.63,12.51,12.51,0,0,1,1.26,1.68,12.51,12.51,0,0,0,1.26,1.68l1.89,3.15a9.21,9.21,0,0,1,1.26,2.52,16.49,16.49,0,0,0,1.15,2.31c.63,1.12,1.26,2.27,1.89,3.46s1.19,2.31,1.68,3.36.81,1.79,1,2.21a10,10,0,0,1,1.26,2.73,15.72,15.72,0,0,0,1.26,2.94q.21.84,1,3.36a34.88,34.88,0,0,1,1.05,3.57,4.77,4.77,0,0,1,.73,2.2,19.39,19.39,0,0,1,.32,2.21c.28,1,.59,2.34.94,4.09s.53,2.7.53,2.84v15.75a17.48,17.48,0,0,1-.53,2.52,26.42,26.42,0,0,1-.94,3.15,17,17,0,0,1-.32,2.62,4.83,4.83,0,0,1-.73,2.21,8.78,8.78,0,0,1-.42,1.47,6.87,6.87,0,0,0-.42,1.68,21.33,21.33,0,0,0-1.16,2.1c-.49,1-1,1.92-1.47,2.83s-.94,1.79-1.36,2.63a8.92,8.92,0,0,1-.84,1.47,9.52,9.52,0,0,1-1.47,2.62,22.49,22.49,0,0,1-1.68,2.21,13.29,13.29,0,0,0-1.79,1.57l-2.41,2.42-2.42,2.41a8.77,8.77,0,0,1-1.57,1.37q0,.21-.84.84c-.56.42-1.19.87-1.89,1.36s-1.4,1-2.1,1.37a9.2,9.2,0,0,1-1.68.84,3.56,3.56,0,0,1-.84.52l-1.47.74c-.56.28-1.09.52-1.58.73a3.49,3.49,0,0,1-.94.32q-.84,0-.84,1.47-.21,1.89-.42,6.82t-.32,10.5q-.11,5.57-.31,10.61c-.14,3.36-.21,5.73-.21,7.14a13.31,13.31,0,0,1-.21,2.1l-.42,2.52c-.14,1-.29,2-.42,3.15h-1.47l-1.89-41.79Zm-20.79-52.71a15.7,15.7,0,0,0,.52,3c.35,1.47.6,2.56.74,3.26a30.89,30.89,0,0,1,1.26,3.36,28.85,28.85,0,0,0,1.26,3.36,36,36,0,0,1,1.68,3.25c.84,1.75,1.33,2.84,1.47,3.26a13.41,13.41,0,0,0,1.78,2.41,13.57,13.57,0,0,1,1.79,2.42l4.62,4.62a5.3,5.3,0,0,1,1.26.63,4.83,4.83,0,0,0,.94.73c.35.21.67.39,1,.53a4.89,4.89,0,0,0,1.26.84,3.22,3.22,0,0,0,1.26.42,3.8,3.8,0,0,0,1.68.73,11.65,11.65,0,0,0,1.47.32h11.34c.28-.28.87-.84,1.78-1.68a11.55,11.55,0,0,1,1.79-1.47l1-2.1a11.64,11.64,0,0,0,1.05-2.73,3.8,3.8,0,0,0,.73-1.68,9,9,0,0,0,.32-1.68,4.22,4.22,0,0,0,.42-1.58c.14-.91.24-2,.31-3.25s.18-2.49.32-3.68.28-2.13.42-2.83V149.2a23.49,23.49,0,0,1-.42-2.42c-.14-1.05-.25-2.13-.32-3.25a29.31,29.31,0,0,0-.31-2.94,7.51,7.51,0,0,0-.42-1.68,12.1,12.1,0,0,0-.53-2.21,10.42,10.42,0,0,1-.52-2.62c-.14-.42-.49-1.51-1.05-3.26s-.91-2.83-1-3.25-.7-1.58-1.26-3a9.74,9.74,0,0,0-1.26-2.62c-.14-.42-.46-1.19-1-2.31s-1-2.24-1.68-3.36l-1.89-3.36a16.49,16.49,0,0,1-1.15-2.31q-.42-.84-1.68-2.94a19.39,19.39,0,0,1-1.47-2.73c-.28-.28-.88-1-1.79-2.21a19.19,19.19,0,0,1-1.78-2.62c-.14,0-.49-.32-1.05-1s-.91-.94-1-.94l-1,1.89c-.28.56-.6,1.29-1,2.2a8.63,8.63,0,0,0-.52,1.58c0,.42-.07,1.5-.21,3.25s-.25,3.64-.32,5.67-.18,4-.31,5.78-.21,2.94-.21,3.36a30.2,30.2,0,0,1-.42,3.25,30.25,30.25,0,0,0-.42,3.26,10.52,10.52,0,0,1-.84-3.26,30.2,30.2,0,0,1-.42-3.25c0-1-.08-2.84-.21-5.57s-.25-5.6-.32-8.61-.17-5.84-.31-8.5-.21-4.55-.21-5.67h-2.52c-.14,0-.63.45-1.47,1.36a19.14,19.14,0,0,0-1.68,2,17.86,17.86,0,0,0-1.68,2.52,30.13,30.13,0,0,1-2.1,3.15,2.57,2.57,0,0,1-.42,1.15,2.6,2.6,0,0,0-.42,1.16l-.74,2.2-1,3.15c-.35,1.05-.7,2.07-1,3.05s-.59,1.61-.73,1.89l-.74,2.94a14.84,14.84,0,0,0-.52,2.73v18.9Z" fill="#f9f9f9"/><path d="M1377.21,235.93a17.45,17.45,0,0,1-3.15-.53c-1.55-.35-2.39-.67-2.52-.94a1.37,1.37,0,0,1-.63-.63,3.15,3.15,0,0,1-.42-1.26v-1.26a11.28,11.28,0,0,1,.42-2.1,4.17,4.17,0,0,1,.63-1.47,9.76,9.76,0,0,1,1.15-1.58q.94-1.16,2.1-2.31c.77-.77,1.5-1.54,2.21-2.31s1.18-1.3,1.47-1.57V216.4c-.42-1-1.13-2.56-2.1-4.73s-2-4.66-3.15-7.45-2.28-5.71-3.47-8.72-2.35-5.91-3.46-8.71-2.1-5.29-2.94-7.46-1.47-3.74-1.89-4.72-1.16-3-2.21-5.57-2.1-5.35-3.15-8.29-2.07-5.67-3-8.19-1.68-4.34-2.1-5.46v8a23.3,23.3,0,0,0,.21,2.83c.13,1.19.24,2.45.31,3.78s.17,2.59.32,3.78.21,2,.21,2.42a16.77,16.77,0,0,1,.63,2c.28,1.05.55,2.21.84,3.47s.52,2.45.73,3.57a15.34,15.34,0,0,1,.32,2.31v5.67a12.94,12.94,0,0,1-1,2.73,31.07,31.07,0,0,1-1.47,2.94,21.86,21.86,0,0,1-.53,2.73,18,18,0,0,0-.52,2.94l-.84,1c-.29-.29-.67-.71-1.16-1.26s-.88-1-1.15-1.26h-1.47l-1.89,13.86a4.73,4.73,0,0,1-.84-1.26,3.15,3.15,0,0,1-.42-1.26,36.91,36.91,0,0,0-.53-4.41,37,37,0,0,1-.52-4.41,2.73,2.73,0,0,1-1.26-.53,2.81,2.81,0,0,0-1.26-.52,6.12,6.12,0,0,0-1-1.26,5.84,5.84,0,0,1-1-1.26c-.14-.42-.39-1.23-.74-2.42s-.7-2.48-1-3.88-.7-2.7-1-3.89-.6-2-.73-2.41-.5-1.12-1-2.52a18.17,18.17,0,0,1-1.05-3.15,7.62,7.62,0,0,0-1-2.21,15.39,15.39,0,0,0-1.47-2.2c-.15-.28-.42-.81-.84-1.58s-.84-1.57-1.26-2.41-.84-1.61-1.26-2.31-.71-1.19-.84-1.47c-.42-.56-1.09-1.58-2-3.05s-1.86-3-2.83-4.62-1.93-3.11-2.84-4.51l-1.78-2.73-1.47,1v31.71a24.54,24.54,0,0,0-2.31,4c-1,2-1.62,3.29-1.89,4,0,.42,0,1.29-.11,2.62s-.18,2.76-.31,4.31-.25,3-.32,4.3-.1,2.21-.1,2.63a9.7,9.7,0,0,1-.53,2.31,9.32,9.32,0,0,0-.52,2.31,7.56,7.56,0,0,1-.95-1.26,2.85,2.85,0,0,1-.52-1.26c0-.42-.08-1.2-.21-2.31s-.25-2.28-.32-3.47-.18-2.31-.31-3.36a19.53,19.53,0,0,1-.21-2.2h-1.26a5.3,5.3,0,0,1-1.47.63c-1.13.27-1.76.42-1.89.42h-3.15c-.29,0-.71-.32-1.26-1s-1-1.08-1.26-1.36q.2-2.31.63-8.4t.84-13q.4-6.93.73-13t.32-8.61V125.68c0-.14-.08-.6-.21-1.37a22.27,22.27,0,0,1-.32-2.41c-.07-.84-.18-1.65-.31-2.42a9.44,9.44,0,0,1-.21-1.57,9.84,9.84,0,0,1-.74-2.63,4.9,4.9,0,0,0-.73-2.2,6.62,6.62,0,0,1-.74-1.58q-.52-1.36-1-2.94l-.94-2.83a6.87,6.87,0,0,1-.42-1.68v-2.31q.21-.63,1-2.52c.56-1.26.9-1.89,1-1.89l1-1,1.78-1.79c.63-.63,1.19-1.22,1.68-1.78s.87-1,1.16-1.26a8,8,0,0,0,2.2-1,7.55,7.55,0,0,1,2.21-.94,1.91,1.91,0,0,0,.94-.32,1.86,1.86,0,0,1,1-.31,1.88,1.88,0,0,1,.94.31,1.88,1.88,0,0,0,.95.32.62.62,0,0,1,.42.21l.63.63a7.05,7.05,0,0,0,.84,2.1c.55,1.12,1.15,2.34,1.78,3.67s1.26,2.56,1.89,3.68a13.72,13.72,0,0,0,1.16,1.89c.27.56.84,1.64,1.68,3.25s1.74,3.33,2.73,5.15,1.89,3.53,2.73,5.14,1.39,2.77,1.68,3.47c.13.28.42.8.84,1.57s.87,1.58,1.36,2.42,1,1.64,1.37,2.41a7.13,7.13,0,0,0,1,1.58c.55.7,1.29,1.75,2.2,3.15a9,9,0,0,1,1.37,2.52.66.66,0,0,0,.42.63,1.8,1.8,0,0,0,.84.21c0-.14,0-.63.1-1.47s.14-1.75.21-2.73.17-1.93.32-2.84.21-1.5.21-1.78c.13-.56.42-2,.84-4.2s.84-4.62,1.26-7.14.76-4.9,1-7.14.42-3.64.42-4.2.06-1.33.21-2.73.24-2.94.31-4.62.17-3.22.32-4.62a14.07,14.07,0,0,1,.42-2.73,18.38,18.38,0,0,1,.31-2.21c.21-1.19.38-2.06.53-2.62a3.21,3.21,0,0,1,.52-1,3.34,3.34,0,0,0,.53-1c.42-.42,1-1,1.78-1.89s1.58-1.68,2.42-2.52,1.64-1.58,2.41-2.21a3.53,3.53,0,0,1,1.58-.94,3.43,3.43,0,0,1,1.47-1,5,5,0,0,1,1.68-.63h2.52c.13,0,.31.21.52.63a3.79,3.79,0,0,0,.74,1,7.8,7.8,0,0,0,.42,1.47,7.4,7.4,0,0,1,.42,1.68v17a16.79,16.79,0,0,0,.52,2.52,14.44,14.44,0,0,1,.53,3.15q.19.63.63,1.89l.84,2.62c.27.91.52,1.79.73,2.63a8.7,8.7,0,0,1,.32,1.89,25.92,25.92,0,0,0,1.15,4.3,16,16,0,0,1,1,3.68q.63,1.47,1.89,5.35c.84,2.59,1.74,5.36,2.73,8.3s1.89,5.7,2.73,8.29,1.47,4.38,1.89,5.36c.13.42.45,1.26.94,2.52s1,2.55,1.47,3.88,1,2.59,1.37,3.78.69,1.93.84,2.21q.63,1.47,2.41,6.09t4.2,10.81q2.42,6.2,5.15,13t5.14,12.81q2.42,6,4.31,10.5c1.26,3,2.1,5,2.52,6a2.4,2.4,0,0,0,.21.94c.13.35.28.66.42.95a4.64,4.64,0,0,0,.63,1.26V220a7.91,7.91,0,0,1-.53,1.47c-.35.84-.6,1.39-.73,1.68a2.91,2.91,0,0,1-.53,1.26,2.69,2.69,0,0,0-.52,1.26,4.41,4.41,0,0,0-1.26,1.68c-.57,1-1,1.47-1.26,1.47a3.52,3.52,0,0,1-.42,1.26,3,3,0,0,0-.42,1.26c-.29.13-.53.63-.74,1.47a11.32,11.32,0,0,1-.52,1.68l-1-1.89-2.73.84v10.5l-1.89.84-1-.84a15.21,15.21,0,0,1-.63-4.1c-.15-2-.21-3.33-.21-3.88Z" fill="#f9f9f9"/><path d="M1448.93,192.67a9.42,9.42,0,0,0-3.75-1.35,1.73,1.73,0,0,0-.6-1.2l-.6-.6v-6.3a13.51,13.51,0,0,1,.6-2.7,13.51,13.51,0,0,0,.6-2.7,13.14,13.14,0,0,0,1.65-2.4,5.84,5.84,0,0,1,1.65-2.1,25.85,25.85,0,0,0,3.3-3.15q2.4-2.55,3.3-3.75a6.76,6.76,0,0,0,2.55-1.35,6.76,6.76,0,0,1,2.55-1.35q.3-.6,2.1-1.05a5.41,5.41,0,0,0,2.4-1h2.1q.6.6,1.65,1.8a3.45,3.45,0,0,1,1,1.8q.6.3,1.2,2.1a9.82,9.82,0,0,1,.6,2.4v3.6a31.2,31.2,0,0,1-1.5,3.3,31.2,31.2,0,0,0-1.5,3.3q-.3.3-1.35,1.5l-2.25,2.55q-1.2,1.35-2.1,2.55a18.15,18.15,0,0,1-1.2,1.5,11.64,11.64,0,0,1-.6,1.5l-.6,1.8a15,15,0,0,1-.3,1.8,29,29,0,0,0-.45,3.3c-.1,1.2-.25,2.34-.45,3.45a15,15,0,0,0-.3,2.25,28.74,28.74,0,0,0-.75,3.3c-.3,1.59-.55,3.3-.75,5.1s-.35,3.45-.45,4.95-.15,2.44-.15,2.85a17.22,17.22,0,0,1-.75,3.6,26.86,26.86,0,0,0-.75,3h-1.8l-1.2-1.2V194A11.07,11.07,0,0,1,1448.93,192.67Z" fill="#f9f9f9"/><path d="M1524.59,189.73c.14-.28,0-.53-.52-.74a4.25,4.25,0,0,1-1.37-.94l-2.52,21.63-1.47.84a2.67,2.67,0,0,1-.42-1.79c0-.91-.14-1.44-.42-1.57,0-.42,0-1.47.11-3.15s.13-3.47.21-5.36.17-3.67.31-5.35.21-2.73.21-3.15,0-1.19.11-2.31.13-2.24.21-3.36.1-2.17.1-3.15v-1.89a2.44,2.44,0,0,1-.42-.63,3.22,3.22,0,0,1-.42-1.26c-.28-.42-.81-1.26-1.57-2.52s-1.3-2.1-1.58-2.52-.66-1.09-1.15-2-1-1.85-1.58-2.83-1.09-1.86-1.57-2.63-.81-1.29-.95-1.57a15.48,15.48,0,0,1-2.2-2.21q-1.57-1.78-3.15-3.78c-1-1.33-2-2.62-2.94-3.88s-1.58-2.17-2-2.73a4.42,4.42,0,0,0-.31,1.47c-.08.7-.11,1.12-.11,1.26a6.37,6.37,0,0,0-.21,1.89,2.34,2.34,0,0,1-.21,1.05c0,.7,0,2.34.11,4.93s.13,5.36.21,8.3.13,5.7.21,8.29.1,4.24.1,4.94a1.66,1.66,0,0,0-.21,1.05,1.86,1.86,0,0,1-.21.84v1.89a7,7,0,0,0-1.57,1.78,7.56,7.56,0,0,1-1.58,1.79c-.28.28-.73.7-1.36,1.26s-1.37,1.15-2.21,1.78-1.65,1.26-2.41,1.89a19.68,19.68,0,0,0-1.58,1.37l-2.1.84a11.42,11.42,0,0,1-1.26-.11,10.87,10.87,0,0,0-1.26-.1,2.29,2.29,0,0,1-.73-.11,2.37,2.37,0,0,0-.74-.1.9.9,0,0,1-.63-.21l-.84-1.05v-3.57a17.33,17.33,0,0,0-.21-2.63,13.22,13.22,0,0,0-.42-2v-4.41c0-1,0-1.93.11-2.84s.1-1.5.1-1.78v-4.31c0-.91,0-1.75-.1-2.52a5.23,5.23,0,0,0-.32-1.57c0-.7,0-1.75-.1-3.15s-.11-2.84-.11-4.31v-6.19a35.9,35.9,0,0,0-.31-3.89c-.21-1.75-.39-3.53-.53-5.35s-.31-3.5-.52-5-.32-2.52-.32-2.94-.07-1.54-.21-2.94-.31-2.84-.52-4.31-.39-2.87-.53-4.2a15.27,15.27,0,0,0-.42-2.62,14,14,0,0,0-.31-2c-.21-1.05-.42-2.13-.63-3.25l-.63-3.36a15.34,15.34,0,0,1-.32-2.31,1,1,0,0,0,1-.63,2.12,2.12,0,0,0,.32-1c.06-.56.13-1.16.21-1.79s.1-1.22.1-1.78v-1c.28,0,.74-.42,1.37-1.26a5.68,5.68,0,0,1,1.36-1.47,25.77,25.77,0,0,0,2.73-2.31,8.66,8.66,0,0,0,1.68-.74,8.38,8.38,0,0,0,1.89-1.15.86.86,0,0,1,.63-.21,1.86,1.86,0,0,0,.84-.21,2.34,2.34,0,0,0,1.05-.21.86.86,0,0,0,.63.21,1.47,1.47,0,0,1,.63.1,1.45,1.45,0,0,0,.63.11h1.26a3.6,3.6,0,0,1,1,1q.63.84,1.05,1.47a3.68,3.68,0,0,0,.42,1c.28.56.6,1.15,1,1.78a12,12,0,0,1,.84,1.89,5.63,5.63,0,0,1,.31,1.16,13.08,13.08,0,0,0,1.68,2.73,6.14,6.14,0,0,1,1.26,2.1,17.45,17.45,0,0,0,1.47,2q1.26,1.57,2.84,3.36c1,1.19,2,2.38,2.94,3.57s1.57,2.14,2,2.84q1.26,1.26,4.2,4.83t6.2,7.66q3.26,4.1,6.19,7.77t4.2,5.15v-.63l.21-.42a19.64,19.64,0,0,0-.21-2.21c-.14-1-.28-2.13-.42-3.25s-.28-2.17-.42-3.15a18,18,0,0,1-.21-1.89q0-1.47-.42-6.72t-.84-11.45q-.42-6.19-.84-11.44t-.63-6.72a7.81,7.81,0,0,0-.21-1.89,4.65,4.65,0,0,1-.21-1.47l-1.68-.42A4.67,4.67,0,0,1,1521,99a1.35,1.35,0,0,1-1-1.89V94.6a.86.86,0,0,1,.21-.63c.14-.28.42-.81.84-1.58a7.37,7.37,0,0,1,1-1.57,1.72,1.72,0,0,1,.63-1,1.72,1.72,0,0,0,.63-1c.28-.42.74-1,1.37-1.89s1-1.19,1.15-1a8.27,8.27,0,0,1,2.52-2.31q1.89-1.26,2.94-1.89a13.73,13.73,0,0,1,1.47-.84,10.49,10.49,0,0,1,1.89-.84l1.26-.63a1.49,1.49,0,0,1,1.26-.21h.42a.92.92,0,0,1,.42.1,1.45,1.45,0,0,0,.63.11h1.89a3.42,3.42,0,0,1,1,1.26q.63,1.05.84,1.47a6.17,6.17,0,0,0,.21,1.47,17.39,17.39,0,0,1,.42,1.89c0,.28.11,1.15.32,2.62a10.58,10.58,0,0,1,.1,3.26c0,.56.11,2.06.32,4.51s.38,5.15.52,8.09.28,5.67.42,8.19.21,4.06.21,4.62.28,1.64.42,2.83.24,2.42.32,3.68.13,2.34.21,3.25.1,1.44.1,1.58c.28,2.1.66,5.25,1.16,9.45s1.08,9,1.78,14.28,1.43,10.88,2.21,16.69,1.5,11.34,2.2,16.59l1.89,14.18c.56,4.2,1,7.27,1.26,9.24l-.21,1.05a4.7,4.7,0,0,1-.21,1.47,5.3,5.3,0,0,1-1.15,1.89,15,15,0,0,0-1.37,1.89c-.14.13-.52.45-1.15.94s-1.3,1-2,1.58l-2,1.57a14.42,14.42,0,0,0-1.16.95,6.38,6.38,0,0,1-2.2.94,16.12,16.12,0,0,0-2.63,1,2.29,2.29,0,0,1-.73-.11,1.73,1.73,0,0,0-.53-.1l-1-.21a15.06,15.06,0,0,1-1.36-1.89,12.24,12.24,0,0,0-1.37-1.89,20.37,20.37,0,0,1-1.78-3.47c-.78-1.75-1.58-3.61-2.42-5.56s-1.65-3.82-2.41-5.57a37.77,37.77,0,0,0-1.79-3.67l-1.89-.21L1524,224l-1.47,2.94v-2.42c0-1.19,0-2.41.11-3.67s.1-2.49.1-3.68a9,9,0,0,0-.21-2.41c.14-1,.35-2.56.63-4.73s.56-4.45.84-6.82.56-4.66.84-6.83.49-3.67.63-4.51Z" fill="#f9f9f9"/><path d="M1584.44,191.41c-.42-.14-1.15-.46-2.2-.95a34.41,34.41,0,0,1-3.15-1.68c-1-.63-2.07-1.22-3-1.78a10.45,10.45,0,0,1-1.89-1.26c-.56-.28-1.3-.67-2.2-1.16s-1.37-.87-1.37-1.15c-.42-.42-1.15-1.12-2.2-2.1s-2.14-2-3.26-3.15S1563,176,1562,175.13a10.11,10.11,0,0,1-1.68-1.78,20.23,20.23,0,0,0-1.68-2.84q-1.68-2.62-2.52-4.09c-.28,0-.52-.25-.73-.74a3.63,3.63,0,0,0-.74-1.15c-.28-.7-.67-1.75-1.15-3.15a8.76,8.76,0,0,0-1.16-2.52,14.75,14.75,0,0,0-.42-2.52q-.42-1.89-.42-2.1V135.55l.42-2.1c.14-.7.24-1.37.32-2s.1-1.15.1-1.57c.28-.14.53-.63.74-1.47a9.88,9.88,0,0,1,.52-1.68l1.47-2.94q1.05-2.1,2.1-4.31t2-4.09a24.57,24.57,0,0,0,1.15-2.52,8.25,8.25,0,0,0,1.68-2,8.1,8.1,0,0,1,1.68-2l3.15-3.15,4.31-4.31,4-4a22.64,22.64,0,0,0,2.2-2.41,10.32,10.32,0,0,1,1.16-.84c.63-.42,1.32-.88,2.1-1.37s1.5-1,2.2-1.47,1.26-.87,1.68-1.15a21.68,21.68,0,0,0,3.36-1.47l3.36-1.68a16.86,16.86,0,0,1,3.26-1.26c1.74-.56,3-1,3.67-1.26a30.57,30.57,0,0,0,3.26-.42,29.89,29.89,0,0,1,3.25-.42h6.72a33.06,33.06,0,0,1,3.36.42,29.63,29.63,0,0,0,3.78.42,4.56,4.56,0,0,0,1.68.84q1.26.42,1.47.84a6.63,6.63,0,0,1,2.63.94l2.2,1.16c.42.28,1.19.87,2.31,1.78s1.82,1.51,2.1,1.79q.21,0,1.47,1.68t1.68,2.31a2.79,2.79,0,0,0,.53.73,2.81,2.81,0,0,1,.52.74,8.15,8.15,0,0,0,.42,1v4.83a8,8,0,0,1-.52,1.47,5.82,5.82,0,0,1-1,1.68,17.08,17.08,0,0,1-1.47,1.78l-2.2,2.42c-.78.84-1.51,1.64-2.21,2.41a10.44,10.44,0,0,1-1.68,1.58,8,8,0,0,0-1.78.42,7.84,7.84,0,0,1-2,.42h-1.89a9,9,0,0,1-2.1-1.68L1617,112a6,6,0,0,0-.52-1.68,6.94,6.94,0,0,1-.53-1.47,11.55,11.55,0,0,0-1.47-1.79c-.84-.91-1.4-1.5-1.68-1.78l-2.2-1c-1.2-.56-2-.91-2.42-1.05a7,7,0,0,0-1.78-1,6,6,0,0,0-1.79-.63h-8.82c0,.7,0,1.82-.1,3.36s-.18,3.15-.32,4.83-.31,3.29-.52,4.83-.39,2.59-.53,3.15a15.81,15.81,0,0,1-.52,2.73,13.81,13.81,0,0,0-.53,2.94l-1.89-2.31V101.53l-2.73,8.19-1.05-.84c-.14-.56-.31-1.37-.52-2.42a13.4,13.4,0,0,1-.32-2.41h-1.26a2.64,2.64,0,0,1-1,.63l-.84.42a1.61,1.61,0,0,1-.63.21,9.25,9.25,0,0,1-1.68,1.15,6.29,6.29,0,0,1-1.47.74L1578,109a15.25,15.25,0,0,0-1.79,2,9.64,9.64,0,0,0-1.89,2.2,6.82,6.82,0,0,0-1.26,2.21,9.51,9.51,0,0,0-1.26,2.2c-.56,1.19-1,2.07-1.26,2.63a4.36,4.36,0,0,0-.52,1.47,3.78,3.78,0,0,1-.74,1.68,17.69,17.69,0,0,1-.42,3.15,21,21,0,0,0-.42,2.52v11.34a11,11,0,0,0,.42,2,10.6,10.6,0,0,1,.42,2.63,4.63,4.63,0,0,1,.84,1.78,8.12,8.12,0,0,1,.42,1.79,5.35,5.35,0,0,1,1.26,2.1,20,20,0,0,0,1.26,2.52l.84,1.26a4.87,4.87,0,0,1,.74.94,1.89,1.89,0,0,1,.31,1,21,21,0,0,1,2.1,2.62c.84,1.19,1.4,1.79,1.68,1.79a13.69,13.69,0,0,0,2.1,2.62c1.12,1.19,1.82,1.93,2.1,2.21a14.48,14.48,0,0,1,2.52,1.47,8.18,8.18,0,0,1,2.1,1.68l1.68.84c.84.42,1.71.87,2.63,1.36s1.85,1,2.83,1.47a19.21,19.21,0,0,0,2.1.95,7.25,7.25,0,0,1,1.47.52,5.83,5.83,0,0,0,1.68.53c.42.14,1.08.31,2,.52s1.78.39,2.62.53,1.61.24,2.31.31,1.12.11,1.26.11a11,11,0,0,0,2.42-.53,6.18,6.18,0,0,0,2.2-.94q.42-.42,2.1-1.89a9.23,9.23,0,0,0,2.1-2.31,36.9,36.9,0,0,0,2.42-4.1,14.29,14.29,0,0,0,1.36-3V147.52q-1.68-.21-5.46-.42t-8.19-.32c-2.94-.07-5.71-.17-8.29-.31s-4.45-.28-5.57-.42c-.84,0-2.07-.07-3.67-.21s-3.26-.25-4.94-.32-3.22-.17-4.62-.31-2.31-.21-2.73-.21a9.62,9.62,0,0,0-1.68-.53c-.84-.21-1.33-.45-1.47-.73a3.29,3.29,0,0,1-.63-.84,3.68,3.68,0,0,1-.42-1.05v-1.47a6.67,6.67,0,0,1,.42-1.89,5.3,5.3,0,0,1,.63-1.26,6.39,6.39,0,0,1,1.37-1.89c.76-.84,1.57-1.68,2.41-2.52s1.64-1.61,2.42-2.31,1.29-1.19,1.57-1.47a7,7,0,0,0,1.79-.53,6.55,6.55,0,0,1,1.78-.52h6.93c2.24,0,5.07,0,8.51.1l10.92.21,11.55.21,10.6.21c3.22.07,5.91.14,8.09.21s3.46.11,3.88.11.87,0,1.79.1,1.89.18,2.94.32,2.06.24,3,.31,1.61.11,1.89.11l1.68,1.68v4a2.55,2.55,0,0,1-.63,1.26,12.28,12.28,0,0,1-1,1.26q-.21.42-1.05,1.89t-1,1.89a.86.86,0,0,0-.63.21,1.21,1.21,0,0,0-.42.84,18.77,18.77,0,0,1-2.52,1.89,11.39,11.39,0,0,1-2.1,1.26,30.89,30.89,0,0,1-3.36,1.26,30.89,30.89,0,0,0-3.36,1.26c-.28.14-.52.63-.73,1.47a3.78,3.78,0,0,1-.74,1.68v3.36a10.45,10.45,0,0,1,.53,2.1c.21,1.12.45,2.41.73,3.88s.53,2.91.74,4.31.38,2.52.52,3.36a21.15,21.15,0,0,1,.53,2.94,6.18,6.18,0,0,0,.73,2.73,8.7,8.7,0,0,0,.32,1.89c.21.84.45,1.71.73,2.62s.56,1.79.84,2.63l.63,1.89a9,9,0,0,0,.32,1.68c.21.84.42,1.71.63,2.62s.42,1.72.63,2.42a7.08,7.08,0,0,1,.31,1.26c0,.28,0,1,.11,2.2s.1,2,.1,2.42c0,.84,0,1.78-.1,2.83s-.11,1.71-.11,2a14.79,14.79,0,0,1-.84,1.47c-.28.42-.52.76-.73,1a1.36,1.36,0,0,0-.32.84c-.56.55-1.44,1.32-2.62,2.31s-1.93,1.6-2.21,1.89l-2.31,1.47a5.94,5.94,0,0,1-2.31,1.05H1633l-.84-1.05a10.32,10.32,0,0,1-1.15-3.26,39.07,39.07,0,0,0-1.16-3.88l-.42-1.68c-.14-.42-.31-.88-.52-1.37s-.39-.88-.53-1.15a18.25,18.25,0,0,0-.42-2.73c-.28-1.41-.63-2.94-1.05-4.62s-.81-3.29-1.15-4.83a17.52,17.52,0,0,1-.53-2.94,6,6,0,0,0-.52-1.68,5.51,5.51,0,0,1-.53-1.68q-.63.63-2.73,2.31t-2.94,2.31l-2.73,2.2a9.24,9.24,0,0,1-1.89,1.37,21.68,21.68,0,0,0-3.36,1.47l-3.36,1.68a23.22,23.22,0,0,1-3.36,1.47,13,13,0,0,1-3.78,1.05,7.4,7.4,0,0,1,.42,3.25,11.15,11.15,0,0,1-.42,3.68,20.93,20.93,0,0,1-.52,2.62,15.13,15.13,0,0,0-.53,3.05,2.66,2.66,0,0,0-.52-.74.89.89,0,0,1-.32-.52c-.28,0-.52-.63-.73-1.89a19.94,19.94,0,0,0-.53-2.52,16.48,16.48,0,0,0-.52-3.05,15.29,15.29,0,0,1-.53-3l-.42-.42a1.39,1.39,0,0,0-1-.42h-1c0,.69,0,1.95-.1,3.78s-.18,3.74-.32,5.77-.25,4-.31,5.78-.11,3.07-.11,3.78a13.17,13.17,0,0,0-.42,2.1c-.14,1-.25,2-.31,3s-.18,2.1-.32,3.15a19.64,19.64,0,0,0-.21,2.21,16,16,0,0,1-.52,2.73,13.61,13.61,0,0,0-.53,2.94.88.88,0,0,0-.73.42.94.94,0,0,1-.74.42,15.64,15.64,0,0,0-.52-2.73,14,14,0,0,1-.53-2.94V213c0-.15-.14-.88-.42-2.21a18.89,18.89,0,0,1-.42-2.41,16.11,16.11,0,0,1-.42-2.73q-.21-2.12-.42-4.41c-.14-1.55-.25-3-.31-4.41s-.11-2.39-.11-2.94Z" fill="#f9f9f9"/><line x1="1696.62" x2="1696.62" y2="267.82" fill="none" stroke="#e5ff00" stroke-miterlimit="10" stroke-width="12"/></g></g></svg>