<svg xmlns="http://www.w3.org/2000/svg" viewBox="0 0 1353.87 490.7"><g id="Layer_2" data-name="Layer 2"><g id="Layer_1-2" data-name="Layer 1"><path d="M117.45,148.8a28.23,28.23,0,0,0,.15-5.55q-.15-4-.15-4.95a9.82,9.82,0,0,0-2.4.6q-1.8.6-2.1,1.2a14.13,14.13,0,0,1-2.25.75q-1.65.45-3.6,1.05t-3.6,1.2a8.15,8.15,0,0,1-2.55.6,10,10,0,0,1-3.15,1.5,10,10,0,0,0-3.15,1.5,16,16,0,0,0-1.05,4.35q-.45,3.15-1,6.6t-1.2,6.6q-.6,3.15-.9,4.35v2.25q0,1.65-.15,3.6t-.3,3.6a7.15,7.15,0,0,1-.45,2.25,12.54,12.54,0,0,1-.6,2.1q-.6,1.8-1.2,2.1-.6.9-2,2.7a21.21,21.21,0,0,0-1.65,2.4q-.6.6-3.3,3a15.45,15.45,0,0,1-3.6,2.7q-.6.3-2.55,1.5a6.57,6.57,0,0,1-2.85,1.2q-1.2.3-2.1.6a24.84,24.84,0,0,1-2.7.6l-.9-.3h-.6a11,11,0,0,1-2.1-1.8l-1.2-1.2,3.9-45.6a4.07,4.07,0,0,1-2.25,0q-1.65-.3-3.45-.75t-3.3-.9q-1.5-.45-1.8-1.05a12.88,12.88,0,0,1-2.4-2.25q-1.8-1.95-2.4-2.55a3,3,0,0,0,.3-1.35V140.1a7,7,0,0,1,.15-1.35,7,7,0,0,0,.15-1.35,9,9,0,0,1,1.65-3,12.4,12.4,0,0,1,2.55-3,11.22,11.22,0,0,1,1.5-2,34.37,34.37,0,0,1,2.7-2.7q1.5-1.35,2.7-2.55l1.8-1.8A7.63,7.63,0,0,1,63.3,119q-.15-2.55-.75-3.15a21.5,21.5,0,0,0-.45-3.6q-.45-2.4-1.05-5.1t-1-4.95a20.34,20.34,0,0,1-.45-2.85q-.6-1.5-1.95-6.45t-2-6.45a10.49,10.49,0,0,0-.75-3q-.75-2.1-1.65-4.5t-1.8-4.65q-.9-2.25-1.2-3.15.3-1.2-.9-3.9a13.64,13.64,0,0,0-1.8-3.3,15.12,15.12,0,0,0-1.65-3.75Q44.25,57,43.65,55.5A9.83,9.83,0,0,1,42.15,53a9.83,9.83,0,0,0-1.5-2.55q-.6-.6-2.25-2.55a10.92,10.92,0,0,0-2.25-2.25,12.86,12.86,0,0,0-2.55-3.3q-2.25-2.4-2.85-2.4A7.87,7.87,0,0,1,29.4,39q-.75-.6-.45-1.2a10.09,10.09,0,0,1-1.5-2.4A26.68,26.68,0,0,0,26,32.7a12.61,12.61,0,0,0-.45-2.4,15.94,15.94,0,0,1-.45-2.1,22.06,22.06,0,0,0,.9-2.4,22.06,22.06,0,0,1,.9-2.4l1.8-2.7a17.88,17.88,0,0,1,1.8-2.4q1.2-.9,4.05-2.85t3.15-2.25A16,16,0,0,1,41,11.25q2.7-1.35,3.3-1.05h3.3q.6.3,1.65.9a3.69,3.69,0,0,0,1.65.6A16.59,16.59,0,0,0,53,14.25q1.8,2,3.75,4.2t3.6,4.05a11.46,11.46,0,0,0,2.25,2.1,16.92,16.92,0,0,0,3,1.95q2.4,1.35,3.3,1.95,1.2.6,4.65,2.1A26.22,26.22,0,0,1,78.15,33a10.49,10.49,0,0,1,3,.75A43.46,43.46,0,0,0,85.8,35.1q2.55.6,5,1.35a13.58,13.58,0,0,0,3.3.75q2.1.3,6.9,1.5a34,34,0,0,0,6.3,1.2l10.5,1.5,18,2.55q9.6,1.35,18.15,2.7t10.65,2a16.53,16.53,0,0,1,3,.45q2.1.45,4.35.9t4.5.75a28,28,0,0,0,3.15.3l2.4,1.2a9.21,9.21,0,0,0,3.6,1.2,7.94,7.94,0,0,1,2.85.9q1.95.9,2.55,1.2a17.84,17.84,0,0,0,2.85,2q2.25,1.35,2.25,1.95a6.14,6.14,0,0,1,1.65,1.65,6.14,6.14,0,0,0,1.65,1.65l.9,1.8.6,1.2a8.77,8.77,0,0,0-.3,3v3.9a21.22,21.22,0,0,0-.6,3.6q-.3,2.7-.3,3l-.6,1.8-.75,1.5-.75,1.5q-.6.9-2,3.3a9.36,9.36,0,0,1-2.25,3,21.76,21.76,0,0,1-2.25,2.85q-1.95,2.25-2.55,2.85-1.5,1.2-4.35,3.6t-5.85,5.1q-3,2.7-5.55,5t-3.15,2.85a8.79,8.79,0,0,0-2.1,1q-1.8,1-4.2,2.4t-4.65,2.7q-2.25,1.35-3.45,2.25l-2.7,1.35-2.7,1.35a23.32,23.32,0,0,1-4.35,2.4q-3.75,1.8-7.95,3.75l-8.1,3.75a39.14,39.14,0,0,1-5.1,2.1,1.3,1.3,0,0,1-.6,1.05q-.6.45-.6.75-.3,1.5-.75,4.5t-.75,6.3q-.3,3.3-.6,6.3t-.3,3.9q0,.9-.15,3.3t-.3,5q-.15,2.55-.3,4.8t-.15,3.15q-1.2,14.7-2.1,20.4t-1.2,5.25q-.3-.45-.45-5.7t0-12q.15-6.75.45-13.65t.6-10.8q0-.6.15-4.2T117.45,148.8ZM80.85,63.3q.3,2.1,1.35,7T84.6,81Q86,86.7,87,91.8T88.65,99q.3,1.2,1,4.5t1.5,7.35q.75,4.05,1.2,7.65a47.59,47.59,0,0,1,.45,5.1,2.66,2.66,0,0,0,1.2.3h1.5a1.33,1.33,0,0,1,.6.15,2.09,2.09,0,0,0,.9.15H98a15.09,15.09,0,0,0,2.25-.6,11.57,11.57,0,0,1,2.55-.6q1.5-.6,4.2-1.5t5.4-1.65q2.7-.75,4.65-1.35a15.09,15.09,0,0,1,2.25-.6q1.2-.3,4-1.35t6.15-2.4q3.3-1.35,6.15-2.4T140,110.1q.3-.6,3.75-2.1a16.1,16.1,0,0,0,4.65-2.7q.9-.3,2.55-1t3.3-1.65l3-1.65a9.55,9.55,0,0,0,1.65-1,5.4,5.4,0,0,0,1.65-.9q1.35-.9,3-2a35.83,35.83,0,0,0,3.15-2.25,10.24,10.24,0,0,0,2.1-2.1q.6-.3,1.35-.75a7,7,0,0,0,1.35-1,16.08,16.08,0,0,1,1.65-2.25,5.15,5.15,0,0,0,1.35-2.25l.6-1.5a.27.27,0,0,1-.3-.3V83.1a9.83,9.83,0,0,1-1.2-1.5,8.36,8.36,0,0,1-1.2-2.1,9.9,9.9,0,0,0-1.65-.6,3.73,3.73,0,0,1-1.65-.9,5.78,5.78,0,0,1-2.7-1.2,7.57,7.57,0,0,0-1.8-.9q-1.8-.3-5.4-1.2a27.85,27.85,0,0,1-4.8-1.5q-5.1-.9-8.4-1.35L139.2,71q-3.45-.45-5.55-.75h-2.1a21.84,21.84,0,0,1-.3,2.55q-.3,1.95-.6,4.2a35.83,35.83,0,0,1-.9,4.5q-.6,2.25-.9,3.15a19,19,0,0,0-.45,2.85,15.31,15.31,0,0,1-.75,3.45,29.85,29.85,0,0,0-.9,4.5,5,5,0,0,0-1.5,1.65q-.9,1.35-1.5,1.35l2.7-28.8-2.7-.3q-.3.9-.9,3.9a11,11,0,0,1-1.5,4.2q0,.3-1,.6a6.44,6.44,0,0,1-1.65.3l.9-9.3q-7.5-1.2-14.4-2.4-6-1.2-12.45-2.4T82.05,62.1h-1.2Z" fill="#f9f9f9"/><path d="M221.25,147.6a16.54,16.54,0,0,1-.6,3.3,15.82,15.82,0,0,0-.6,3.3A1.25,1.25,0,0,0,219,155c-.3.5-.56.75-.75.75,0,.8-.11,2.25-.3,4.35s-.35,4.35-.45,6.75-.26,4.75-.45,7-.3,3.85-.3,4.65a17,17,0,0,0-1.05,4.8,17.38,17.38,0,0,1-1,4.8,11.67,11.67,0,0,1-.9,3.3,11.67,11.67,0,0,0-.9,3.3V150.3a8.09,8.09,0,0,1-2.55-.6l-3.3-1.2a21.71,21.71,0,0,0-3.15-.9q-1.51-.3-1.8,0a16.59,16.59,0,0,1-1.5,2.4,38.19,38.19,0,0,0-2.1,4.2,36.32,36.32,0,0,0-1.65,4.35,12.73,12.73,0,0,1-1.65,3.75q0,.3-.15,1.5t-.45,2.55q-.3,1.35-.45,2.55a13.84,13.84,0,0,0-.15,1.5,3.33,3.33,0,0,1-.75,1.65,3.24,3.24,0,0,0-.75,1.65,23,23,0,0,0-2.4,2,40.41,40.41,0,0,0-3,3c-1,1.1-2,2.1-3,3a6.28,6.28,0,0,1-1.8,1.35l-6,3.6h-2.1a3.21,3.21,0,0,1-1.65-.75,12.62,12.62,0,0,1-1.65-1.35,3.25,3.25,0,0,1-.6-.9,4.44,4.44,0,0,1-.6-1.8v-3.3a20.06,20.06,0,0,1,.6-3.6q.6-2.7.6-3,.6-1.2,1.8-4.35c.79-2.1,1.6-4.3,2.4-6.6s1.54-4.45,2.25-6.45a20.2,20.2,0,0,1,1.65-3.9v-3a34.36,34.36,0,0,1-3.9-.45,15.44,15.44,0,0,1-4.2-1.05,4.61,4.61,0,0,0-.6-1.8,4.44,4.44,0,0,1-.6-1.8v-1.8a22.32,22.32,0,0,1,.6-2.7c.19-.8.4-1.5.6-2.1l11.4-11.4a9.22,9.22,0,0,0,1.5-.3c.79-.2,1.65-.45,2.55-.75s1.75-.6,2.55-.9a5.06,5.06,0,0,0,1.5-.75,14,14,0,0,1,1.5-3.6c1-2,1.69-3.5,2.1-4.5a47.48,47.48,0,0,1,1.65-6q1.35-4.2,3-9c1.09-3.2,2.05-6.15,2.85-8.85s1.39-4.65,1.8-5.85a5.64,5.64,0,0,0,.75-1.8q.45-1.5.9-3.3t.9-3.45a14.13,14.13,0,0,1,.75-2.25q.28-1.2.9-3.45c.4-1.5.79-3,1.2-4.35s.75-2.65,1-3.75a13,13,0,0,0,.45-1.95c0-.2,0-2.05.15-5.55s.19-7.3.3-11.4.15-7.9.15-11.4V25.5a8.73,8.73,0,0,0,1.35-3.15,24.64,24.64,0,0,1,1.05-3.15,16.48,16.48,0,0,1,1.5-3c1-1.8,1.69-3,2.1-3.6a5.91,5.91,0,0,1,1.35-2.4,7.93,7.93,0,0,1,2-2.1,2,2,0,0,1,.45-1.2,7.88,7.88,0,0,0,.75-1.2A41.86,41.86,0,0,1,225,3.3a21,21,0,0,0,3.15-2.1A9.3,9.3,0,0,1,230,.6a9.87,9.87,0,0,1,3-.6h3.3l1.2,1.2v15c-.2,2.2-.41,3.95-.6,5.25s-.35,2.55-.45,3.75-.15,1.9-.15,2.1v6.3c0,.4,0,2,.15,4.95s.19,6.1.3,9.6.25,6.75.45,9.75.3,4.7.3,5.1a26.35,26.35,0,0,0,.75,4.2,32.66,32.66,0,0,1,.75,3.9q.6,1.5,1.8,5.7t1.8,6a41.34,41.34,0,0,0,1.5,5c.79,2.3,1.65,4.75,2.55,7.35l2.55,7.35c.79,2.3,1.3,3.85,1.5,4.65.19.6.7,1.9,1.5,3.9a41.47,41.47,0,0,1,1.5,4.2,21.09,21.09,0,0,0,2.1,3.75,8.32,8.32,0,0,1,1.5,2.85,10,10,0,0,1,3,1.35,9.74,9.74,0,0,0,3,1.35,7,7,0,0,0,1.35,1c.49.3.75.55.75.75a23.75,23.75,0,0,0-.6,6.6,23.75,23.75,0,0,0,.6,6.6q1.8,3.9,3,6.6t2.7,5.4q1.5,2.7,2.4,4.2c.19.4.85,2.25,1.95,5.55s2.29,6.9,3.6,10.8,2.5,7.55,3.6,10.95a35.82,35.82,0,0,0,1.95,5.4,10.15,10.15,0,0,0,1.8,3.6,15.76,15.76,0,0,0,1.5,2.4V201a11.35,11.35,0,0,0-1.65,3.15c-.71,1.7-1.25,2.95-1.65,3.75l-1.35,1.35-2.4,2.4-2.55,2.55-1.8,1.8a4.51,4.51,0,0,0-1.8.6,4.61,4.61,0,0,1-1.8.6h-8.1a16,16,0,0,1-3-1.95q-2.7-2-3.6-2.55a8.57,8.57,0,0,0-.75-2.4,8.23,8.23,0,0,1-.75-2.4v-5.4l-1.2-2.4a6.41,6.41,0,0,1-.9-1.95,3.73,3.73,0,0,0-.9-1.65,65.39,65.39,0,0,1-5.1-11.4q-3-8.1-6.3-16.5-3.6-9.9-7.8-21Zm-4.5-39.3c-.41,1-1.1,2.75-2.1,5.25a18.92,18.92,0,0,0-1.5,4.65A15.91,15.91,0,0,1,213,120a13.84,13.84,0,0,0-.15,1.8h1.8a12,12,0,0,1,4.2-1c2.2-.3,3.49-.65,3.9-1v-1.5a21,21,0,0,0-1.35-4.65,18.71,18.71,0,0,1-1.35-5.25c-.41,0-.75-.45-1.05-1.35s-.56-1.35-.75-1.35Z" fill="#f9f9f9"/><path d="M319.34,182.7q-.9-.3-3.15-1.35a49.15,49.15,0,0,1-4.5-2.4q-2.25-1.35-4.35-2.55a14.93,14.93,0,0,1-2.7-1.8q-1.2-.6-3.15-1.65t-1.95-1.65q-.9-.9-3.15-3t-4.65-4.5q-2.4-2.4-4.5-4.35a14.37,14.37,0,0,1-2.4-2.55,29.1,29.1,0,0,0-2.4-4.05q-2.4-3.75-3.6-5.85-.6,0-1-1.05a5.21,5.21,0,0,0-1.05-1.65q-.6-1.5-1.65-4.5a12.17,12.17,0,0,0-1.65-3.6,21.06,21.06,0,0,0-.6-3.6q-.6-2.7-.6-3V102.9l.6-3q.3-1.5.45-2.85a21,21,0,0,0,.15-2.25q.6-.3,1.05-2.1a13.93,13.93,0,0,1,.75-2.4l2.1-4.2q1.5-3,3-6.15t2.85-5.85a35.74,35.74,0,0,0,1.65-3.6,11.68,11.68,0,0,0,2.4-2.85,11.68,11.68,0,0,1,2.4-2.85l4.5-4.5,6.15-6.15,5.7-5.7A30.92,30.92,0,0,0,309.14,45a14.38,14.38,0,0,1,1.65-1.2q1.35-.9,3-1.95t3.15-2.1q1.5-1.05,2.4-1.65a31,31,0,0,0,4.8-2.1l4.8-2.4a24.36,24.36,0,0,1,4.65-1.8q3.75-1.2,5.25-1.8a43.18,43.18,0,0,0,4.65-.6,43.18,43.18,0,0,1,4.65-.6h9.6a47.23,47.23,0,0,1,4.8.6,42.33,42.33,0,0,0,5.4.6,6.51,6.51,0,0,0,2.4,1.2q1.8.6,2.1,1.2a9.42,9.42,0,0,1,3.75,1.35l3.15,1.65q.9.6,3.3,2.55t3,2.55q.3,0,2.1,2.4t2.4,3.3a4,4,0,0,0,.75,1,4,4,0,0,1,.75,1,11.64,11.64,0,0,0,.6,1.5v6.9a10.64,10.64,0,0,1-.75,2.1,8,8,0,0,1-1.35,2.4,24.3,24.3,0,0,1-2.1,2.55l-3.15,3.45-3.15,3.45a14.79,14.79,0,0,1-2.4,2.25,11.57,11.57,0,0,0-2.55.6,11,11,0,0,1-2.85.6h-2.7a12.87,12.87,0,0,1-3-2.4l-2.4-2.4a8.23,8.23,0,0,0-.75-2.4,10.64,10.64,0,0,1-.75-2.1,16.59,16.59,0,0,0-2.1-2.55q-1.8-1.95-2.4-2.55l-3.15-1.5q-2.55-1.2-3.45-1.5a9.83,9.83,0,0,0-2.55-1.5,8.44,8.44,0,0,0-2.55-.9h-12.6q0,1.5-.15,4.8t-.45,6.9q-.3,3.6-.75,6.9t-.75,4.5a21.46,21.46,0,0,1-.75,3.9,20.56,20.56,0,0,0-.75,4.2l-2.7-3.3V54.3L325.34,66l-1.5-1.2q-.3-1.2-.75-3.45a19.05,19.05,0,0,1-.45-3.45h-1.8a3.77,3.77,0,0,1-1.5.9l-1.2.6a2.3,2.3,0,0,1-.9.3,13.14,13.14,0,0,1-2.4,1.65,8.79,8.79,0,0,1-2.1,1L310.19,65a22.79,22.79,0,0,0-2.55,2.85,13.87,13.87,0,0,0-2.7,3.15q-1.8,2.55-1.8,3.15a13.69,13.69,0,0,0-1.8,3.15q-1.2,2.55-1.8,3.75a6.16,6.16,0,0,0-.75,2.1,5.41,5.41,0,0,1-1.05,2.4,25.27,25.27,0,0,1-.6,4.5,29.94,29.94,0,0,0-.6,3.6v16.2a15.67,15.67,0,0,0,.6,2.85,15.09,15.09,0,0,1,.6,3.75,6.66,6.66,0,0,1,1.2,2.55,11.57,11.57,0,0,1,.6,2.55q.6.3,1.8,3a28.58,28.58,0,0,0,1.8,3.6l1.2,1.8a7,7,0,0,1,1.05,1.35,2.69,2.69,0,0,1,.45,1.35,30.13,30.13,0,0,1,3,3.75q1.8,2.55,2.4,2.55a19.53,19.53,0,0,0,3,3.75q2.4,2.55,3,3.15a20.68,20.68,0,0,1,3.6,2.1,11.68,11.68,0,0,1,3,2.4l2.4,1.2q1.8.9,3.75,1.95t4.05,2.1a27,27,0,0,0,3,1.35,10.64,10.64,0,0,1,2.1.75,8.23,8.23,0,0,0,2.4.75q.9.3,2.85.75t3.75.75q1.8.3,3.3.45t1.8.15a15.33,15.33,0,0,0,3.45-.75,8.73,8.73,0,0,0,3.15-1.35q.6-.6,3-2.7a13.18,13.18,0,0,0,3-3.3,50.49,50.49,0,0,0,3.45-5.85,19.8,19.8,0,0,0,1.95-4.35V120q-2.4-.3-7.8-.6t-11.7-.45q-6.3-.15-11.85-.45t-7.95-.6q-1.8,0-5.25-.3t-7.05-.45q-3.6-.15-6.6-.45t-3.9-.3a13.93,13.93,0,0,0-2.4-.75q-1.8-.45-2.1-1.05a4.7,4.7,0,0,1-.9-1.2,5.26,5.26,0,0,1-.6-1.5v-2.1a9.52,9.52,0,0,1,.6-2.7,7.57,7.57,0,0,1,.9-1.8,9.34,9.34,0,0,1,1.95-2.7q1.65-1.8,3.45-3.6t3.45-3.3q1.65-1.5,2.25-2.1a9.64,9.64,0,0,0,2.55-.75,9.64,9.64,0,0,1,2.55-.75h9.9q4.8,0,12.15.15l15.6.3,16.5.3,15.15.3q6.9.15,11.55.3t5.55.15q.6,0,2.55.15t4.2.45q2.25.3,4.35.45t2.7.15l2.4,2.4v5.7a3.64,3.64,0,0,1-.9,1.8,17.54,17.54,0,0,1-1.5,1.8q-.3.6-1.5,2.7t-1.5,2.7a1.22,1.22,0,0,0-.9.3,1.73,1.73,0,0,0-.6,1.2,26.81,26.81,0,0,1-3.6,2.7,16.28,16.28,0,0,1-3,1.8,44.13,44.13,0,0,1-4.8,1.8,44.13,44.13,0,0,0-4.8,1.8q-.6.3-1,2.1a5.41,5.41,0,0,1-1.05,2.4v4.8a15.11,15.11,0,0,1,.75,3q.45,2.4,1.05,5.55t1,6.15q.45,3,.75,4.8a30.63,30.63,0,0,1,.75,4.2q.45,3.3,1.05,3.9a12.31,12.31,0,0,0,.45,2.7q.45,1.8,1.05,3.75t1.2,3.75l.9,2.7a12.61,12.61,0,0,0,.45,2.4q.45,1.8.9,3.75t.9,3.45a10.46,10.46,0,0,1,.45,1.8q0,.6.15,3.15t.15,3.45q0,1.8-.15,4t-.15,2.85a19.61,19.61,0,0,1-1.2,2.1q-.6.9-1.05,1.5a2,2,0,0,0-.45,1.2q-1.2,1.2-3.75,3.3t-3.15,2.7q-.9.6-3.3,2.1a8.27,8.27,0,0,1-3.3,1.5h-5.1l-1.2-1.5q-.6-.6-1.65-4.65a54,54,0,0,0-1.65-5.55l-.6-2.4q-.3-.9-.75-1.95T382,192.9a26.34,26.34,0,0,0-.6-3.9q-.6-3-1.5-6.6t-1.65-6.9a26.35,26.35,0,0,1-.75-4.2,8.23,8.23,0,0,0-.75-2.4,8.23,8.23,0,0,1-.75-2.4q-.9.9-3.9,3.3t-4.2,3.3l-3.9,3.15a13,13,0,0,1-2.7,1.95,31,31,0,0,0-4.8,2.1l-4.8,2.4a33.18,33.18,0,0,1-4.8,2.1,18.53,18.53,0,0,1-5.4,1.5q.6.9.6,4.65a15.82,15.82,0,0,1-.6,5.25,27.39,27.39,0,0,1-.75,3.75,22.66,22.66,0,0,0-.75,4.35,4,4,0,0,0-.75-1.05,1.23,1.23,0,0,1-.45-.75q-.6,0-1-2.7a28.9,28.9,0,0,0-.75-3.6,22.66,22.66,0,0,0-.75-4.35,22.66,22.66,0,0,1-.75-4.35l-.6-.6a2,2,0,0,0-1.5-.6h-1.5q0,1.5-.15,5.4t-.45,8.25q-.3,4.35-.45,8.25t-.15,5.4a19.18,19.18,0,0,0-.6,3q-.3,2.1-.45,4.35t-.45,4.5a28,28,0,0,0-.3,3.15,21.46,21.46,0,0,1-.75,3.9,20.56,20.56,0,0,0-.75,4.2,1.3,1.3,0,0,0-1.05.6,1.3,1.3,0,0,1-1.05.6,21.46,21.46,0,0,0-.75-3.9,20.56,20.56,0,0,1-.75-4.2V213.6q0-.3-.6-3.15a26.58,26.58,0,0,1-.6-3.45,22.74,22.74,0,0,1-.6-3.9q-.3-3-.6-6.3t-.45-6.3q-.15-3-.15-4.2Z" fill="#f9f9f9"/><path d="M455.54,175.2a4.7,4.7,0,0,1-1.2.9,9.81,9.81,0,0,0-1,.6,1.85,1.85,0,0,1-1.05.3q-.9.6-2.1,1.5-2.4,1.8-2.7,2.1a27.49,27.49,0,0,0-3.6,1.5l-2.4,1.2a3.68,3.68,0,0,0-1.35.3,3.19,3.19,0,0,1-2.7,0,3.68,3.68,0,0,0-1.35-.3l-.6-.6-.6-.6V177q.3-2.4.6-3.75a25.34,25.34,0,0,0,.45-2.7q.15-1.35.15-1.65a54.07,54.07,0,0,0,1.2-5.7q.6-3.6.6-4.2V112.2q0-.3-.6-.75a11.26,11.26,0,0,1-1.2-1h-1.2a4,4,0,0,1-1.65.6,25.34,25.34,0,0,1-2.7.45,30.44,30.44,0,0,0-3.75.75h-8.1a3.49,3.49,0,0,1-.9-.6,1.73,1.73,0,0,1-.6-1.2l-.6-.6a2.37,2.37,0,0,1-.3-1.5,3.34,3.34,0,0,1,.3-1.5l.6-1.2a4.94,4.94,0,0,1,.3-1.5,12.76,12.76,0,0,1,1.2-1.8q.3-.6,1.5-2.4t1.5-2.4q0-.6,1.5-1.65a17.06,17.06,0,0,0,2.1-1.65q.6,0,3-2.1t3-2.7a2,2,0,0,0,1.5-.6,3.49,3.49,0,0,0,.6-.9v-3a27.29,27.29,0,0,1-.75-5.1q-.45-4.5-1-9.9t-1.05-10.05a39.48,39.48,0,0,0-.75-5.55l-3-6q-.6-.9-1.8-2.85t-1.8-2a19.53,19.53,0,0,0-3-3.75q-2.4-2.55-3-3.15a7.69,7.69,0,0,1-2.7-1.35q-2.1-1.35-2.7-1.65l-1.2-1.5V25.5a11.07,11.07,0,0,1,1.35-3.15q1.35-2.55,1.65-3.15a18.23,18.23,0,0,1,3.15-3.75l3.15-3.15a23.5,23.5,0,0,0,3.75-1.5l3.15-1.5h4.5a10.64,10.64,0,0,1,2.1.75q1.8.75,3.75,1.65t3.6,1.5a8.26,8.26,0,0,0,2.25.6,46.09,46.09,0,0,0,4.5,2.25A15.41,15.41,0,0,0,451,17.4q1.5.6,4.35,1.5t6,2q3.15,1,5.7,1.95t3.15,1.2a18,18,0,0,1,3,.6q2.4.6,5.55,1.5t6.3,1.65a22.82,22.82,0,0,0,5,.75,24.47,24.47,0,0,1,3.6.75,20.51,20.51,0,0,0,4.5.75,14.8,14.8,0,0,0,2.1.75q1.5.45,3,.75t2.85.45q1.35.15,1.65.15,2.1,0,6.9.45t10.2,1.05q5.4.6,10.2,1t6.9.75l.6.6.6.6v6.9l-1.2,2.7q-.6.9-1.8,2.4l-2.4,3-2.4,3q-1.2,1.5-1.5,1.8l-3.3,63.9-2.7,1.5V59.7l-1.2.6a.86.86,0,0,1-.6.3.27.27,0,0,0-.3.3q-.3.3-.6,4.35t-.45,8.7q-.15,4.65-.75,12.15,0,.6-1.2,1.2l-1.2.6V59.7a34.47,34.47,0,0,0-4.35-.6q-3.15-.3-6.6-.45T504,58.2q-3.15-.3-4.35-.3a21,21,0,0,1-2.85-.3q-1.95-.3-4.05-.45t-3.9-.45a18.41,18.41,0,0,0-2.4-.3q-.9-.3-4.5-1t-7.65-1.65q-4.05-.9-7.65-1.5a39.36,39.36,0,0,0-4.5-.6h-1.2a18.41,18.41,0,0,1-.3,2.4q-.3,1.8.3,2.4,0,.3.15,4.35t.3,8.85q.15,4.8.75,12.9,1.8.3,6.3.6l9.45.6q5,.3,9.3.6t6.15.6a20.64,20.64,0,0,1,3.15.6,20.64,20.64,0,0,0,3.15.6,6.14,6.14,0,0,0,1.65,1.65q1.35,1.05,1.35,1.65v4.8a3.69,3.69,0,0,1-.6,1.65,3.69,3.69,0,0,0-.6,1.65,29.35,29.35,0,0,1-1.8,3,17.54,17.54,0,0,1-1.5,1.8,12.87,12.87,0,0,1-2.4,3l-2.4,2.4q-1.2.6-3.75,1.65a13,13,0,0,1-3.15,1.05,1.22,1.22,0,0,1-.9.3,4.18,4.18,0,0,1-1.8.3,8.81,8.81,0,0,1-2.1-.3,8.21,8.21,0,0,0-1.8-.3,37.48,37.48,0,0,1-3.9-.6,32.42,32.42,0,0,0-4.2-.6h-8.1v41.7q.9,0,5.1-.6t5.1-.6q1.2,0,4.65-.3t7.35-.45q3.9-.15,7.35-.45t4.95-.3q-.6-.9-2.1-3.9a11.68,11.68,0,0,1-1.5-4.2,33.57,33.57,0,0,0-.6-3.75,27.9,27.9,0,0,1-.6-4.35v-2.1a9.82,9.82,0,0,1,.6-2.4,12.54,12.54,0,0,0,.6-2.1,12.54,12.54,0,0,1,.6-2.1,3.77,3.77,0,0,1,.9-1.5,8.87,8.87,0,0,1,1.8-2q1.5-1.35,3-2.85t3-2.85a23,23,0,0,1,2.4-2q.6-.3,1.65-.75a5.21,5.21,0,0,0,1.65-1h6.3a11.64,11.64,0,0,0,.6,1.5,4.72,4.72,0,0,0,1.2,1.8,26.58,26.58,0,0,0,.6,3.45q.6,2.85.6,3.15.6,1.2,2.55,4.8t2.55,4.8a15.53,15.53,0,0,0,2.1,3.3q1.8,2.4,2.4,3.3a8.87,8.87,0,0,0,1.8,1.95q1.5,1.35,3,2.85t3,2.85a23,23,0,0,0,2.4,1.95q.6.6,3.9,3.15t4.2,3.45a17.88,17.88,0,0,0,2.4,1.8,6.86,6.86,0,0,1,2.1,1.8q.9.3,3.75,1.65t6.15,2.85q3.3,1.5,6.15,3t3.75,2.1a11.22,11.22,0,0,1,2,1.5q1.35,1.2,1.35,1.5v6.3a4.85,4.85,0,0,1-.75,2q-.75,1.35-1.05,1.35a23,23,0,0,1-1.95,2.4q-1.35,1.5-2.85,3t-2.85,3a8.87,8.87,0,0,1-1.95,1.8,4,4,0,0,0-1.8.75,4,4,0,0,1-1.8.75h-8.1a8.74,8.74,0,0,1-2.1-.45l-3.45-1.05q-2-.6-3.6-1.2a7.13,7.13,0,0,1-2-.9L533.69,185q-4.05-1-8.25-1.95t-7.35-1.65a27.39,27.39,0,0,0-3.75-.75,4.94,4.94,0,0,1-1.5-.3,12.54,12.54,0,0,0-2.1-.6,6.43,6.43,0,0,0-1.5.45,6.43,6.43,0,0,1-1.5.45,25.67,25.67,0,0,1-.3,2.7q-.3,2.1-.45,4.35t-.45,4.35a25.67,25.67,0,0,0-.3,2.7,26.35,26.35,0,0,1-.75,4.2q-.75,3.3-1.35,3.9a4,4,0,0,1-.75,1.8,4,4,0,0,0-.75,1.8q0-.6-.15-2.25T502,200.7q-.3-1.8-.45-3.45t-.15-2.55a11.57,11.57,0,0,1-.6-2.85q-.3-2.25-.6-4.95t-.45-5.1q-.15-2.4-.15-3.3l-1.5-1.5a2.69,2.69,0,0,0-1.35.45,2.69,2.69,0,0,1-1.35.45v47.7l-2.1,8.1q-.6-.3-1.2-2.1a9.82,9.82,0,0,1-.6-2.4,21,21,0,0,0-.3-2.85q-.3-1.95-.45-4.2t-.45-4.5a28,28,0,0,1-.3-3.15q-.3-2.1-.6-7.65T489,195q-.15-6.3-.45-11.85t-.6-8Z" fill="#f9f9f9"/><path d="M661,188.7h-3.6a55.83,55.83,0,0,1-.6,5.85,23.56,23.56,0,0,1-1.2,5.55c0,1-.06,2.1-.15,3.3s-.26,2.3-.45,3.3q-.31,1.8-.6,3.6h-2.7V188.7a3.88,3.88,0,0,0-.9-.6,5.5,5.5,0,0,0-1.5-.6,12.48,12.48,0,0,1-2.4-.45c-1.2-.3-2.51-.65-3.9-1.05s-2.7-.8-3.9-1.2a21.24,21.24,0,0,1-2.4-.9,20.37,20.37,0,0,1-3.75-1.05,11.37,11.37,0,0,1-4.35-2.25,5.26,5.26,0,0,1-2.4-.6,3.17,3.17,0,0,1-1.2-.6q-.62-.6-1.65-1.8a28.58,28.58,0,0,0-2.4-2.4L618.44,173a6.21,6.21,0,0,1-1.5-1.65,9.32,9.32,0,0,1-.6-1.5q-.32-.6-.6-1.05a7.27,7.27,0,0,1-.6-1.05l-.6-2.4c-.21-.6-.4-1.3-.6-2.1v-9.6a33.57,33.57,0,0,1,.6-3.75,29.22,29.22,0,0,0,.6-4.35q.58-2.1,1.65-7.05a46.21,46.21,0,0,1,1.65-6.45q.28-.9,1.35-4t2.1-7q1-3.9,2.1-7.2a20.3,20.3,0,0,0,1-4.2,65.24,65.24,0,0,0,1.8-6.45q1.18-5,1.8-7a25.18,25.18,0,0,1,.75-4.2,32.66,32.66,0,0,0,.75-3.9V71.7a5.26,5.26,0,0,0-.3-1.5q-.32-.9-.6-1.8l-.6-2.4a8.5,8.5,0,0,0-3.45-1.2q-2.87-.6-3.15-1.2a1.69,1.69,0,0,1-1.2-.6.83.83,0,0,1-.3-.6,21.36,21.36,0,0,1-.6-2.1,5.4,5.4,0,0,1-.3-1.8V56a2.85,2.85,0,0,1,.3-1.35l.6-1.8a10.1,10.1,0,0,1,1.05-3.3,22.11,22.11,0,0,1,1.65-3.3l6.9-6.9a19.89,19.89,0,0,1,2.1-1.5,27.62,27.62,0,0,1,2.4-1.5,8.32,8.32,0,0,0,2.4-.75,8.14,8.14,0,0,1,2.4-.75h1.8a11.31,11.31,0,0,0,3.15,1.65,12,12,0,0,1,3.15,1.65,1.77,1.77,0,0,1,1.2.6l.6.6q.58,1.2,1.8,3.75a13,13,0,0,0,1.8,3.15,13.1,13.1,0,0,0,.75,3.3,14.1,14.1,0,0,1,.75,3.3V78.6a26,26,0,0,1-.75,3.6,19.92,19.92,0,0,0-.75,4.5,28.77,28.77,0,0,0-.75,3c-.3,1.4-.66,2.75-1.05,4s-.75,2.55-1,3.75a6.4,6.4,0,0,1-.75,2.1,28.33,28.33,0,0,1-1.2,5c-.81,2.7-1.65,5.65-2.55,8.85s-1.8,6.15-2.7,8.85-1.46,4.35-1.65,5q-.32,1.5-1,4.5a23.08,23.08,0,0,0-.75,3.6V150q.59.6,2.55,2.55a22.08,22.08,0,0,0,2.85,2.55,14.84,14.84,0,0,0,2.4,1.5,11.69,11.69,0,0,0,2,1.05,4.46,4.46,0,0,0,1.65.45,8.32,8.32,0,0,1,2.4.75,8.14,8.14,0,0,0,2.4.75,14.35,14.35,0,0,0,3.75,1.05,6.94,6.94,0,0,1,3.15,1,19.6,19.6,0,0,1,2,.3c1.09.2,2.25.35,3.45.45s2.34.25,3.45.45a15,15,0,0,0,2.25.3,36.17,36.17,0,0,1,3.75.3c1.69.2,3.45.35,5.25.45s3.34.2,4.65.3,2.14.15,2.55.15,1.74.1,4,.3,3.94.3,5,.3h1.65a6.18,6.18,0,0,0,2-.3,10,10,0,0,0,2.4-.3l1.2-4.8V135.3c0-.4-.06-1.3-.15-2.7s-.26-2.9-.45-4.5-.36-3.15-.45-4.65-.15-2.55-.15-3.15a6.87,6.87,0,0,1-.75-2.4q-.45-2.1-.9-4.8t-.9-5.1c-.3-1.6-.56-2.9-.75-3.9q-.31-.9-1-3.75t-1.35-5.85q-.61-3-1.35-5.7t-1-3.6l-2.25-7.65c-1.11-3.7-2.25-7.6-3.45-11.7s-2.36-8-3.45-11.7-1.86-6.35-2.25-7.95V38.1a4.65,4.65,0,0,1,.3-1.5,11.88,11.88,0,0,1,1.2-1.8,24.39,24.39,0,0,1,1.5-2.4q1.18-1.8,1.5-2.4.58-.6,1.8-1.65t1.8-1.65a5.81,5.81,0,0,0,2.4-1.5,9.86,9.86,0,0,0,2.1-2.1,4.71,4.71,0,0,0,1.8-.6,4.51,4.51,0,0,1,1.8-.6H706q.59,0,1.8,1.5a24.12,24.12,0,0,0,1.8,2.1,26.18,26.18,0,0,0,1.5,3.6,31.42,31.42,0,0,1,1.05,3.15c.3,1.1.54,2,.75,2.55.39,1.6,1.35,5,2.85,10.2S719,56.25,721,63.15s4.14,14.2,6.45,21.9,4.44,15,6.45,21.9,3.75,13,5.25,18.15,2.44,8.6,2.85,10.2l.9,2.85q.59,1.95,1.35,4.2t1.5,4.5a12.4,12.4,0,0,1,.75,3.15c.19.6.6,1.65,1.2,3.15s1.24,3.1,2,4.8,1.39,3.35,2.1,5a22.11,22.11,0,0,0,1.65,3.3,10.21,10.21,0,0,0,1.5,3.15,18.53,18.53,0,0,0,2.1,3.15v6.9a4,4,0,0,1-.9,1.5,6.18,6.18,0,0,0-.9,1q-.32.45-.6.45-.32.6-1.5,2.55t-1.5,2.55q0,.3-1.35,1.5t-1.35,1.5a6.39,6.39,0,0,0-2.55,1.5c-1.31,1-2.25,1.7-2.85,2.1a3.91,3.91,0,0,0-1.8.75,4.08,4.08,0,0,1-1.8.75h-4.5q-.62,0-3.15-2.25t-3.15-2.85q-.61-.3-2.7-1.5t-2.7-1.5a5.26,5.26,0,0,0-.3-1.5q-.32-.6-.6-1.05a7.27,7.27,0,0,1-.6-1v-1.5l.6-2.4a6.24,6.24,0,0,1,.9-2.1,3.22,3.22,0,0,0,.3-1.8,1.27,1.27,0,0,0-.3-.9l-.3-.3a1.77,1.77,0,0,0-1.2-.6c0,.2-.36.6-1,1.2s-1.41,1.25-2.1,1.95-1.41,1.35-2.1,2-1.16,1-1.35,1.2q-.61.6-2.7,2.55t-3.3,2.85a3.91,3.91,0,0,0-1.8.75,4.08,4.08,0,0,1-1.8.75,6.26,6.26,0,0,1-2.1.75,12.75,12.75,0,0,1-2.4.45,28,28,0,0,1-4.5,1.2,30.61,30.61,0,0,1-3.6.6H667q0,2.7-.45,9.3t-.9,14.25q-.45,7.65-.9,14.4t-.45,9.45a18.63,18.63,0,0,0-.6,3.45q-.32,2.55-.45,5.25t-.45,5.25a33.07,33.07,0,0,0-.3,3.45l-1.5-1.2Z" fill="#f9f9f9"/><path d="M818.83,180.3q.3-.6-.75-1.05a6.23,6.23,0,0,1-2-1.35l-3.6,30.9-2.1,1.2a3.77,3.77,0,0,1-.6-2.55q0-1.95-.6-2.25,0-.9.15-4.5t.3-7.65q.15-4.05.45-7.65t.3-4.5q0-.9.15-3.3l.3-4.8q.15-2.4.15-4.5v-2.7a3.49,3.49,0,0,1-.6-.9,4.61,4.61,0,0,1-.6-1.8q-.6-.9-2.25-3.6t-2.25-3.6q-.6-.9-1.65-2.85t-2.25-4q-1.2-2.1-2.25-3.75t-1.35-2.25a21.84,21.84,0,0,1-3.15-3.15q-2.25-2.55-4.5-5.4T786,128.7q-2-2.7-2.85-3.9a6.66,6.66,0,0,0-.45,2.1q-.15,1.5-.15,1.8a9.1,9.1,0,0,0-.3,2.7,3.34,3.34,0,0,1-.3,1.5q0,1.5.15,7t.3,11.85q.15,6.3.3,11.85t.15,7a2.37,2.37,0,0,0-.3,1.5,2.66,2.66,0,0,1-.3,1.2v2.7a10.42,10.42,0,0,0-2.25,2.55,10.42,10.42,0,0,1-2.25,2.55q-.6.6-2,1.8t-3.15,2.55q-1.8,1.35-3.45,2.7t-2.25,1.95l-3,1.2a15.91,15.91,0,0,1-1.8-.15,15.91,15.91,0,0,0-1.8-.15,3.32,3.32,0,0,1-1.05-.15,3.32,3.32,0,0,0-1-.15,1.22,1.22,0,0,1-.9-.3l-1.2-1.5v-5.1a24.67,24.67,0,0,0-.3-3.75,19,19,0,0,0-.6-2.85V171q0-2.1.15-4.05t.15-2.55v-6.15q0-2-.15-3.6a7.15,7.15,0,0,0-.45-2.25q0-1.5-.15-4.5t-.15-6.15V132.9a51.64,51.64,0,0,0-.45-5.55q-.45-3.75-.75-7.65t-.75-7.2q-.45-3.3-.45-4.2,0-1.2-.3-4.2T751.18,98q-.45-3.15-.75-6a22,22,0,0,0-.6-3.75,20.34,20.34,0,0,0-.45-2.85q-.45-2.25-.9-4.65l-.9-4.8a21.61,21.61,0,0,1-.45-3.3,1.39,1.39,0,0,0,1.5-.9,2.9,2.9,0,0,0,.45-1.5q.15-1.2.3-2.55a23.14,23.14,0,0,0,.15-2.55V63.6q.6,0,2-1.8a8.1,8.1,0,0,1,1.95-2.1,36.81,36.81,0,0,0,3.9-3.3,12.08,12.08,0,0,0,2.4-1,11.91,11.91,0,0,0,2.7-1.65,1.22,1.22,0,0,1,.9-.3,2.66,2.66,0,0,0,1.2-.3,3.34,3.34,0,0,0,1.5-.3,1.22,1.22,0,0,0,.9.3,2.09,2.09,0,0,1,.9.15,2.09,2.09,0,0,0,.9.15h1.8a5.15,5.15,0,0,1,1.5,1.5q.9,1.2,1.5,2.1a5.26,5.26,0,0,0,.6,1.5q.6,1.2,1.35,2.55a16,16,0,0,1,1.2,2.7,8.27,8.27,0,0,1,.45,1.65,18.68,18.68,0,0,0,2.4,3.9q1.8,2.4,1.8,3a24.73,24.73,0,0,0,2.1,2.85q1.8,2.25,4.05,4.8t4.2,5.1a47.18,47.18,0,0,1,2.85,4q1.8,1.8,6,6.9t8.85,11q4.65,5.85,8.85,11.1t6,7.35v-.9l.3-.6a28,28,0,0,0-.3-3.15q-.3-2.25-.6-4.65t-.6-4.5a25.67,25.67,0,0,1-.3-2.7q0-2.1-.6-9.6T820.93,83q-.6-8.85-1.2-16.35t-.9-9.6a11.15,11.15,0,0,0-.3-2.7,6.65,6.65,0,0,1-.3-2.1l-2.4-.6a6.67,6.67,0,0,1-2.1-.9,1.93,1.93,0,0,1-1.5-2.7V44.4a1.22,1.22,0,0,1,.3-.9q.3-.6,1.2-2.25a10.62,10.62,0,0,1,1.5-2.25,2.46,2.46,0,0,1,.9-1.5A2.46,2.46,0,0,0,817,36q.6-.9,2-2.7t1.65-1.5a11.82,11.82,0,0,1,3.6-3.3q2.7-1.8,4.2-2.7a19.61,19.61,0,0,1,2.1-1.2,15,15,0,0,1,2.7-1.2l1.8-.9a2.13,2.13,0,0,1,1.8-.3h.6a1.33,1.33,0,0,1,.6.15,2.09,2.09,0,0,0,.9.15h2.7a4.89,4.89,0,0,1,1.5,1.8q.9,1.5,1.2,2.1a8.81,8.81,0,0,0,.3,2.1,24.84,24.84,0,0,1,.6,2.7q0,.6.45,3.75a15.13,15.13,0,0,1,.15,4.65q0,1.2.45,6.45T847,57.6q.3,6.3.6,11.7t.3,6.6q.3,1.5.6,4T849,85.2q.15,2.7.3,4.65t.15,2.25q.6,4.5,1.65,13.5t2.55,20.4q1.5,11.4,3.15,23.85t3.15,23.7l2.7,20.25q1.2,9,1.8,13.2l-.3,1.5a6.65,6.65,0,0,1-.3,2.1q0,.6-1.65,2.7a23.36,23.36,0,0,0-1.95,2.7q-.3.3-1.65,1.35t-2.85,2.25q-1.5,1.2-2.85,2.25t-1.65,1.35a8.73,8.73,0,0,1-3.15,1.35,24.48,24.48,0,0,0-3.75,1.35,3.32,3.32,0,0,1-1.05-.15,2.47,2.47,0,0,0-.75-.15l-1.5-.3a19.3,19.3,0,0,1-1.95-2.7,19.3,19.3,0,0,0-2-2.7,29.31,29.31,0,0,1-2.55-5q-1.65-3.75-3.45-7.95t-3.45-7.95a53,53,0,0,0-2.55-5.25l-2.7-.3-4.5,35.7-2.1,4.2V230q0-2.55.15-5.25t.15-5.25a12.89,12.89,0,0,0-.3-3.45q.3-2.1.9-6.75t1.2-9.75q.6-5.1,1.2-9.75t.9-6.45Z" fill="#f9f9f9"/><path d="M927.13,220.8a13.61,13.61,0,0,0,.6-3.3q.3-2.7.45-5.85t.45-6.15a33.83,33.83,0,0,1,.6-4.2q0-.3.3-2.55T930,194q.15-2.55.45-4.65a25.67,25.67,0,0,0,.3-2.7v-8.1a19,19,0,0,0-3.15.45q-2.25.45-4.8,1.05t-4.95,1.05a21.61,21.61,0,0,1-3.3.45,30.12,30.12,0,0,1-5.4,1.05q-3.6.45-4.2.45-1.5.3-4.8.6t-7.2.45q-3.9.15-7.35.45t-5,.6h-11.7a8.54,8.54,0,0,0-1.5-1.8,8.54,8.54,0,0,1-1.5-1.8v-1.8a13.93,13.93,0,0,0,.75-2.4,12.61,12.61,0,0,0,.45-2.4q.6-.6,2.55-3a16.88,16.88,0,0,1,2.85-3q.3-.3,1.2-1.35t1.95-2.1q1.05-1,2.85-3.15a8.81,8.81,0,0,1,.3-2.1,18,18,0,0,0,.6-3,24.49,24.49,0,0,0-.45-3.45,26.93,26.93,0,0,1-.45-3.15q0-.6-.45-3.6a21.47,21.47,0,0,0-1.05-4.5,9.82,9.82,0,0,0-.6-2.4q-.6-1.8-1.2-2.1a15.06,15.06,0,0,0-1.35-4.5,28.73,28.73,0,0,1-1.35-3.6,17.47,17.47,0,0,1-1.35-5.4q-.45-3.6-1-4.2,0-.3-.6-4.2t-1.5-9.45q-.9-5.55-1.95-12.15T864,82.2q-1.05-5.7-2-9.6a35,35,0,0,0-1.2-4.5,8.47,8.47,0,0,1-1.35-3q-.75-2.4-1.35-5.1t-1.2-5.1c-.39-1.6-.6-2.5-.6-2.7-.6-.2-1.89-1.4-3.9-3.6s-3.39-3.7-4.2-4.5a4.26,4.26,0,0,1-1.35-.6q-1-.6-2.25-1.35a20.08,20.08,0,0,1-2.1-1.5q-.9-.75-.9-1V31.5a10.35,10.35,0,0,0,.6-1.5,11.52,11.52,0,0,0,.6-2.1,9.44,9.44,0,0,0,1.95-1.65c.9-.9,1.86-1.9,2.85-3a28,28,0,0,1,3-2.85,26.3,26.3,0,0,0,2.1-1.8,5.21,5.21,0,0,1,1.8-1.05,5.81,5.81,0,0,1,1.8-.45h1.5a7,7,0,0,0,1.35-.15,7,7,0,0,1,1.35-.15q.3,0,1.8.15t2.1.15a8.27,8.27,0,0,1,1.65.45q1.35.45,3,.9t3.15.9a10.46,10.46,0,0,0,1.8.45,5.76,5.76,0,0,0,2,.75,34.94,34.94,0,0,0,3.45.75l3.45.6a15.35,15.35,0,0,0,2.25.3q1.8,0,8.55.45t14.25.9q7.5.45,14.25,1.05t8.55.6a18.74,18.74,0,0,1,1.95.3,35.13,35.13,0,0,0,3.75.45q2.1.15,4.05.45a21,21,0,0,0,2.85.3,47.23,47.23,0,0,1,4.8.6,42.33,42.33,0,0,0,5.4.6,18.6,18.6,0,0,0,4.2,1.2,12.75,12.75,0,0,1,3.9,1.2,12.87,12.87,0,0,1,3.3.6,13.51,13.51,0,0,0,2.7.6,11.22,11.22,0,0,1,2.7.75q2.1.75,2.7,1a13.3,13.3,0,0,1,3.9,1.35,12.58,12.58,0,0,0,4.2,1.35q0,.6,1.5,1.2a6.44,6.44,0,0,1,2.1,1.2,21.17,21.17,0,0,0,2.1,1.5q1.8,1.2,2.4,1.5a23,23,0,0,1,2.4,2q1.5,1.35,3,2.85t2.7,2.85q1.2,1.35,1.2,2,.3.6,1.65,5.7t3,11.1q1.65,6,2.85,11.25t1.2,5.55q-.6,8.1-1.2,14.7-.6,5.7-.9,10.65t-.3,5.55a6.11,6.11,0,0,1-.45,2.1,25,25,0,0,1-1,2.4l-1.2,3a11.57,11.57,0,0,1-.6,2.55,11,11,0,0,0-.6,2.85,21.1,21.1,0,0,0-2.1,3,9.35,9.35,0,0,0-1.5,3l-2.4,3.6q-1.8,2.7-2.1,3a25.82,25.82,0,0,0-2.7,2.25q-1.8,1.65-3.6,3.45l-3.45,3.45a8,8,0,0,0-2,2.55q-.6,0-2.85,1.8a23.6,23.6,0,0,1-4,2.7,6.86,6.86,0,0,1-2.1,1.8,17.88,17.88,0,0,0-2.4,1.8,35.63,35.63,0,0,0-4.5,2.4q-3,1.8-3.6,2.1t-2,1a31.38,31.38,0,0,1-3.15,1.5q-1.8.75-3.3,1.5a9.16,9.16,0,0,0-1.8,1.05l-1.5,1.2a43.68,43.68,0,0,1-.6,5.1,47.23,47.23,0,0,0-.6,4.8,5.64,5.64,0,0,0-1.05,2.55,14,14,0,0,1-.75,2.55l-1.5-1.5a5.41,5.41,0,0,1-.75-1.8,26.9,26.9,0,0,1-.75-3.3q-.3-1.8-.45-3.15t-.15-1.95h-2.7a3.8,3.8,0,0,0-2.25.75q-1.05.75-1,1.35v6q-.3,1.5-1.05,7.35t-1.35,12.9q-.6,7-1.35,13.8t-1.05,10q-.3,1.2-.6,3l-.6,3.6q-.3,2.1-.6,4.5h-1.5l-.6-3.6q-.3-1.5-.75-3t-.75-2.7v-8.1ZM893.23,51q.3.3.75,5.25t1.2,12.3q.75,7.35,1.65,15.9t1.5,15.9q.6,7.35,1,12.45t.75,5.4a9.82,9.82,0,0,0,.6,2.4,9.82,9.82,0,0,1,.6,2.4,21.35,21.35,0,0,1,1,3.9,23.48,23.48,0,0,1,.45,3q.3,1.5.75,5.55t.75,8.7q.3,4.65.45,8.85t.15,5.7h4.5a24.35,24.35,0,0,0,3-.3q2.1-.3,4.35-.45t4.5-.45a28,28,0,0,1,3.15-.3,29.94,29.94,0,0,0,3.6-.6,27.43,27.43,0,0,0,4.5-1.2,16.54,16.54,0,0,0,3.3-.6,18,18,0,0,1,3-.6q1.2-.3,3.45-1t4.65-1.5q2.4-.75,4.2-1.5t2.4-1.05a6.17,6.17,0,0,0,2.25-.9q1.65-.9,3.6-2.1a37.16,37.16,0,0,1,3.9-2.1,22.59,22.59,0,0,0,2.85-1.5q1.2-.6,3.15-1.65t2-1.65a16.93,16.93,0,0,0,3.75-3.6q2.25-2.7,2.85-2.7v-4.5a5,5,0,0,1-.3-2.4,32.92,32.92,0,0,1,.3-4.35,30.94,30.94,0,0,0,.3-4.05q0-1.8-.3-1.8,0-.3-.6-3.75t-1.5-8.7q-.9-5.25-1.8-11.1t-1.8-11.1q-.9-5.25-1.65-8.7t-.75-3.75a4.39,4.39,0,0,1-1.5-.9,22.53,22.53,0,0,1-2.4-2.1,22.53,22.53,0,0,0-2.4-2.1,4.39,4.39,0,0,0-1.5-.9q0-.3-.3,4.65T961,79.8q-.3,7.5-.75,16.35t-.75,16.35q-.3,7.5-.9,17.7-.3-.3-.75-5.7T957,111q-.45-8.1-.9-17.4t-.9-17.4q-.45-8.1-.9-13.35t-.75-5.25a13.93,13.93,0,0,0-2.4-.75,5.41,5.41,0,0,1-2.4-1.05,16.86,16.86,0,0,1-3.9-.6,18,18,0,0,0-3-.6h-4.5q-.6,0-1.05,1a12.09,12.09,0,0,1-1,2q0,.3-.15,4.95t-.3,11.55q-.15,6.9-.3,14.85t-.3,14.85q-.15,6.9-.3,11.55t-.15,5l-1.2,2.7-2.7-1.2v-66l-1.5-1.5a7,7,0,0,0-1.35-1,7,7,0,0,1-1.35-1,12.54,12.54,0,0,1-2.1-.6,9.82,9.82,0,0,0-2.4-.6,28,28,0,0,1-3.15-.3q-2.25-.3-4.8-.45t-4.95-.45a31.94,31.94,0,0,0-3.3-.3q-.9,0-2.55-.15t-3.6-.15h-5.85Z" fill="#f9f9f9"/><path d="M1042.33,175.2a4.7,4.7,0,0,1-1.2.9,9.81,9.81,0,0,0-1.05.6,1.85,1.85,0,0,1-1,.3q-.9.6-2.1,1.5-2.4,1.8-2.7,2.1a27.49,27.49,0,0,0-3.6,1.5l-2.4,1.2a3.68,3.68,0,0,0-1.35.3,3.19,3.19,0,0,1-2.7,0,3.68,3.68,0,0,0-1.35-.3l-.6-.6-.6-.6V177q.3-2.4.6-3.75a25.34,25.34,0,0,0,.45-2.7q.15-1.35.15-1.65a54.07,54.07,0,0,0,1.2-5.7q.6-3.6.6-4.2V112.2q0-.3-.6-.75a11.26,11.26,0,0,1-1.2-1h-1.2a4,4,0,0,1-1.65.6,25.34,25.34,0,0,1-2.7.45,30.44,30.44,0,0,0-3.75.75h-8.1a3.49,3.49,0,0,1-.9-.6,1.73,1.73,0,0,1-.6-1.2l-.6-.6a2.37,2.37,0,0,1-.3-1.5,3.34,3.34,0,0,1,.3-1.5l.6-1.2a4.94,4.94,0,0,1,.3-1.5,12.76,12.76,0,0,1,1.2-1.8q.3-.6,1.5-2.4t1.5-2.4q0-.6,1.5-1.65a17.06,17.06,0,0,0,2.1-1.65q.6,0,3-2.1t3-2.7a2,2,0,0,0,1.5-.6,3.49,3.49,0,0,0,.6-.9v-3a27.29,27.29,0,0,1-.75-5.1q-.45-4.5-1-9.9t-1.05-10.05a39.48,39.48,0,0,0-.75-5.55l-3-6q-.6-.9-1.8-2.85t-1.8-2a19.53,19.53,0,0,0-3-3.75q-2.4-2.55-3-3.15a7.69,7.69,0,0,1-2.7-1.35q-2.1-1.35-2.7-1.65l-1.2-1.5V25.5a11.07,11.07,0,0,1,1.35-3.15q1.35-2.55,1.65-3.15a18.23,18.23,0,0,1,3.15-3.75l3.15-3.15a23.5,23.5,0,0,0,3.75-1.5l3.15-1.5h4.5a10.64,10.64,0,0,1,2.1.75q1.8.75,3.75,1.65t3.6,1.5a8.26,8.26,0,0,0,2.25.6,46.09,46.09,0,0,0,4.5,2.25,15.41,15.41,0,0,0,3.6,1.35q1.5.6,4.35,1.5t6,2q3.15,1,5.7,1.95T1057,24a18,18,0,0,1,3,.6q2.4.6,5.55,1.5t6.3,1.65a22.82,22.82,0,0,0,4.95.75,24.47,24.47,0,0,1,3.6.75,20.51,20.51,0,0,0,4.5.75,14.8,14.8,0,0,0,2.1.75q1.5.45,3,.75t2.85.45q1.35.15,1.65.15,2.1,0,6.9.45t10.2,1.05q5.4.6,10.2,1t6.9.75l.6.6.6.6v6.9l-1.2,2.7q-.6.9-1.8,2.4l-2.4,3-2.4,3q-1.2,1.5-1.5,1.8l-3.3,63.9-2.7,1.5V59.7l-1.2.6a.86.86,0,0,1-.6.3.27.27,0,0,0-.3.3q-.3.3-.6,4.35t-.45,8.7q-.15,4.65-.75,12.15,0,.6-1.2,1.2l-1.2.6V59.7a34.47,34.47,0,0,0-4.35-.6q-3.15-.3-6.6-.45t-6.6-.45q-3.15-.3-4.35-.3a21,21,0,0,1-2.85-.3q-1.95-.3-4-.45t-3.9-.45a18.41,18.41,0,0,0-2.4-.3q-.9-.3-4.5-1t-7.65-1.65q-4-.9-7.65-1.5a39.36,39.36,0,0,0-4.5-.6h-1.2a18.41,18.41,0,0,1-.3,2.4q-.3,1.8.3,2.4,0,.3.15,4.35t.3,8.85q.15,4.8.75,12.9,1.8.3,6.3.6l9.45.6q5,.3,9.3.6t6.15.6a20.64,20.64,0,0,1,3.15.6,20.64,20.64,0,0,0,3.15.6,6.14,6.14,0,0,0,1.65,1.65q1.35,1.05,1.35,1.65v4.8a3.69,3.69,0,0,1-.6,1.65,3.69,3.69,0,0,0-.6,1.65,29.35,29.35,0,0,1-1.8,3,17.54,17.54,0,0,1-1.5,1.8,12.87,12.87,0,0,1-2.4,3l-2.4,2.4q-1.2.6-3.75,1.65a13,13,0,0,1-3.15,1.05,1.22,1.22,0,0,1-.9.3,4.18,4.18,0,0,1-1.8.3,8.81,8.81,0,0,1-2.1-.3,8.21,8.21,0,0,0-1.8-.3,37.48,37.48,0,0,1-3.9-.6,32.42,32.42,0,0,0-4.2-.6h-8.1v41.7q.9,0,5.1-.6t5.1-.6q1.2,0,4.65-.3t7.35-.45q3.9-.15,7.35-.45t5-.3q-.6-.9-2.1-3.9a11.68,11.68,0,0,1-1.5-4.2,33.57,33.57,0,0,0-.6-3.75,27.9,27.9,0,0,1-.6-4.35v-2.1a9.82,9.82,0,0,1,.6-2.4,12.54,12.54,0,0,0,.6-2.1,12.54,12.54,0,0,1,.6-2.1,3.77,3.77,0,0,1,.9-1.5,8.87,8.87,0,0,1,1.8-2q1.5-1.35,3-2.85t3-2.85a23,23,0,0,1,2.4-2q.6-.3,1.65-.75a5.21,5.21,0,0,0,1.65-1h6.3a11.64,11.64,0,0,0,.6,1.5,4.72,4.72,0,0,0,1.2,1.8,26.58,26.58,0,0,0,.6,3.45q.6,2.85.6,3.15.6,1.2,2.55,4.8t2.55,4.8a15.53,15.53,0,0,0,2.1,3.3q1.8,2.4,2.4,3.3a8.87,8.87,0,0,0,1.8,1.95q1.5,1.35,3,2.85t3,2.85a23,23,0,0,0,2.4,1.95q.6.6,3.9,3.15t4.2,3.45a17.88,17.88,0,0,0,2.4,1.8,6.86,6.86,0,0,1,2.1,1.8q.9.3,3.75,1.65t6.15,2.85q3.3,1.5,6.15,3t3.75,2.1a11.22,11.22,0,0,1,2,1.5q1.35,1.2,1.35,1.5v6.3a4.85,4.85,0,0,1-.75,2q-.75,1.35-1.05,1.35a23,23,0,0,1-1.95,2.4q-1.35,1.5-2.85,3t-2.85,3a8.87,8.87,0,0,1-2,1.8,4,4,0,0,0-1.8.75,4,4,0,0,1-1.8.75H1138a8.74,8.74,0,0,1-2.1-.45l-3.45-1.05q-1.95-.6-3.6-1.2a7.13,7.13,0,0,1-2-.9l-6.45-1.65q-4.05-1-8.25-1.95t-7.35-1.65a27.39,27.39,0,0,0-3.75-.75,4.94,4.94,0,0,1-1.5-.3,12.54,12.54,0,0,0-2.1-.6,6.43,6.43,0,0,0-1.5.45,6.43,6.43,0,0,1-1.5.45,25.67,25.67,0,0,1-.3,2.7q-.3,2.1-.45,4.35t-.45,4.35a25.67,25.67,0,0,0-.3,2.7,26.35,26.35,0,0,1-.75,4.2q-.75,3.3-1.35,3.9a4,4,0,0,1-.75,1.8,4,4,0,0,0-.75,1.8q0-.6-.15-2.25t-.45-3.45q-.3-1.8-.45-3.45t-.15-2.55a11.57,11.57,0,0,1-.6-2.85q-.3-2.25-.6-4.95t-.45-5.1q-.15-2.4-.15-3.3l-1.5-1.5a2.69,2.69,0,0,0-1.35.45,2.69,2.69,0,0,1-1.35.45v47.7l-2.1,8.1q-.6-.3-1.2-2.1a9.82,9.82,0,0,1-.6-2.4,21,21,0,0,0-.3-2.85q-.3-1.95-.45-4.2t-.45-4.5a28,28,0,0,1-.3-3.15q-.3-2.1-.6-7.65t-.45-11.85q-.15-6.3-.45-11.85t-.6-8Z" fill="#f9f9f9"/><path d="M1184.23,190.2q-.3,0-3.6.45a40.91,40.91,0,0,1-4.5.45,15.94,15.94,0,0,0-1.5-2.1,6,6,0,0,1-1.2-1.8l2.7-18.9a18,18,0,0,0-3.45-1.5q-2.55-.9-3.15-1.2a9.25,9.25,0,0,1-2.85-2.85,11.75,11.75,0,0,1-1.65-2.55v-3.6c.19-.8.45-1.7.75-2.7a10.46,10.46,0,0,0,.45-1.8,8.81,8.81,0,0,1,.3-2.1,7.24,7.24,0,0,1,1.2-3c.19-.2.9-1.15,2.1-2.85a11.45,11.45,0,0,1,2.4-2.85q.6-.9,1.5-2.1.6-.9,1-1.65a6.61,6.61,0,0,1,1-1.35v-3.9a9.18,9.18,0,0,1,.6-2.7l.6-1.8a20.39,20.39,0,0,0-.75-3.3q-.75-2.7-1.35-4.5.6-.9-.45-5.4t-1.35-6.6c0-.4,0-1.2.15-2.4s0-1.9-.15-2.1a18.28,18.28,0,0,1-1.2-3.45c-.41-1.5-.8-2.9-1.2-4.2a27.79,27.79,0,0,1-.9-3.6,18.74,18.74,0,0,1-.3-2c-.41-1-1.1-2.65-2.1-5s-2-4.75-3-7.35-2-5-2.85-7.2a29.34,29.34,0,0,1-1.65-4.8c0-.6-.56-1.7-1.65-3.3s-1.85-2.4-2.25-2.4a18.59,18.59,0,0,0-2.4-1.8c-1.2-.8-2.51-1.65-3.9-2.55s-2.7-1.75-3.9-2.55a8.56,8.56,0,0,0-2.1-1.2q-.3,0-1.8-2.4a42,42,0,0,0-2.7-3.9,3.69,3.69,0,0,0-.6-1.65,3.69,3.69,0,0,1-.6-1.65V41.1a3.32,3.32,0,0,1,.15-1.05,3.32,3.32,0,0,0,.15-1,6.43,6.43,0,0,1,.45-1.5,6.43,6.43,0,0,0,.45-1.5,3.49,3.49,0,0,0,.6-.9,1.62,1.62,0,0,1,.6-.75q.3-.15.3-.75.3-.3,1.65-2.1a5.91,5.91,0,0,0,1.35-2.4,31.68,31.68,0,0,1,3.15-2.4,34.49,34.49,0,0,0,3.15-2.4,6.86,6.86,0,0,1,2.7-1.2,13.23,13.23,0,0,1,2.7-.6l1.8-.6q.6-.3,1.35-.6a3.6,3.6,0,0,1,1.35-.3h1.5q.9.6,3.6,2.1t3,2.4a13.71,13.71,0,0,1,2.25,1.8l3.6,3.3q1.95,1.8,3.6,3.45t2.25,2.25c.79.4,2,.9,3.45,1.5a10.25,10.25,0,0,0,3.45.9q3.6.6,13.35,1.65t20.7,2.4l20.55,2.55q9.6,1.2,13.2,1.5c.79.6,2.85,1.2,6.15,1.8a45.53,45.53,0,0,0,7.05.9,8.61,8.61,0,0,0,4.5,2.1,21.83,21.83,0,0,1,3.6.9c.4.2,1.24.6,2.55,1.2s2.65,1.25,4,1.95,2.8,1.35,4.2,2,2.4,1,3,1.2a4,4,0,0,1,1.8.75,3.91,3.91,0,0,0,1.8.75c.79,1,1.6,2,2.4,3s1.39,1.5,1.8,1.5a19.87,19.87,0,0,0,1.65,2.4,5.91,5.91,0,0,1,1.35,2.4q0,.6-.15,2.7c-.11,1.4-.15,2.5-.15,3.3a4.65,4.65,0,0,0-.9,3.3V81a4.93,4.93,0,0,1-.75,1.5q-.75,1.2-1.65,2.7t-2,3a18.11,18.11,0,0,1-1.65,2.1,24.12,24.12,0,0,0-1.8,2.1q-1.2,1.5-1.8,2.1L1285,99l-3.6,3.6c-1.2,1-3.41,2.75-6.6,5.25s-6.6,5.2-10.2,8.1-7,5.65-10.2,8.25-5.4,4.4-6.6,5.4a1.27,1.27,0,0,1,1.05.75,6.61,6.61,0,0,0,1,1.35,21.65,21.65,0,0,1,2.1,1.35,32.82,32.82,0,0,1,3,2.4q1.5,1.35,2.85,2.4a4.06,4.06,0,0,0,1.95,1.05,25.14,25.14,0,0,0,3.3,2.55c1.6,1.1,3.19,2.25,4.8,3.45s3.15,2.3,4.65,3.3a22.29,22.29,0,0,1,3.15,2.4,6.87,6.87,0,0,0,1.8,1.8,7.66,7.66,0,0,1,2.1,2.4,18.25,18.25,0,0,1,3.15,2.25l3.9,3.3c1.3,1.1,2.44,2.15,3.45,3.15a11,11,0,0,1,1.8,2.1,3.38,3.38,0,0,0,1,1.8l2.25,2.55,2.25,2.55q1.05,1.2,1,1.5a15.94,15.94,0,0,1,1.8,3.6,4.94,4.94,0,0,0-.3,1.5v5.4a8.93,8.93,0,0,0-2.1,2.55,24.1,24.1,0,0,1-2.1,2.85,19.45,19.45,0,0,1-3.6,3.15,20.49,20.49,0,0,1-3.9,2.55,10,10,0,0,1-3,1.5c-1.61.6-2.6,1-3,1.2h-2.7a6.79,6.79,0,0,1-1.35-.15,7,7,0,0,0-1.35-.15,34.44,34.44,0,0,1-2.7-3.3q-1.8-2.4-3.75-4.8c-1.31-1.6-2.55-3.2-3.75-4.8a34.44,34.44,0,0,0-2.7-3.3c-.41,0-1.35-.65-2.85-2s-2.85-2.45-4-3.45q0-.6-1.5-1.8c-1-.8-1.5-1.4-1.5-1.8a44.22,44.22,0,0,1-4.05-2.85c-1.7-1.3-3.41-2.55-5.1-3.75l-4.5-3.15a23.22,23.22,0,0,1-2.25-1.65q-.62-.3-2.7-1.65l-4.65-3q-2.55-1.65-4.8-2.85t-3.15-1.8a3.84,3.84,0,0,0-1.5-.9,3.77,3.77,0,0,1-1.5-.9l-1.8-.9a3.65,3.65,0,0,0-1.65.6,7.58,7.58,0,0,0-1.65,1.2q-.9,0-3.3,1.8c-1.61,1.2-2.7,1.8-3.3,1.8a8.06,8.06,0,0,0-1.8,1.5,8.54,8.54,0,0,1-1.8,1.5,11.53,11.53,0,0,0-1.2,3.45c-.41,1.7-.8,3.45-1.2,5.25s-.75,3.5-1,5.1a31.77,31.77,0,0,1-.75,3.3,6.43,6.43,0,0,1-.45,1.5q-.45,1.2-.9,2.55a19.44,19.44,0,0,1-1,2.55,5,5,0,0,0-.6,1.5c-.2.4-.56,1.2-1,2.4s-1,2.45-1.5,3.75-1,2.55-1.5,3.75-.86,2-1.05,2.4l-1.5,1.5a5.36,5.36,0,0,0-1.5,1.5l1.2-9.3a61,61,0,0,0-3.9,9,31,31,0,0,1-.45,3.75q-.45,2.85-.9,5.85t-.9,5.85a31,31,0,0,0-.45,3.75l-2.4-3Zm9.6-121.5c.19,1.2.7,3.45,1.5,6.75s1.6,6.85,2.4,10.65,1.6,7.35,2.4,10.65,1.39,5.55,1.8,6.75a15.27,15.27,0,0,1,.75,2.25,31,31,0,0,1,.75,3.75q.28,2.1.45,3.9t.15,2.1l.9,2.7.6,1.8h2.7c.79,0,2.2,0,4.2.15s4.15.25,6.45.45,4.45.35,6.45.45a33.76,33.76,0,0,1,4.5.45l3-1.5c.6-.4,1.54-1.1,2.85-2.1s2.7-2,4.2-3,2.95-2,4.35-2.85,2.4-1.55,3-2q1.5-1.2,5-4.2c2.29-2,4.75-4.05,7.35-6.15l7.2-5.85c2.2-1.8,3.79-3.1,4.8-3.9q.6,0,1.35-1.5a7.91,7.91,0,0,1,1.35-2.1c-.41,0-1-.45-1.65-1.35a4,4,0,0,1-1-2q-.9,0-3.3-1.95c-1.61-1.3-2.7-2-3.3-2a5.86,5.86,0,0,0-2-.75,37.88,37.88,0,0,1-3.6-1.2c-1.31-.5-2.7-1-4.2-1.5a12.2,12.2,0,0,1-3.45-1.65q-1.51-.3-4-1a17,17,0,0,0-3.15-.75q-1.52-.3-2.7-.6a26.34,26.34,0,0,0-3.9-.6h-6.3q-1.2.3-1.65,2.1a5.41,5.41,0,0,1-1,2.4,11.75,11.75,0,0,1-.75,2.7,11.22,11.22,0,0,0-.75,2.7h-1.2a47,47,0,0,0-.75-5.55,42.85,42.85,0,0,1-.75-5.85V69a.91.91,0,0,0-.3-.6H1222c-.2.6-.71,2.15-1.5,4.65a23.11,23.11,0,0,0-1.2,4.65,7.08,7.08,0,0,1-.9,3,7.24,7.24,0,0,0-.9,2.4h-1.2l-.9-.9c0-.2-.11-1-.3-2.55a28,28,0,0,1-.3-3.15q-.61-1.2-.45-4.8t-.45-4.8L1195,65.7Z" fill="#f9f9f9"/><path d="M74.7,426.05q-3.9-1.35-5.4-1.95l-4.8-2.4-4.8-2.4q-.6-.3-2.7-1.65t-4.35-2.85l-4.5-3L45,409.7a10.13,10.13,0,0,1-1.8-1.35q-1.2-1.05-2.55-2.1t-2.4-1.95q-1.05-.9-1.35-1.2L12.6,378.8l-1.8-2.4q-.6-.9-1.35-1.95A13.33,13.33,0,0,0,8.1,372.8q-.6-.9-1.8-2.85a16,16,0,0,0-1.8-2.55L3,364.7a13.51,13.51,0,0,0-.6-2.7,6.86,6.86,0,0,0-1.2-2.7,29.94,29.94,0,0,0-.6-3.6Q.3,354.5,0,353V341.9a14.57,14.57,0,0,1,.6-3.45A14.57,14.57,0,0,0,1.2,335q.6-1.2,1.8-3.75t2.55-5.1Q6.9,323.6,8,321.5l1.35-2.7a15.94,15.94,0,0,0,2.7-2.55q2.1-2.25,4.65-4.8t5-5.1a41,41,0,0,1,3.9-3.75,16,16,0,0,1,2.55-1.8Q30,299.6,30.9,299a31,31,0,0,0,4.8-2.1l4.8-2.4q1.5-.6,5.1-1.8a44.13,44.13,0,0,0,4.8-1.8q.9,0,3.3-.15T59,290.3q2.85-.3,5.4-.45t3.45-.15a19.88,19.88,0,0,1-.3-4.2,15.53,15.53,0,0,1,.3-3.9,7.21,7.21,0,0,1,1.5-3.45,35.59,35.59,0,0,0,2.1-3.45,32.52,32.52,0,0,1,3.9-3.9,39,39,0,0,0,4.2-4.2l6-3h3.6a4.92,4.92,0,0,0,1.5.75,2.63,2.63,0,0,1,1.5,1l1.5,1.2q.3.6.75,1.35a8.29,8.29,0,0,1,.75,1.65q.3,1.2.6,2.1.6.9,1.65,2.85A12.35,12.35,0,0,0,99,277.1a48.84,48.84,0,0,0,4.35,4.5q3.45,3.3,7.35,7.2l7.5,7.5,5.1,5.1a7,7,0,0,1,2,1.35q1.65,1.35,3.6,3l3.75,3.15a17.32,17.32,0,0,0,2.4,1.8l2.25,2.25q1.65,1.65,3.3,3.45l3.15,3.45q1.5,1.65,2.1,2.25.3.6,1,1.8a4,4,0,0,1,.75,1.8,7.57,7.57,0,0,0-.9,1.8q-.3.6-.6,1.35a3.68,3.68,0,0,0-.3,1.35,1.85,1.85,0,0,1-.3,1.05,9.81,9.81,0,0,0-.6,1.05,11.64,11.64,0,0,1-.6,1.5q-.6.6-1.8,1.65t-2.55,2.4q-1.35,1.35-2.4,2.55t-1.35,1.5l-3.15,1.5q-2.55,1.2-3.45,1.5h-5.1a15,15,0,0,1-2.1-1.5q-1.5-1.2-3.3-2.55t-3.45-2.55a20.58,20.58,0,0,0-2.25-1.5,51.57,51.57,0,0,0-5.4-3.75,35.86,35.86,0,0,1-4.2-2.85,48.88,48.88,0,0,0-4.8-2.4,30,30,0,0,0-5.4-2.1,44.13,44.13,0,0,0-4.8-1.8,44.13,44.13,0,0,1-4.8-1.8H81.3v16.2H78.6V320.6H75.9a39,39,0,0,1-1.5,4.2q-1.2,3-1.5,3.9l-1.5,1.5a5.41,5.41,0,0,1-1.05-2.4q-.45-1.8-1-2.1a20.56,20.56,0,0,0-.75-4.2,21.46,21.46,0,0,1-.75-3.9,15,15,0,0,0-4.65-1.2,15,15,0,0,1-4.65-1.2h-18a16.46,16.46,0,0,0-2.1.9l-3,1.5q-.9.3-3.45,1.5l-3.15,1.5-1.5,1.5q-.3.6-1.05,1.8a4,4,0,0,0-.75,1.8v16.2a15.76,15.76,0,0,0,1.5,2.4,16.77,16.77,0,0,1,1.05,1.8l.75,1.5q.6,1.2,1.8,3.15A6.85,6.85,0,0,0,32.4,353,11.22,11.22,0,0,0,33.9,355l2.55,2.85L39,360.65a11.22,11.22,0,0,1,1.5,2,6.91,6.91,0,0,0,2,2.4q1.65,1.5,3.45,3.3l3.45,3.45a19.22,19.22,0,0,1,2.25,2.55q.6.6,2.1,1.8T57,379q1.8,1.65,3.6,3a11.29,11.29,0,0,0,2.7,1.65q.6.6,3,2.55a16.88,16.88,0,0,1,3,2.85q.9.6,2.4,1.5t3.15,1.8l3,1.65A9.55,9.55,0,0,1,79.5,395a23.34,23.34,0,0,0,4.5,2.4q3.9,1.8,5.1,2.4.6.3,1.35.6t1.35.6l1.8.6h11.7q.3,0,.75-.6a11.26,11.26,0,0,1,1-1.2l1.2-2.7a9.71,9.71,0,0,0,1-3.3,21.61,21.61,0,0,0,.45-3.3,14.13,14.13,0,0,0,.75-2.25,32.49,32.49,0,0,0,.75-3.6q.3-1.95.45-3.6t.15-2.25a10.58,10.58,0,0,1,.75-3.3,11.22,11.22,0,0,0,.75-2.7,14.8,14.8,0,0,0,.75-2.1q.45-1.5,1-1.5a12.41,12.41,0,0,1,1.65-2.1q1.35-1.5,3-3a38.21,38.21,0,0,0,2.85-2.85q1.2-1.35,1.8-1.95a11.64,11.64,0,0,1,1.5-.6,12.54,12.54,0,0,1,2.1-.6q.6-.3,1.35-.6a4,4,0,0,0,1.35-.9,7.57,7.57,0,0,1,1.8-.9q.6.6,2.1,1.8t1.5,1.8v11.4q0,.6-.6,4.35a39.56,39.56,0,0,0-.6,5.85,7.38,7.38,0,0,0-1.2,3,7.38,7.38,0,0,1-1.2,3,13.3,13.3,0,0,1-1.35,3.9,30.29,30.29,0,0,0-1.65,4.2,10.18,10.18,0,0,1-1.5,3.6q-1.5,2.7-2.1,3a7.65,7.65,0,0,1-1,2.55,12.35,12.35,0,0,1-1.65,2.55,16.14,16.14,0,0,0-3,3.45,31.68,31.68,0,0,1-2.4,3.15l-2.7,2.7q-.6.6-3.15,2.55l-3.75,2.85q-.6.3-1.35.6a4,4,0,0,0-1.35.9l-1.8,1.2a4.92,4.92,0,0,1-1.5.75q-1.2.45-2.55,1T97.2,427a6.43,6.43,0,0,1-1.5.45,5.08,5.08,0,0,1-2.1,1.05q-1.5.45-1.5,1.05l-1.2,2.7a11.26,11.26,0,0,0-1.05,1.2q-.45.6-.75.6a15.94,15.94,0,0,0-.45-2.1,5.41,5.41,0,0,0-1.05-2.4q0-.9-.6-.9h-.3q-.3,0-1.2.9,0,2.1-.3,7.5t-.45,11.7q-.15,6.3-.45,11.7t-.3,7.5q0,.9-.6,5.25a52.29,52.29,0,0,0-.6,6.45,27.43,27.43,0,0,0-1.2,4.5,29.94,29.94,0,0,0-.6,3.6,4.68,4.68,0,0,1-.75,1.5,4.68,4.68,0,0,0-.75,1.5V427.4A22.87,22.87,0,0,1,74.7,426.05Z" fill="#f9f9f9"/><path d="M189.3,414.2a27.16,27.16,0,0,0-.75,3.3c-.3,1.6-.66,3.2-1.05,4.8s-.75,3.2-1.05,4.8a31.77,31.77,0,0,1-.75,3.3,5.62,5.62,0,0,1-.6,1.5,5,5,0,0,0-.6,1.5h-1.8a11.44,11.44,0,0,0-.75-2.1,7.91,7.91,0,0,1-.75-2.4,18,18,0,0,1-.6-3.3q-.32-2.4-.45-5.1t-.45-4.95a12.64,12.64,0,0,0-.6-2.85,45,45,0,0,0-4.8-1.8,43.29,43.29,0,0,1-4.8-1.8,5,5,0,0,1-1.5-.6,3.14,3.14,0,0,1-1.5-1.2q-.62-.3-1.35-.75c-.51-.3-1.05-.65-1.65-1.05a17.09,17.09,0,0,0-2.1-.9,19.34,19.34,0,0,0-2.55-2.7q-2-1.8-3.9-3.9c-1.31-1.4-2.55-2.75-3.75-4.05a26.23,26.23,0,0,1-2.4-2.85q-.62,0-1.8-2t-1.8-2.85a8.43,8.43,0,0,1-1.35-1.95,18.86,18.86,0,0,1-1.35-3q-.62-1.65-1.2-3a6.25,6.25,0,0,1-.6-1.65q-.62-.3-1.8-4.35t-1.8-5.55a27.16,27.16,0,0,1-.75-3.3,6.63,6.63,0,0,0-1-3,62,62,0,0,0-.6-6.75c-.41-3.1-.6-5.05-.6-5.85V336.2c0-.4,0-1.3.15-2.7s.24-2.85.45-4.35.34-3,.45-4.5.15-2.55.15-3.15a16.35,16.35,0,0,0,1-4.35,17.77,17.77,0,0,1,.75-3.75q.28-.9,1.05-3.15t1.5-4.5q.73-2.25,1.5-4.35l1-3a33.49,33.49,0,0,1,1.65-3.6c.9-1.8,1.89-3.75,3-5.85s2-4.05,2.85-5.85a26,26,0,0,1,1.8-3.6,25.58,25.58,0,0,0,1.5-2.1c.79-1.2,1.65-2.45,2.55-3.75s1.74-2.5,2.55-3.6,1.29-1.65,1.5-1.65a6.82,6.82,0,0,0,1.2-2.1,9.32,9.32,0,0,1,.6-1.5v-9.9l1.5-2.7c.6-.6,1.44-1.5,2.55-2.7s2.25-2.4,3.45-3.6,2.34-2.3,3.45-3.3,1.84-1.7,2.25-2.1c.6-.4,1.69-1.05,3.3-1.95a8.7,8.7,0,0,1,3.3-1.35h9.6a9.84,9.84,0,0,1,3.45,1.35,17.08,17.08,0,0,1,3.15,1.95q.58.6,3,2.85t5.25,5.1q2.83,2.85,5.4,5.55a41.37,41.37,0,0,0,4,3.9,35.85,35.85,0,0,0,2.1,3.15,35.24,35.24,0,0,1,2.4,3.75,19.83,19.83,0,0,1,1.8,2.4,16.28,16.28,0,0,0,1.8,2.4l2.7,4.5a13.15,13.15,0,0,1,1.8,3.6,22.73,22.73,0,0,0,1.65,3.3q1.35,2.4,2.7,4.95c.9,1.7,1.69,3.3,2.4,4.8s1.14,2.55,1.35,3.15a14.93,14.93,0,0,1,1.8,3.9,23.08,23.08,0,0,0,1.8,4.2q.28,1.2,1.5,4.8t1.5,5.1a7,7,0,0,1,1,3.15,26.93,26.93,0,0,1,.45,3.15q.58,2.1,1.35,5.85c.49,2.5.75,3.85.75,4.05v22.5a26,26,0,0,1-.75,3.6,41.64,41.64,0,0,1-1.35,4.5,24.13,24.13,0,0,1-.45,3.75,7,7,0,0,1-1,3.15,13.75,13.75,0,0,1-.6,2.1,9.35,9.35,0,0,0-.6,2.4,27,27,0,0,0-1.65,3q-1.06,2.1-2.1,4c-.71,1.3-1.35,2.55-1.95,3.75a12.41,12.41,0,0,1-1.2,2.1,13.9,13.9,0,0,1-2.1,3.75,33.41,33.41,0,0,1-2.4,3.15,18.6,18.6,0,0,0-2.55,2.25l-3.45,3.45-3.45,3.45A13.06,13.06,0,0,1,218.1,401c0,.2-.41.6-1.2,1.2s-1.71,1.25-2.7,1.95-2,1.35-3,2a13.47,13.47,0,0,1-2.4,1.2,5.27,5.27,0,0,1-1.2.75l-2.1,1.05q-1.22.6-2.25,1a5.1,5.1,0,0,1-1.35.45c-.81,0-1.2.7-1.2,2.1q-.31,2.7-.6,9.75t-.45,15q-.17,7.95-.45,15.15c-.21,4.8-.3,8.2-.3,10.2a20.11,20.11,0,0,1-.3,3q-.32,1.8-.6,3.6-.31,2.1-.6,4.5h-2.1l-2.7-59.7Zm-29.7-75.3a21.87,21.87,0,0,0,.75,4.35q.74,3.15,1.05,4.65a49,49,0,0,1,1.8,4.8,40.15,40.15,0,0,0,1.8,4.8c.39.6,1.2,2.15,2.4,4.65s1.89,4.05,2.1,4.65a18.3,18.3,0,0,0,2.55,3.45,20.34,20.34,0,0,1,2.55,3.45l6.6,6.6a7.57,7.57,0,0,1,1.8.9,6.42,6.42,0,0,0,1.35,1.05q.74.45,1.35.75a6.64,6.64,0,0,0,1.8,1.2,4.51,4.51,0,0,0,1.8.6,5.36,5.36,0,0,0,2.4,1.05,15.6,15.6,0,0,0,2.1.45H210q.58-.6,2.55-2.4a15.64,15.64,0,0,1,2.55-2.1q.28-.6,1.5-3a17.58,17.58,0,0,0,1.5-3.9,5.53,5.53,0,0,0,1.05-2.4,12.61,12.61,0,0,0,.45-2.4,6.1,6.1,0,0,0,.6-2.25q.28-2,.45-4.65t.45-5.25q.28-2.55.6-4.05v-1.5a28.67,28.67,0,0,1-.6-3.45q-.32-2.25-.45-4.65t-.45-4.2a11.06,11.06,0,0,0-.6-2.4,17.92,17.92,0,0,0-.75-3.15,14.57,14.57,0,0,1-.75-3.75q-.32-.9-1.5-4.65t-1.5-4.65q-.61-1.2-1.8-4.35a14.69,14.69,0,0,0-1.8-3.75q-.31-.9-1.35-3.3c-.71-1.6-1.5-3.2-2.4-4.8l-2.7-4.8a22.73,22.73,0,0,1-1.65-3.3c-.41-.8-1.2-2.2-2.4-4.2a26.61,26.61,0,0,1-2.1-3.9,37.47,37.47,0,0,1-2.55-3.15,25.8,25.8,0,0,1-2.55-3.75q-.31,0-1.5-1.35t-1.5-1.35l-1.5,2.7a31.38,31.38,0,0,0-1.35,3.15,11.82,11.82,0,0,0-.75,2.25c0,.6-.11,2.15-.3,4.65s-.36,5.2-.45,8.1-.26,5.65-.45,8.25-.3,4.2-.3,4.8a46.16,46.16,0,0,1-.6,4.65,40.56,40.56,0,0,0-.6,4.65,14.39,14.39,0,0,1-1.2-4.65,40.56,40.56,0,0,1-.6-4.65c0-1.4-.11-4-.3-7.95s-.36-8-.45-12.3-.26-8.35-.45-12.15-.3-6.5-.3-8.1h-3.6c-.21,0-.9.65-2.1,2a26.23,26.23,0,0,0-2.4,2.85,24.61,24.61,0,0,0-2.4,3.6,44.71,44.71,0,0,1-3,4.5,3.82,3.82,0,0,1-.6,1.65,3.57,3.57,0,0,0-.6,1.65q-.31.9-1.05,3.15t-1.5,4.5q-.76,2.25-1.5,4.35t-1,2.7q-.32,1.2-1.05,4.2a20.57,20.57,0,0,0-.75,3.9v27Z" fill="#f9f9f9"/><path d="M317.39,410.3q.3-.6-.75-1.05a6.23,6.23,0,0,1-1.95-1.35l-3.6,30.9L309,440a3.77,3.77,0,0,1-.6-2.55q0-1.95-.6-2.25,0-.9.15-4.5t.3-7.65q.15-4.05.45-7.65t.3-4.5q0-.9.15-3.3l.3-4.8q.15-2.4.15-4.5v-2.7a3.49,3.49,0,0,1-.6-.9,4.61,4.61,0,0,1-.6-1.8q-.6-.9-2.25-3.6t-2.25-3.6q-.6-.9-1.65-2.85T300,378.8q-1.2-2.1-2.25-3.75t-1.35-2.25a21.84,21.84,0,0,1-3.15-3.15q-2.25-2.55-4.5-5.4t-4.2-5.55q-1.95-2.7-2.85-3.9a6.66,6.66,0,0,0-.45,2.1q-.15,1.5-.15,1.8a9.1,9.1,0,0,0-.3,2.7,3.34,3.34,0,0,1-.3,1.5q0,1.5.15,7.05t.3,11.85q.15,6.3.3,11.85t.15,7.05a2.37,2.37,0,0,0-.3,1.5,2.66,2.66,0,0,1-.3,1.2v2.7a10.42,10.42,0,0,0-2.25,2.55,10.42,10.42,0,0,1-2.25,2.55q-.6.6-2,1.8t-3.15,2.55q-1.8,1.35-3.45,2.7t-2.25,1.95l-3,1.2a15.91,15.91,0,0,1-1.8-.15,15.91,15.91,0,0,0-1.8-.15,3.32,3.32,0,0,1-1.05-.15,3.32,3.32,0,0,0-1-.15,1.22,1.22,0,0,1-.9-.3l-1.2-1.5v-5.1a24.67,24.67,0,0,0-.3-3.75,19,19,0,0,0-.6-2.85V401q0-2.1.15-4.05t.15-2.55v-6.15q0-2-.15-3.6a7.15,7.15,0,0,0-.45-2.25q0-1.5-.15-4.5t-.15-6.15V362.9a51.64,51.64,0,0,0-.45-5.55q-.45-3.75-.75-7.65t-.75-7.2q-.45-3.3-.45-4.2,0-1.2-.3-4.2t-.75-6.15q-.45-3.15-.75-6a22,22,0,0,0-.6-3.75,20.34,20.34,0,0,0-.45-2.85q-.45-2.25-.9-4.65l-.9-4.8a21.61,21.61,0,0,1-.45-3.3,1.39,1.39,0,0,0,1.5-.9,2.9,2.9,0,0,0,.45-1.5q.15-1.2.3-2.55a23.14,23.14,0,0,0,.15-2.55v-1.5q.6,0,1.95-1.8a8.1,8.1,0,0,1,2-2.1,36.81,36.81,0,0,0,3.9-3.3,12.08,12.08,0,0,0,2.4-1,11.91,11.91,0,0,0,2.7-1.65,1.22,1.22,0,0,1,.9-.3,2.66,2.66,0,0,0,1.2-.3,3.34,3.34,0,0,0,1.5-.3,1.22,1.22,0,0,0,.9.3,2.09,2.09,0,0,1,.9.15,2.09,2.09,0,0,0,.9.15h1.8a5.15,5.15,0,0,1,1.5,1.5q.9,1.2,1.5,2.1a5.26,5.26,0,0,0,.6,1.5q.6,1.2,1.35,2.55a16,16,0,0,1,1.2,2.7,8.27,8.27,0,0,1,.45,1.65,18.68,18.68,0,0,0,2.4,3.9q1.8,2.4,1.8,3a24.73,24.73,0,0,0,2.1,2.85q1.8,2.25,4.05,4.8t4.2,5.1a47.18,47.18,0,0,1,2.85,4.05q1.8,1.8,6,6.9T307.94,337q4.65,5.85,8.85,11.1t6,7.35v-.9l.3-.6a28,28,0,0,0-.3-3.15q-.3-2.25-.6-4.65t-.6-4.5a25.67,25.67,0,0,1-.3-2.7q0-2.1-.6-9.6T319.49,313q-.6-8.85-1.2-16.35t-.9-9.6a11.15,11.15,0,0,0-.3-2.7,6.65,6.65,0,0,1-.3-2.1l-2.4-.6a6.67,6.67,0,0,1-2.1-.9,1.93,1.93,0,0,1-1.5-2.7v-3.6a1.22,1.22,0,0,1,.3-.9q.3-.6,1.2-2.25a10.62,10.62,0,0,1,1.5-2.25,2.46,2.46,0,0,1,.9-1.5,2.46,2.46,0,0,0,.9-1.5q.6-.9,2-2.7t1.65-1.5a11.82,11.82,0,0,1,3.6-3.3q2.7-1.8,4.2-2.7a19.61,19.61,0,0,1,2.1-1.2,15,15,0,0,1,2.7-1.2l1.8-.9a2.13,2.13,0,0,1,1.8-.3h.6a1.33,1.33,0,0,1,.6.15,2.09,2.09,0,0,0,.9.15h2.7a4.89,4.89,0,0,1,1.5,1.8q.9,1.5,1.2,2.1a8.81,8.81,0,0,0,.3,2.1,24.84,24.84,0,0,1,.6,2.7q0,.6.45,3.75a15.13,15.13,0,0,1,.15,4.65q0,1.2.45,6.45t.75,11.55q.3,6.3.6,11.7t.3,6.6q.3,1.5.6,4.05t.45,5.25q.15,2.7.3,4.65t.15,2.25q.6,4.5,1.65,13.5t2.55,20.4q1.5,11.4,3.15,23.85t3.15,23.7l2.7,20.25q1.2,9,1.8,13.2l-.3,1.5a6.65,6.65,0,0,1-.3,2.1q0,.6-1.65,2.7a23.36,23.36,0,0,0-1.95,2.7q-.3.3-1.65,1.35t-2.85,2.25q-1.5,1.2-2.85,2.25t-1.65,1.35a8.73,8.73,0,0,1-3.15,1.35,24.48,24.48,0,0,0-3.75,1.35,3.32,3.32,0,0,1-1.05-.15,2.47,2.47,0,0,0-.75-.15l-1.5-.3a19.3,19.3,0,0,1-1.95-2.7,19.3,19.3,0,0,0-1.95-2.7,29.31,29.31,0,0,1-2.55-4.95q-1.65-3.75-3.45-7.95t-3.45-7.95a53,53,0,0,0-2.55-5.25l-2.7-.3-4.5,35.7-2.1,4.2V460q0-2.55.15-5.25t.15-5.25a12.89,12.89,0,0,0-.3-3.45q.3-2.1.9-6.75t1.2-9.75q.6-5.1,1.2-9.75t.9-6.45Z" fill="#f9f9f9"/><path d="M421.79,414.2h-2.4v23.1h-2.7l-3-21.3a48.71,48.71,0,0,1-6-.6,29,29,0,0,1-5.7-1.2,12.61,12.61,0,0,1-2.4-.45,6.16,6.16,0,0,1-2.1-.75q-1.2-.6-3.75-1.8a13.69,13.69,0,0,1-3.15-1.8l-2.1-2.1a20.45,20.45,0,0,0-1.65-1.5q-.75-.6-1-.9a6.76,6.76,0,0,0-1.35-2.55,21.7,21.7,0,0,0-1.95-2.55,22.79,22.79,0,0,1-1.65-3.45,13,13,0,0,1-1-3.15,8.47,8.47,0,0,1-1.35-3,14.88,14.88,0,0,1-.75-3V368.9a11.68,11.68,0,0,1,1.5-4.2q1.5-3,2.1-3.9a31.94,31.94,0,0,1-3.3-.3q-2.4-.3-4.8-.45t-4.8-.45a31.94,31.94,0,0,0-3.3-.3,4.61,4.61,0,0,1-1.8-.6,7,7,0,0,1-1.8-1.2q-.6,0-1.65-1.35t-1.65-1.35a12.54,12.54,0,0,0-.6-2.1,11.64,11.64,0,0,0-.6-1.5v-8.1q0-.3.6-3a21.06,21.06,0,0,0,.6-3.6q.6-1.2,1.65-4.05t2.1-6l1.95-5.85,1.2-3.6q.3-1.5,3-5.85a36.09,36.09,0,0,0,3.6-7q.6-1.2,2.1-4.8t3.3-7.8q1.8-4.2,3.3-7.95l2.1-5.25a33.65,33.65,0,0,1,4.05-7.05q2.55-3.45,5.25-6.9a79.61,79.61,0,0,0,5.1-7.35,31.35,31.35,0,0,0,3.6-8.4,12.76,12.76,0,0,0,1.2-1.8q.9-1.5,1.95-3.15l2.1-3.3q1-1.65,1.65-2.55a10.34,10.34,0,0,1,1.05-2.25q1.05-2,1.65-3.15.9-.9,2.85-3.15a13.79,13.79,0,0,1,2.55-2.55,18.23,18.23,0,0,1,3.15-3.75l3.15-3.15a8,8,0,0,0,2.1-1.5q1.8-1.5,2.4-2.1a12.54,12.54,0,0,0,2.1-.6,11.64,11.64,0,0,1,1.5-.6H441l3.6,3.6a5.84,5.84,0,0,1,1.65,2.1,13.14,13.14,0,0,0,1.65,2.4,18.47,18.47,0,0,0,1.05,3.6q1.05,3,1.65,4.5a33.83,33.83,0,0,1,2.1,4.65,19.41,19.41,0,0,1,1.5,4.65,10.56,10.56,0,0,0,.45,2.25q.45,1.65,1.05,3.45t1.05,3.45a10.49,10.49,0,0,1,.45,2.55,17,17,0,0,0,.75,3.15,15,15,0,0,1,.75,3.75,48,48,0,0,0,1.2,4.95q.9,3.15,1.8,6.45t1.5,6a20.17,20.17,0,0,0,.9,3.3,7.78,7.78,0,0,0,1.35,3.75,8.46,8.46,0,0,1,1.35,4.35q.6,2.1,1.35,5.85a41.41,41.41,0,0,1,.75,4.35v10.8a3.24,3.24,0,0,1-.75,1.65,13.33,13.33,0,0,1-1.35,1.65l-2.4,3.6q-1.8,2.7-2.1,3-.6.6-3.15,2.55T456,323.9a11.57,11.57,0,0,0-2.55.6,11,11,0,0,1-2.85.6h-1.5a5.26,5.26,0,0,1-1.5-.6,5.26,5.26,0,0,0-1.5-.6,3.77,3.77,0,0,1-.9-1.5,12.54,12.54,0,0,1-.6-2.1,5.41,5.41,0,0,1-1-2.4q-.45-1.8-1.05-2.1a15,15,0,0,0-.75-3.75,17,17,0,0,1-.75-3.15q0-.9-.15-3.15t-.45-4.95q-.3-2.7-.45-5.1t-.15-3a27.74,27.74,0,0,1-.9-3.3q-.3-1.5-.6-2.85a10.27,10.27,0,0,1-.3-1.95,33.21,33.21,0,0,0-2.55-7.2q-1.95-4.2-2.55-5.7-.3-1.2-1.5-5.55t-1.5-5.85q-.6-1.5-1.35-3.9t-1.65-4.8a47.93,47.93,0,0,1-2.1-5.7H423q0,.9.15,3.6t.15,5.85q0,3.15.15,5.85t.15,3.6a27.29,27.29,0,0,1-.75,4.65q-.75,3.45-1,4.35a11.22,11.22,0,0,0-.75-2.7,11.22,11.22,0,0,1-.75-2.7,19,19,0,0,1-.6-2.85q-.3-1.95-.45-4.2t-.45-4.35a19.18,19.18,0,0,0-.6-3l-2.7,6.3V290l-1.8,2.7-2.4-2.7V265.7a17.06,17.06,0,0,0-1.65,2.1q-1,1.5-2.25,3.15t-2.1,3.15a13.15,13.15,0,0,0-1.2,2.4q-.3.6-1.8,3.75T399,287.6q-1.8,4.2-3.75,8.4t-2.85,6.6a6.28,6.28,0,0,1-1.5,2.55,6.28,6.28,0,0,0-1.5,2.55q-.6,1.8-1.65,4.8l-2.1,6-1.95,5.55a12.91,12.91,0,0,1-1.2,2.85,14.88,14.88,0,0,0,.75,3,13.58,13.58,0,0,1,.75,3.3q.9,0,3.75.15t6,.15h6a23.73,23.73,0,0,0,4.35-.3q.3,0,1.8-.15t3.45-.45q1.95-.3,3.75-.45t2.4-.15q1.2-.3,3.3-.75t4.2-.75q2.1-.3,3.6-.6a15,15,0,0,1,1.8-.3h25.8a24.36,24.36,0,0,0,4.65,1.8q3.75,1.2,5.25,1.8l3.15,3.15a18.23,18.23,0,0,1,3.15,3.75,23.88,23.88,0,0,0,1.65,3.3,8.76,8.76,0,0,1,1.35,3.3v17.7a12.54,12.54,0,0,1-.6,2.1,9.82,9.82,0,0,0-.6,2.4q-.3.6-.9,2a26.49,26.49,0,0,1-1.5,2.85l-1.8,3a13.15,13.15,0,0,0-1.2,2.4,7.57,7.57,0,0,1-.9,1.8,7,7,0,0,0-1.05,1.35q-.45.75-.75,1.35a43.53,43.53,0,0,0-3,3.45q-1.8,2.25-2.4,2.85,0,.6-1.05,1.65L456,393.2q-.6.6-2.1,1.8l-3.15,2.55q-1.65,1.35-3,2.4t-1.65,1.35a16,16,0,0,1-2.55,1.8,16,16,0,0,0-2.55,1.8,4.84,4.84,0,0,0-2.1,1.05,34.81,34.81,0,0,1-3.45,2.1q-1.95,1.05-3.6,2.1a16.61,16.61,0,0,0-1.95,1.35q-.3,0-1.2.9a.86.86,0,0,0-.3.6v4.5q0,.9.3,4.35t.45,7.35q.15,3.9.45,7.2t.3,3.9v21.3a15.35,15.35,0,0,1-.3,2.25q-.3,1.65-.45,3.45t-.45,3.45a18.74,18.74,0,0,0-.3,1.95,11.19,11.19,0,0,1-1.05-3.9,15.55,15.55,0,0,0-1-4.2q-.3-2.4-.75-8.55t-.9-13.2q-.45-7.05-.75-13.2t-.3-8.55Zm-18.6-48.6v1.95a14.55,14.55,0,0,0,.3,2.85q.3,1.5.6,3.3a9.09,9.09,0,0,0,1.05,3.45,12.11,12.11,0,0,0,2.25,3.45,16.12,16.12,0,0,0,2.55,3,35.52,35.52,0,0,0,3.75,3.6,4.68,4.68,0,0,1,1.5.75,4.68,4.68,0,0,0,1.5.75h16.2a6.68,6.68,0,0,0,1.65-.6q1.35-.6,2.85-1.35t3-1.65a11.6,11.6,0,0,0,2.1-1.5,8.54,8.54,0,0,0,1.8-1.5,8.54,8.54,0,0,1,1.8-1.5,14.37,14.37,0,0,1,1.65-3.45,7.66,7.66,0,0,0,1.35-3.45v-8.1a11.07,11.07,0,0,0-1.35-3.15q-1.35-2.55-1.65-3.15a28.7,28.7,0,0,1-2.55-1.65A6.76,6.76,0,0,0,441,356.3q-.3-.6-3.6-1.05a40.47,40.47,0,0,0-4.5-.45h-8.1q-1.5,0-4.2.15l-5.55.3q-2.85.15-5.1.45a6.75,6.75,0,0,0-2.55.6,4.61,4.61,0,0,0-1.8.6,11.64,11.64,0,0,0-1.5.6,33.28,33.28,0,0,1-.45,4.2A34.61,34.61,0,0,0,403.19,365.6Z" fill="#f9f9f9"/><path d="M504.29,268.7q-1.8-.3-6.3-.6t-9.45-.45q-4.95-.15-9.3-.45t-6.15-.3q-.3,0-1.8-.15l-3.3-.3q-1.8-.15-3.45-.45a9.89,9.89,0,0,1-2.25-.6,21.46,21.46,0,0,1-3.9-.75,23.23,23.23,0,0,1-4.2-1.35,13.82,13.82,0,0,1-3.9-.75,20.63,20.63,0,0,0-2.7-.75,4.61,4.61,0,0,1-1.8-.6,4.51,4.51,0,0,0-1.8-.6,11.64,11.64,0,0,0-2.55-3q-1.95-1.8-1.95-2.4v-2.7a9.87,9.87,0,0,1,.6-3,9.35,9.35,0,0,0,.6-2.4,12.65,12.65,0,0,0,1.65-2.4,6,6,0,0,1,1.65-2.1c.41-.4,1.2-1.25,2.4-2.55s2-2.15,2.4-2.55a6.69,6.69,0,0,0,2.55-1.35,13.81,13.81,0,0,1,2.85-1.65,6.44,6.44,0,0,1,1.5-1.2,2.69,2.69,0,0,1,1.2-.3H465q1.2,0,1.8,1.5a5.26,5.26,0,0,0,.6,1.5,14.68,14.68,0,0,0,.9,1.5,8.23,8.23,0,0,1,2.4.75,8.23,8.23,0,0,0,2.4.75,23.3,23.3,0,0,0,4.8,1.35,29.13,29.13,0,0,0,5.1.75q1.2,0,3.9.3t5.55.45q2.85.15,5.25.45t3,.3h14.7a13,13,0,0,0,3.45-1.5,18.61,18.61,0,0,0,3.45-2.1h6.3a7.69,7.69,0,0,0,1.65,1.8q1.35,1.2,1.35,1.8h13.2q1.2,0,6.15-.3t10.8-.45q5.85-.15,11-.45t6.3-.3h33.6a1.63,1.63,0,0,1,1.2.75,1.63,1.63,0,0,0,1.2.75v4.5a3.64,3.64,0,0,1-.9,1.8,17.54,17.54,0,0,1-1.5,1.8,13.15,13.15,0,0,1-1.5,2.7q-1.2,1.8-1.5,1.8a1.44,1.44,0,0,1-.45,1.05l-1,1.05a9.83,9.83,0,0,1-1.2,1.5q-.6.3-2.55,1.5a16.17,16.17,0,0,1-2.85,1.5,7,7,0,0,1-1.8,1.2,2.3,2.3,0,0,1-.9.3l-33.3,3.6v99.9a4,4,0,0,0-.75-1.8,4,4,0,0,1-.75-1.8q0-.6-.15-2.4t-.45-3.75q-.3-1.95-.45-3.9t-.15-2.55q-.3-2.4-.6-8.85t-.6-15q-.3-8.55-.75-18.15t-.75-18q-.3-8.4-.45-14.85t-.15-8.85h-2.1q0,.9-.45,4.2t-1.05,3.9q0,.6-.15,4.5t-.45,8.4q-.3,4.5-.45,8.4t-.15,4.2q-.3-.3-.6-3.75t-.45-7.5q-.15-4-.45-7.5t-.3-3.75a35,35,0,0,0-.75-4.65,35,35,0,0,1-.75-4.65h-19.8v3.6a32,32,0,0,1,.6,5.25q.3,4.35.9,10.35t1,13.05q.45,7.05,1.05,13.5t.9,11.4q.3,4.95.6,7,0,.6.15,2.1t.45,3.3q.3,1.8.6,3.45a4.78,4.78,0,0,0,.6,1.95,30,30,0,0,0,.45,4.05q.45,2.85.9,6t.9,5.85a27.61,27.61,0,0,1,.45,3.6,11.19,11.19,0,0,1,1,3.9,15.55,15.55,0,0,0,1,4.2q.3,1.2.9,4.2l.6,2.4q.3.6,3.15,1.05t3.45.45a4,4,0,0,0,.75,1.8,4,4,0,0,1,.75,1.8q.3.3.75,4.05a39.55,39.55,0,0,0,1.05,5.85v1.2a29.6,29.6,0,0,0-1.05,4.8,10.78,10.78,0,0,1-.75,3.3,4,4,0,0,1-.75,1.8,4,4,0,0,0-.75,1.8l-4.8,6a31.68,31.68,0,0,1-3.15,2.4,30.13,30.13,0,0,0-3.75,3,5.26,5.26,0,0,0-1.5.6,5.26,5.26,0,0,1-1.5.6h-8.1l-1.5-1.2q-.6-1.2-2.1-3.75a10.48,10.48,0,0,1-1.5-3.15,24.82,24.82,0,0,0-1.35-4.95,38.77,38.77,0,0,1-1.65-6.15q-.3-.9-.75-3t-1-4.35q-.6-2.25-1.05-4.2t-.75-2.85q0-.9-.3-3.6t-.75-5.85q-.45-3.15-.9-6t-.75-4.05q-.3-1.8-.75-5.25T512.39,353q-.6-3.6-1.05-6.6a34.61,34.61,0,0,1-.45-3.9q-.3-1.5-1.05-7.65t-1.65-13.35q-.9-7.2-1.5-13.35t-.6-7.65a35.69,35.69,0,0,1-.6-5.7q-.3-4.8-.45-10.5T504.59,274Q504.29,269.3,504.29,268.7Z" fill="#f9f9f9"/><path d="M608.39,420.2q-.3,0-3.6.45a40.47,40.47,0,0,1-4.5.45,15,15,0,0,0-1.5-2.1,6,6,0,0,1-1.2-1.8l2.7-18.9a17.67,17.67,0,0,0-3.45-1.5q-2.55-.9-3.15-1.2a9.36,9.36,0,0,1-2.85-2.85,11.75,11.75,0,0,1-1.65-2.55v-3.6q.3-1.2.75-2.7a10.46,10.46,0,0,0,.45-1.8,8.81,8.81,0,0,1,.3-2.1,7.38,7.38,0,0,1,1.2-3q.3-.3,2.1-2.85a11.68,11.68,0,0,1,2.4-2.85q.6-.9,1.5-2.1.6-.9,1.05-1.65a7,7,0,0,1,1-1.35v-3.9a9.52,9.52,0,0,1,.6-2.7l.6-1.8a19.27,19.27,0,0,0-.75-3.3q-.75-2.7-1.35-4.5.6-.9-.45-5.4t-1.35-6.6q0-.6.15-2.4t-.15-2.1a19,19,0,0,1-1.2-3.45q-.6-2.25-1.2-4.2a31.49,31.49,0,0,1-.9-3.6,18.74,18.74,0,0,1-.3-1.95q-.6-1.5-2.1-4.95t-3-7.35q-1.5-3.9-2.85-7.2a30.36,30.36,0,0,1-1.65-4.8q0-.9-1.65-3.3t-2.25-2.4a17.88,17.88,0,0,0-2.4-1.8q-1.8-1.2-3.9-2.55T570,283.4a8.36,8.36,0,0,0-2.1-1.2q-.3,0-1.8-2.4a42,42,0,0,0-2.7-3.9,3.69,3.69,0,0,0-.6-1.65,3.69,3.69,0,0,1-.6-1.65v-1.5a3.32,3.32,0,0,1,.15-1.05,3.32,3.32,0,0,0,.15-1.05,6.43,6.43,0,0,1,.45-1.5,6.43,6.43,0,0,0,.45-1.5,3.49,3.49,0,0,0,.6-.9,1.62,1.62,0,0,1,.6-.75q.3-.15.3-.75.3-.3,1.65-2.1a5.91,5.91,0,0,0,1.35-2.4,31.68,31.68,0,0,1,3.15-2.4,31.68,31.68,0,0,0,3.15-2.4,6.86,6.86,0,0,1,2.7-1.2,13.51,13.51,0,0,1,2.7-.6l1.8-.6q.6-.3,1.35-.6a3.68,3.68,0,0,1,1.35-.3h1.5q.9.6,3.6,2.1t3,2.4a13.71,13.71,0,0,1,2.25,1.8l3.6,3.3q2,1.8,3.6,3.45l2.25,2.25q1.2.6,3.45,1.5a10.25,10.25,0,0,0,3.45.9q3.6.6,13.35,1.65t20.7,2.4l20.55,2.55q9.6,1.2,13.2,1.5,1.2.9,6.15,1.8a45.53,45.53,0,0,0,7,.9,8.61,8.61,0,0,0,4.5,2.1,21.23,21.23,0,0,1,3.6.9q.6.3,2.55,1.2t4,1.95q2.1,1.05,4.2,2t3,1.2a4,4,0,0,1,1.8.75,4,4,0,0,0,1.8.75l2.4,3q1.2,1.5,1.8,1.5a21.21,21.21,0,0,0,1.65,2.4,5.91,5.91,0,0,1,1.35,2.4q0,.6-.15,2.7t-.15,3.3a4.65,4.65,0,0,0-.9,3.3V311a4.68,4.68,0,0,1-.75,1.5q-.75,1.2-1.65,2.7t-1.95,3a17.06,17.06,0,0,1-1.65,2.1q-.6.6-1.8,2.1t-1.8,2.1l-4.5,4.5-3.6,3.6q-1.8,1.5-6.6,5.25t-10.2,8.1q-5.4,4.35-10.2,8.25t-6.6,5.4a1.27,1.27,0,0,1,1,.75,7,7,0,0,0,1.05,1.35,20.46,20.46,0,0,1,2.1,1.35,31.51,31.51,0,0,1,3,2.4q1.5,1.35,2.85,2.4a4.1,4.1,0,0,0,2,1,25.86,25.86,0,0,0,3.3,2.55q2.4,1.65,4.8,3.45t4.65,3.3a22.29,22.29,0,0,1,3.15,2.4,7.22,7.22,0,0,0,1.8,1.8,7.53,7.53,0,0,1,2.1,2.4,17.51,17.51,0,0,1,3.15,2.25l3.9,3.3q1.95,1.65,3.45,3.15a11,11,0,0,1,1.8,2.1,3.45,3.45,0,0,0,1,1.8l2.25,2.55,2.25,2.55q1.05,1.2,1.05,1.5a15.14,15.14,0,0,1,1.8,3.6,4.94,4.94,0,0,0-.3,1.5v5.4a9.11,9.11,0,0,0-2.1,2.55,23,23,0,0,1-2.1,2.85,18.74,18.74,0,0,1-3.6,3.15,20.49,20.49,0,0,1-3.9,2.55,9.85,9.85,0,0,1-3,1.5q-2.4.9-3,1.2h-2.7a7,7,0,0,1-1.35-.15,7,7,0,0,0-1.35-.15,34.44,34.44,0,0,1-2.7-3.3q-1.8-2.4-3.75-4.8t-3.75-4.8a34.44,34.44,0,0,0-2.7-3.3q-.6,0-2.85-1.95t-4.05-3.45q0-.6-1.5-1.8t-1.5-1.8a47.18,47.18,0,0,1-4-2.85q-2.55-1.95-5.1-3.75t-4.5-3.15a26.5,26.5,0,0,1-2.25-1.65q-.6-.3-2.7-1.65l-4.65-3q-2.55-1.65-4.8-2.85t-3.15-1.8a3.77,3.77,0,0,0-1.5-.9,3.77,3.77,0,0,1-1.5-.9l-1.8-.9a3.69,3.69,0,0,0-1.65.6,7.83,7.83,0,0,0-1.65,1.2q-.9,0-3.3,1.8t-3.3,1.8a8.54,8.54,0,0,0-1.8,1.5,8.54,8.54,0,0,1-1.8,1.5,11.82,11.82,0,0,0-1.2,3.45q-.6,2.55-1.2,5.25t-1,5.1a29.28,29.28,0,0,1-.75,3.3,6.43,6.43,0,0,1-.45,1.5q-.45,1.2-.9,2.55a19.44,19.44,0,0,1-1,2.55,5.26,5.26,0,0,0-.6,1.5q-.3.6-1.05,2.4t-1.5,3.75q-.75,2-1.5,3.75t-1,2.4l-1.5,1.5a5.36,5.36,0,0,0-1.5,1.5l1.2-9.3a36.15,36.15,0,0,0-2.1,4.35,38,38,0,0,0-1.8,4.65,31,31,0,0,1-.45,3.75q-.45,2.85-.9,5.85t-.9,5.85a31,31,0,0,0-.45,3.75l-2.4-3ZM618,298.7q.3,1.8,1.5,6.75t2.4,10.65q1.2,5.7,2.4,10.65t1.8,6.75a14.13,14.13,0,0,1,.75,2.25,31,31,0,0,1,.75,3.75q.3,2.1.45,3.9t.15,2.1l.9,2.7.6,1.8h2.7q1.2,0,4.2.15t6.45.45q3.45.3,6.45.45a33.38,33.38,0,0,1,4.5.45l3-1.5q.9-.6,2.85-2.1t4.2-3q2.25-1.5,4.35-2.85l3-1.95q1.5-1.2,5-4.2t7.35-6.15q3.9-3.15,7.2-5.85t4.8-3.9q.6,0,1.35-1.5a8.45,8.45,0,0,1,1.35-2.1q-.6,0-1.65-1.35a4.1,4.1,0,0,1-1-1.95q-.9,0-3.3-2t-3.3-1.95a5.76,5.76,0,0,0-2-.75,37.88,37.88,0,0,1-3.6-1.2q-1.95-.75-4.2-1.5a12.34,12.34,0,0,1-3.45-1.65q-1.5-.3-4-1.05a17,17,0,0,0-3.15-.75q-1.5-.3-2.7-.6a26.34,26.34,0,0,0-3.9-.6h-6.3q-1.2.3-1.65,2.1a5.41,5.41,0,0,1-1,2.4,11.22,11.22,0,0,1-.75,2.7,11.22,11.22,0,0,0-.75,2.7h-1.2a44.8,44.8,0,0,0-.75-5.55,42.85,42.85,0,0,1-.75-5.85V299a.86.86,0,0,0-.3-.6h-2.4q-.3.9-1.5,4.65a23.11,23.11,0,0,0-1.2,4.65,7.08,7.08,0,0,1-.9,3,7.24,7.24,0,0,0-.9,2.4h-1.2l-.9-.9q0-.3-.3-2.55a28,28,0,0,1-.3-3.15q-.6-1.2-.45-4.8t-.45-4.8l-18.9-1.2Z" fill="#f9f9f9"/><path d="M770.69,418.7h-3.6a55.83,55.83,0,0,1-.6,5.85,23.56,23.56,0,0,1-1.2,5.55c0,1-.06,2.1-.15,3.3s-.26,2.3-.45,3.3q-.32,1.8-.6,3.6h-2.7V418.7a3.88,3.88,0,0,0-.9-.6,5.5,5.5,0,0,0-1.5-.6,12.48,12.48,0,0,1-2.4-.45c-1.2-.3-2.51-.65-3.9-1.05s-2.7-.8-3.9-1.2a21.24,21.24,0,0,1-2.4-.9,20.37,20.37,0,0,1-3.75-1,11.37,11.37,0,0,1-4.35-2.25,5.26,5.26,0,0,1-2.4-.6,3.17,3.17,0,0,1-1.2-.6q-.62-.6-1.65-1.8a28.58,28.58,0,0,0-2.4-2.4L728.09,403a6.21,6.21,0,0,1-1.5-1.65,9.32,9.32,0,0,1-.6-1.5q-.32-.6-.6-1.05a7.27,7.27,0,0,1-.6-1.05l-.6-2.4c-.21-.6-.4-1.3-.6-2.1v-9.6a33.57,33.57,0,0,1,.6-3.75,29.22,29.22,0,0,0,.6-4.35q.59-2.1,1.65-7.05a46.21,46.21,0,0,1,1.65-6.45q.28-.9,1.35-4.05t2.1-7.05q1-3.9,2.1-7.2a20.3,20.3,0,0,0,1.05-4.2,65.24,65.24,0,0,0,1.8-6.45q1.18-4.95,1.8-7.05a25.18,25.18,0,0,1,.75-4.2,32.66,32.66,0,0,0,.75-3.9V301.7a5.26,5.26,0,0,0-.3-1.5q-.32-.9-.6-1.8l-.6-2.4a8.5,8.5,0,0,0-3.45-1.2q-2.87-.6-3.15-1.2a1.69,1.69,0,0,1-1.2-.6.83.83,0,0,1-.3-.6,21.36,21.36,0,0,1-.6-2.1,5.4,5.4,0,0,1-.3-1.8V286a2.85,2.85,0,0,1,.3-1.35l.6-1.8a10.1,10.1,0,0,1,1-3.3,22.11,22.11,0,0,1,1.65-3.3l6.9-6.9a19.89,19.89,0,0,1,2.1-1.5,27.62,27.62,0,0,1,2.4-1.5,8.32,8.32,0,0,0,2.4-.75,8.14,8.14,0,0,1,2.4-.75h1.8a11.31,11.31,0,0,0,3.15,1.65,12,12,0,0,1,3.15,1.65,1.77,1.77,0,0,1,1.2.6l.6.6q.59,1.2,1.8,3.75a13,13,0,0,0,1.8,3.15,13.1,13.1,0,0,0,.75,3.3,14.1,14.1,0,0,1,.75,3.3v25.8a26,26,0,0,1-.75,3.6,19.92,19.92,0,0,0-.75,4.5,28.77,28.77,0,0,0-.75,3c-.3,1.4-.66,2.75-1.05,4.05s-.75,2.55-1,3.75a6.4,6.4,0,0,1-.75,2.1,28.33,28.33,0,0,1-1.2,4.95c-.81,2.7-1.65,5.65-2.55,8.85s-1.8,6.15-2.7,8.85-1.46,4.35-1.65,4.95q-.32,1.5-1,4.5a23.08,23.08,0,0,0-.75,3.6V380l2.55,2.55a22.08,22.08,0,0,0,2.85,2.55,14.84,14.84,0,0,0,2.4,1.5,11.69,11.69,0,0,0,2,1,4.46,4.46,0,0,0,1.65.45,8.32,8.32,0,0,1,2.4.75,8.14,8.14,0,0,0,2.4.75,14.35,14.35,0,0,0,3.75,1,6.94,6.94,0,0,1,3.15,1.05,19.6,19.6,0,0,1,1.95.3c1.09.2,2.25.35,3.45.45s2.34.25,3.45.45a15,15,0,0,0,2.25.3,36.17,36.17,0,0,1,3.75.3c1.69.2,3.45.35,5.25.45s3.34.2,4.65.3,2.14.15,2.55.15,1.74.1,4,.3,3.94.3,5,.3h1.65a6.18,6.18,0,0,0,2-.3,10,10,0,0,0,2.4-.3l1.2-4.8V365.3c0-.4-.06-1.3-.15-2.7s-.26-2.9-.45-4.5-.36-3.15-.45-4.65-.15-2.55-.15-3.15a6.87,6.87,0,0,1-.75-2.4q-.45-2.1-.9-4.8t-.9-5.1c-.3-1.6-.56-2.9-.75-3.9q-.32-.9-1.05-3.75t-1.35-5.85q-.62-3-1.35-5.7t-1.05-3.6l-2.25-7.65c-1.11-3.7-2.25-7.6-3.45-11.7s-2.36-8-3.45-11.7-1.86-6.35-2.25-7.95v-8.1a4.65,4.65,0,0,1,.3-1.5,11.88,11.88,0,0,1,1.2-1.8,24.39,24.39,0,0,1,1.5-2.4q1.18-1.8,1.5-2.4.59-.6,1.8-1.65t1.8-1.65a5.81,5.81,0,0,0,2.4-1.5,9.86,9.86,0,0,0,2.1-2.1,4.71,4.71,0,0,0,1.8-.6,4.51,4.51,0,0,1,1.8-.6h4.5q.59,0,1.8,1.5a24.12,24.12,0,0,0,1.8,2.1,26.18,26.18,0,0,0,1.5,3.6,31.42,31.42,0,0,1,1.05,3.15c.3,1.1.54,1.95.75,2.55.39,1.6,1.35,5,2.85,10.2s3.24,11.25,5.25,18.15,4.14,14.2,6.45,21.9,4.44,15,6.45,21.9,3.75,12.95,5.25,18.15,2.44,8.6,2.85,10.2l.9,2.85q.58,2,1.35,4.2t1.5,4.5a12.4,12.4,0,0,1,.75,3.15c.19.6.6,1.65,1.2,3.15s1.24,3.1,2,4.8,1.39,3.35,2.1,4.95a22.11,22.11,0,0,0,1.65,3.3,10.21,10.21,0,0,0,1.5,3.15,18.53,18.53,0,0,0,2.1,3.15v6.9a4,4,0,0,1-.9,1.5,6.18,6.18,0,0,0-.9,1.05q-.32.45-.6.45-.31.6-1.5,2.55t-1.5,2.55q0,.3-1.35,1.5t-1.35,1.5A6.39,6.39,0,0,0,856,422c-1.31,1-2.25,1.7-2.85,2.1a3.91,3.91,0,0,0-1.8.75,4.08,4.08,0,0,1-1.8.75h-4.5q-.62,0-3.15-2.25t-3.15-2.85q-.62-.3-2.7-1.5t-2.7-1.5a5.26,5.26,0,0,0-.3-1.5q-.32-.6-.6-1.05a7.27,7.27,0,0,1-.6-1.05v-1.5l.6-2.4a6.24,6.24,0,0,1,.9-2.1,3.22,3.22,0,0,0,.3-1.8,1.27,1.27,0,0,0-.3-.9l-.3-.3a1.77,1.77,0,0,0-1.2-.6c0,.2-.36.6-1,1.2s-1.41,1.25-2.1,1.95-1.41,1.35-2.1,1.95-1.16,1-1.35,1.2q-.62.6-2.7,2.55t-3.3,2.85a3.91,3.91,0,0,0-1.8.75,4.08,4.08,0,0,1-1.8.75,6.26,6.26,0,0,1-2.1.75,12.75,12.75,0,0,1-2.4.45,28,28,0,0,1-4.5,1.2,30.61,30.61,0,0,1-3.6.6h-26.4q0,2.7-.45,9.3t-.9,14.25q-.45,7.65-.9,14.4T774,467.9a18.63,18.63,0,0,0-.6,3.45q-.32,2.55-.45,5.25t-.45,5.25a33.07,33.07,0,0,0-.3,3.45l-1.5-1.2Z" fill="#f9f9f9"/><path d="M931.18,426.05q-3.9-1.35-5.4-1.95l-4.8-2.4-4.8-2.4q-.6-.3-2.7-1.65t-4.35-2.85l-4.5-3-3.15-2.1a10.13,10.13,0,0,1-1.8-1.35q-1.2-1.05-2.55-2.1t-2.4-1.95q-1.05-.9-1.35-1.2l-24.3-24.3-1.8-2.4q-.6-.9-1.35-1.95a13.33,13.33,0,0,0-1.35-1.65q-.6-.9-1.8-2.85a16,16,0,0,0-1.8-2.55l-1.5-2.7a13.51,13.51,0,0,0-.6-2.7,6.86,6.86,0,0,0-1.2-2.7,29.94,29.94,0,0,0-.6-3.6q-.3-1.2-.6-2.7V341.9a14.57,14.57,0,0,1,.6-3.45,14.57,14.57,0,0,0,.6-3.45q.6-1.2,1.8-3.75t2.55-5.1q1.35-2.55,2.4-4.65l1.35-2.7a15.94,15.94,0,0,0,2.7-2.55q2.1-2.25,4.65-4.8t5-5.1a41,41,0,0,1,3.9-3.75,16,16,0,0,1,2.55-1.8q2-1.2,2.85-1.8a31,31,0,0,0,4.8-2.1l4.8-2.4q1.5-.6,5.1-1.8a44.13,44.13,0,0,0,4.8-1.8q.9,0,3.3-.15t5.25-.45q2.85-.3,5.4-.45t3.45-.15a19.88,19.88,0,0,1-.3-4.2,15.53,15.53,0,0,1,.3-3.9,7.21,7.21,0,0,1,1.5-3.45,35.59,35.59,0,0,0,2.1-3.45,32.52,32.52,0,0,1,3.9-3.9,39,39,0,0,0,4.2-4.2l6-3h3.6a4.92,4.92,0,0,0,1.5.75,2.63,2.63,0,0,1,1.5,1l1.5,1.2q.3.6.75,1.35a8.29,8.29,0,0,1,.75,1.65q.3,1.2.6,2.1.6.9,1.65,2.85a12.35,12.35,0,0,0,1.65,2.55,48.84,48.84,0,0,0,4.35,4.5q3.45,3.3,7.35,7.2l7.5,7.5,5.1,5.1a7,7,0,0,1,2,1.35q1.65,1.35,3.6,3l3.75,3.15a17.32,17.32,0,0,0,2.4,1.8l2.25,2.25q1.65,1.65,3.3,3.45l3.15,3.45q1.5,1.65,2.1,2.25.3.6,1.05,1.8a4,4,0,0,1,.75,1.8,7.57,7.57,0,0,0-.9,1.8q-.3.6-.6,1.35a3.68,3.68,0,0,0-.3,1.35,1.85,1.85,0,0,1-.3,1.05,9.81,9.81,0,0,0-.6,1.05,11.64,11.64,0,0,1-.6,1.5q-.6.6-1.8,1.65t-2.55,2.4q-1.35,1.35-2.4,2.55t-1.35,1.5l-3.15,1.5q-2.55,1.2-3.45,1.5H981a15,15,0,0,1-2.1-1.5q-1.5-1.2-3.3-2.55t-3.45-2.55a20.58,20.58,0,0,0-2.25-1.5,51.57,51.57,0,0,0-5.4-3.75,35.86,35.86,0,0,1-4.2-2.85,48.88,48.88,0,0,0-4.8-2.4,30,30,0,0,0-5.4-2.1,44.13,44.13,0,0,0-4.8-1.8,44.13,44.13,0,0,1-4.8-1.8h-2.7v16.2h-2.7V320.6h-2.7a39,39,0,0,1-1.5,4.2q-1.2,3-1.5,3.9l-1.5,1.5a5.41,5.41,0,0,1-1-2.4q-.45-1.8-1.05-2.1a20.56,20.56,0,0,0-.75-4.2,21.46,21.46,0,0,1-.75-3.9,15,15,0,0,0-4.65-1.2,15,15,0,0,1-4.65-1.2H897a16.46,16.46,0,0,0-2.1.9l-3,1.5q-.9.3-3.45,1.5l-3.15,1.5-1.5,1.5q-.3.6-1,1.8a4,4,0,0,0-.75,1.8v16.2a15.76,15.76,0,0,0,1.5,2.4,16.77,16.77,0,0,1,1,1.8l.75,1.5q.6,1.2,1.8,3.15a6.85,6.85,0,0,0,1.8,2.25,11.22,11.22,0,0,0,1.5,1.95l2.55,2.85,2.55,2.85a11.22,11.22,0,0,1,1.5,2,6.91,6.91,0,0,0,1.95,2.4q1.65,1.5,3.45,3.3l3.45,3.45a19.22,19.22,0,0,1,2.25,2.55q.6.6,2.1,1.8t3.3,2.85q1.8,1.65,3.6,3a11.29,11.29,0,0,0,2.7,1.65q.6.6,3,2.55a16.88,16.88,0,0,1,3,2.85q.9.6,2.4,1.5t3.15,1.8l3,1.65A9.55,9.55,0,0,1,936,395a23.34,23.34,0,0,0,4.5,2.4q3.9,1.8,5.1,2.4.6.3,1.35.6t1.35.6l1.8.6h11.7q.3,0,.75-.6a11.26,11.26,0,0,1,1.05-1.2l1.2-2.7a9.71,9.71,0,0,0,1.05-3.3,21.61,21.61,0,0,0,.45-3.3,14.13,14.13,0,0,0,.75-2.25,32.49,32.49,0,0,0,.75-3.6q.3-1.95.45-3.6t.15-2.25a10.58,10.58,0,0,1,.75-3.3,11.22,11.22,0,0,0,.75-2.7,14.8,14.8,0,0,0,.75-2.1q.45-1.5,1-1.5a12.41,12.41,0,0,1,1.65-2.1q1.35-1.5,3-3a38.21,38.21,0,0,0,2.85-2.85q1.2-1.35,1.8-1.95a11.64,11.64,0,0,1,1.5-.6,12.54,12.54,0,0,1,2.1-.6q.6-.3,1.35-.6a4,4,0,0,0,1.35-.9,7.57,7.57,0,0,1,1.8-.9q.6.6,2.1,1.8t1.5,1.8v11.4q0,.6-.6,4.35a39.56,39.56,0,0,0-.6,5.85,7.38,7.38,0,0,0-1.2,3,7.38,7.38,0,0,1-1.2,3,13.3,13.3,0,0,1-1.35,3.9,30.29,30.29,0,0,0-1.65,4.2,10.18,10.18,0,0,1-1.5,3.6q-1.5,2.7-2.1,3a7.65,7.65,0,0,1-1.05,2.55,12.35,12.35,0,0,1-1.65,2.55,16.14,16.14,0,0,0-3,3.45,31.68,31.68,0,0,1-2.4,3.15l-2.7,2.7q-.6.6-3.15,2.55l-3.75,2.85q-.6.3-1.35.6a4,4,0,0,0-1.35.9l-1.8,1.2a4.92,4.92,0,0,1-1.5.75q-1.2.45-2.55,1T953.68,427a6.43,6.43,0,0,1-1.5.45,5.08,5.08,0,0,1-2.1,1.05q-1.5.45-1.5,1.05l-1.2,2.7a11.26,11.26,0,0,0-1,1.2q-.45.6-.75.6a15.94,15.94,0,0,0-.45-2.1,5.41,5.41,0,0,0-1-2.4q0-.9-.6-.9h-.3q-.3,0-1.2.9,0,2.1-.3,7.5t-.45,11.7q-.15,6.3-.45,11.7t-.3,7.5q0,.9-.6,5.25a52.29,52.29,0,0,0-.6,6.45,27.43,27.43,0,0,0-1.2,4.5,29.94,29.94,0,0,0-.6,3.6,4.68,4.68,0,0,1-.75,1.5,4.68,4.68,0,0,0-.75,1.5V427.4A22.87,22.87,0,0,1,931.18,426.05Z" fill="#f9f9f9"/><path d="M1025.68,268.7q-1.8-.3-6.3-.6t-9.45-.45q-4.95-.15-9.3-.45t-6.15-.3q-.3,0-1.8-.15l-3.3-.3q-1.8-.15-3.45-.45a9.58,9.58,0,0,1-2.25-.6,21.46,21.46,0,0,1-3.9-.75,23,23,0,0,1-4.2-1.35,13.76,13.76,0,0,1-3.9-.75,20.63,20.63,0,0,0-2.7-.75,4.61,4.61,0,0,1-1.8-.6,4.61,4.61,0,0,0-1.8-.6,11.85,11.85,0,0,0-2.55-3q-2-1.8-2-2.4v-2.7a9.87,9.87,0,0,1,.6-3,9.82,9.82,0,0,0,.6-2.4,13.14,13.14,0,0,0,1.65-2.4,5.84,5.84,0,0,1,1.65-2.1q.6-.6,2.4-2.55t2.4-2.55a6.76,6.76,0,0,0,2.55-1.35,13.55,13.55,0,0,1,2.85-1.65,6.44,6.44,0,0,1,1.5-1.2,2.66,2.66,0,0,1,1.2-.3h8.1q1.2,0,1.8,1.5a5.26,5.26,0,0,0,.6,1.5,14.68,14.68,0,0,0,.9,1.5,8.23,8.23,0,0,1,2.4.75,8.23,8.23,0,0,0,2.4.75,23.3,23.3,0,0,0,4.8,1.35,29.13,29.13,0,0,0,5.1.75q1.2,0,3.9.3t5.55.45q2.85.15,5.25.45t3,.3h14.7a13,13,0,0,0,3.45-1.5,18.61,18.61,0,0,0,3.45-2.1h6.3a7.69,7.69,0,0,0,1.65,1.8q1.35,1.2,1.35,1.8h13.2q1.2,0,6.15-.3t10.8-.45q5.85-.15,10.95-.45t6.3-.3H1134a1.63,1.63,0,0,1,1.2.75,1.63,1.63,0,0,0,1.2.75v4.5a3.64,3.64,0,0,1-.9,1.8,17.54,17.54,0,0,1-1.5,1.8,13.15,13.15,0,0,1-1.5,2.7q-1.2,1.8-1.5,1.8a1.44,1.44,0,0,1-.45,1.05l-1,1.05a9.83,9.83,0,0,1-1.2,1.5q-.6.3-2.55,1.5a16.17,16.17,0,0,1-2.85,1.5,7,7,0,0,1-1.8,1.2,2.3,2.3,0,0,1-.9.3l-33.3,3.6v99.9a4,4,0,0,0-.75-1.8,4,4,0,0,1-.75-1.8q0-.6-.15-2.4t-.45-3.75q-.3-1.95-.45-3.9t-.15-2.55q-.3-2.4-.6-8.85t-.6-15q-.3-8.55-.75-18.15t-.75-18q-.3-8.4-.45-14.85t-.15-8.85h-2.1q0,.9-.45,4.2t-1,3.9q0,.6-.15,4.5t-.45,8.4q-.3,4.5-.45,8.4t-.15,4.2q-.3-.3-.6-3.75t-.45-7.5q-.15-4-.45-7.5t-.3-3.75a35,35,0,0,0-.75-4.65,35,35,0,0,1-.75-4.65H1053v3.6a32,32,0,0,1,.6,5.25q.3,4.35.9,10.35t1,13.05q.45,7.05,1,13.5t.9,11.4q.3,4.95.6,7,0,.6.15,2.1t.45,3.3q.3,1.8.6,3.45a4.78,4.78,0,0,0,.6,1.95,30,30,0,0,0,.45,4.05q.45,2.85.9,6t.9,5.85a27.61,27.61,0,0,1,.45,3.6,11.19,11.19,0,0,1,1.05,3.9,15.55,15.55,0,0,0,1,4.2q.3,1.2.9,4.2l.6,2.4q.3.6,3.15,1.05t3.45.45a4,4,0,0,0,.75,1.8,4,4,0,0,1,.75,1.8q.3.3.75,4.05a39.55,39.55,0,0,0,1,5.85v1.2a29.6,29.6,0,0,0-1,4.8,10.78,10.78,0,0,1-.75,3.3,4,4,0,0,1-.75,1.8,4,4,0,0,0-.75,1.8l-4.8,6a31.68,31.68,0,0,1-3.15,2.4,30.13,30.13,0,0,0-3.75,3,5.26,5.26,0,0,0-1.5.6,5.26,5.26,0,0,1-1.5.6H1050l-1.5-1.2q-.6-1.2-2.1-3.75a10.48,10.48,0,0,1-1.5-3.15,24.82,24.82,0,0,0-1.35-4.95,38.77,38.77,0,0,1-1.65-6.15q-.3-.9-.75-3t-1.05-4.35q-.6-2.25-1-4.2t-.75-2.85q0-.9-.3-3.6t-.75-5.85q-.45-3.15-.9-6t-.75-4.05q-.3-1.8-.75-5.25t-1-7.05q-.6-3.6-1-6.6a34.61,34.61,0,0,1-.45-3.9q-.3-1.5-1-7.65t-1.65-13.35q-.9-7.2-1.5-13.35t-.6-7.65a35.69,35.69,0,0,1-.6-5.7q-.3-4.8-.45-10.5T1026,274Q1025.68,269.3,1025.68,268.7Z" fill="#f9f9f9"/><path d="M1096.93,417.2a11.69,11.69,0,0,1-2.55.6q-.3-.3-1.65-1.5t-1.35-1.5V377.3c0-1.4,0-4.95.15-10.65s.25-12.45.45-20.25.45-16.2.75-25.2.55-17.4.75-25.2.4-14.6.6-20.4.3-9.4.3-10.8c.4-.6,1.24-2.15,2.55-4.65s2.14-4,2.55-4.65c0-.4.64-1.25,2-2.55s2.14-2.15,2.55-2.55q.6-.3,2.4-1.5a27.62,27.62,0,0,1,2.4-1.5,11.92,11.92,0,0,1,1.8-1.5,3.77,3.77,0,0,1,1.5-.9h4.8c.4,0,.79.3,1.2.9a2.92,2.92,0,0,1,.6,1.5,10.64,10.64,0,0,0,.75,2.1,8.57,8.57,0,0,1,.75,2.4v6.6a24.44,24.44,0,0,1-.3,2.55q-.3,1.95-.45,4.05t-.45,4a21.84,21.84,0,0,0-.3,2.55c0,1.8-.11,5.95-.3,12.45s-.45,14.2-.75,23.1-.65,18.4-1.05,28.5-.75,19.6-1,28.5-.6,16.6-.9,23.1-.45,10.65-.45,12.45a14.22,14.22,0,0,0-1,3,5.41,5.41,0,0,1-1.05,2.4,8,8,0,0,0-1.5,2.1l-1.8,2.4a4.61,4.61,0,0,1-.6,1.8,4.44,4.44,0,0,0-.6,1.8c0,.8-.11,2.25-.3,4.35s-.35,4.35-.45,6.75-.26,4.65-.45,6.75-.3,3.55-.3,4.35q-.3,1.5-.75,4.2c-.3,1.8-.56,3.65-.75,5.55s-.35,3.65-.45,5.25-.15,2.7-.15,3.3c0,.4-.26,1.9-.75,4.5a35.33,35.33,0,0,0-.75,5.1q0,.3-.6,3a12.39,12.39,0,0,1-1.2,3.6,9.82,9.82,0,0,1-.6,2.4,11.52,11.52,0,0,0-.6,2.1V416.6A11.44,11.44,0,0,0,1096.93,417.2Z" fill="#f9f9f9"/><path d="M1180.17,414.2a29.28,29.28,0,0,0-.75,3.3q-.45,2.4-1.05,4.8t-1,4.8a29.28,29.28,0,0,1-.75,3.3,5.26,5.26,0,0,1-.6,1.5,5.26,5.26,0,0,0-.6,1.5h-1.8a10.64,10.64,0,0,0-.75-2.1,8.23,8.23,0,0,1-.75-2.4,20,20,0,0,1-.6-3.3q-.3-2.4-.45-5.1t-.45-4.95a11.57,11.57,0,0,0-.6-2.85,44.13,44.13,0,0,0-4.8-1.8,44.13,44.13,0,0,1-4.8-1.8,5.26,5.26,0,0,1-1.5-.6,3.25,3.25,0,0,1-1.5-1.2q-.6-.3-1.35-.75t-1.65-1.05a16.46,16.46,0,0,0-2.1-.9,18.16,18.16,0,0,0-2.55-2.7q-2-1.8-3.9-3.9l-3.75-4.05a27.48,27.48,0,0,1-2.4-2.85q-.6,0-1.8-2t-1.8-2.85a9.1,9.1,0,0,1-1.35-1.95,20.83,20.83,0,0,1-1.35-3q-.6-1.65-1.2-3a6.68,6.68,0,0,1-.6-1.65q-.6-.3-1.8-4.35t-1.8-5.55a29.28,29.28,0,0,1-.75-3.3,6.5,6.5,0,0,0-1-3,59.54,59.54,0,0,0-.6-6.75q-.6-4.65-.6-5.85V336.2q0-.6.15-2.7t.45-4.35q.3-2.25.45-4.5t.15-3.15a16,16,0,0,0,1-4.35,18.5,18.5,0,0,1,.75-3.75l1-3.15,1.5-4.5q.75-2.25,1.5-4.35t1-3a35.74,35.74,0,0,1,1.65-3.6q1.35-2.7,3-5.85t2.85-5.85a28.58,28.58,0,0,1,1.8-3.6,21.17,21.17,0,0,0,1.5-2.1q1.2-1.8,2.55-3.75t2.55-3.6q1.2-1.65,1.5-1.65a6.44,6.44,0,0,0,1.2-2.1,11.64,11.64,0,0,1,.6-1.5v-9.9l1.5-2.7q.9-.9,2.55-2.7t3.45-3.6q1.8-1.8,3.45-3.3t2.25-2.1q.9-.6,3.3-1.95a8.76,8.76,0,0,1,3.3-1.35h9.6a9.77,9.77,0,0,1,3.45,1.35,16.36,16.36,0,0,1,3.15,1.95q.6.6,3,2.85t5.25,5.1q2.85,2.85,5.4,5.55a43.78,43.78,0,0,0,4,3.9q.3.6,2.1,3.15a33.65,33.65,0,0,1,2.4,3.75,17.88,17.88,0,0,1,1.8,2.4,17.88,17.88,0,0,0,1.8,2.4l2.7,4.5a13.15,13.15,0,0,1,1.8,3.6,23.88,23.88,0,0,0,1.65,3.3q1.35,2.4,2.7,4.95t2.4,4.8q1,2.25,1.35,3.15a14.26,14.26,0,0,1,1.8,3.9,24.67,24.67,0,0,0,1.8,4.2q.3,1.2,1.5,4.8a49.83,49.83,0,0,1,1.5,5.1,6.84,6.84,0,0,1,1,3.15,26.93,26.93,0,0,1,.45,3.15q.6,2.1,1.35,5.85t.75,4.05v22.5a24.47,24.47,0,0,1-.75,3.6,37.49,37.49,0,0,1-1.35,4.5,24.13,24.13,0,0,1-.45,3.75,6.84,6.84,0,0,1-1,3.15,12.54,12.54,0,0,1-.6,2.1,9.82,9.82,0,0,0-.6,2.4,30.79,30.79,0,0,0-1.65,3q-1.05,2.1-2.1,4t-2,3.75a11.7,11.7,0,0,1-1.2,2.1,13.61,13.61,0,0,1-2.1,3.75,31.68,31.68,0,0,1-2.4,3.15,19.22,19.22,0,0,0-2.55,2.25l-3.45,3.45-3.45,3.45A12.32,12.32,0,0,1,1209,401q0,.3-1.2,1.2t-2.7,1.95q-1.5,1.05-3,2a13.15,13.15,0,0,1-2.4,1.2,5,5,0,0,1-1.2.75l-2.1,1.05q-1.2.6-2.25,1a4.88,4.88,0,0,1-1.35.45q-1.2,0-1.2,2.1-.3,2.7-.6,9.75t-.45,15q-.15,7.95-.45,15.15t-.3,10.2a18.86,18.86,0,0,1-.3,3l-.6,3.6q-.3,2.1-.6,4.5h-2.1l-2.7-59.7Zm-29.7-75.3a22.66,22.66,0,0,0,.75,4.35q.75,3.15,1,4.65a44.13,44.13,0,0,1,1.8,4.8,44.13,44.13,0,0,0,1.8,4.8,52,52,0,0,1,2.4,4.65q1.8,3.75,2.1,4.65a19.27,19.27,0,0,0,2.55,3.45,19.27,19.27,0,0,1,2.55,3.45l6.6,6.6a7.57,7.57,0,0,1,1.8.9,7,7,0,0,0,1.35,1.05q.75.45,1.35.75a7,7,0,0,0,1.8,1.2,4.61,4.61,0,0,0,1.8.6,5.41,5.41,0,0,0,2.4,1.05,15.94,15.94,0,0,0,2.1.45h16.2q.6-.6,2.55-2.4a16.59,16.59,0,0,1,2.55-2.1l1.5-3a16.63,16.63,0,0,0,1.5-3.9,5.41,5.41,0,0,0,1-2.4,12.61,12.61,0,0,0,.45-2.4,5.7,5.7,0,0,0,.6-2.25q.3-2,.45-4.65T1212,358q.3-2.55.6-4.05v-1.5a33.36,33.36,0,0,1-.6-3.45q-.3-2.25-.45-4.65a41.7,41.7,0,0,0-.45-4.2,10,10,0,0,0-.6-2.4,17,17,0,0,0-.75-3.15,15,15,0,0,1-.75-3.75q-.3-.9-1.5-4.65t-1.5-4.65q-.6-1.2-1.8-4.35a14,14,0,0,0-1.8-3.75q-.3-.9-1.35-3.3t-2.4-4.8l-2.7-4.8a23.88,23.88,0,0,1-1.65-3.3q-.6-1.2-2.4-4.2a27.7,27.7,0,0,1-2.1-3.9q-.6-.6-2.55-3.15a27.6,27.6,0,0,1-2.55-3.75q-.3,0-1.5-1.35t-1.5-1.35l-1.5,2.7q-.6,1.2-1.35,3.15a12.71,12.71,0,0,0-.75,2.25q0,.9-.3,4.65t-.45,8.1q-.15,4.35-.45,8.25t-.3,4.8a43.18,43.18,0,0,1-.6,4.65,43.18,43.18,0,0,0-.6,4.65,15,15,0,0,1-1.2-4.65,43.18,43.18,0,0,1-.6-4.65q0-2.1-.3-7.95t-.45-12.3q-.15-6.45-.45-12.15t-.3-8.1h-3.6q-.3,0-2.1,2a27.48,27.48,0,0,0-2.4,2.85,25.51,25.51,0,0,0-2.4,3.6,43,43,0,0,1-3,4.5,3.69,3.69,0,0,1-.6,1.65,3.69,3.69,0,0,0-.6,1.65l-1,3.15-1.5,4.5q-.75,2.25-1.5,4.35t-1,2.7l-1,4.2a21.46,21.46,0,0,0-.75,3.9v27Z" fill="#f9f9f9"/><path d="M1308.27,410.3q.3-.6-.75-1.05a6.23,6.23,0,0,1-2-1.35l-3.6,30.9-2.1,1.2a3.77,3.77,0,0,1-.6-2.55q0-1.95-.6-2.25,0-.9.15-4.5t.3-7.65q.15-4.05.45-7.65t.3-4.5q0-.9.15-3.3l.3-4.8q.15-2.4.15-4.5v-2.7a3.49,3.49,0,0,1-.6-.9,4.61,4.61,0,0,1-.6-1.8q-.6-.9-2.25-3.6t-2.25-3.6q-.6-.9-1.65-2.85t-2.25-4.05q-1.2-2.1-2.25-3.75t-1.35-2.25a21.84,21.84,0,0,1-3.15-3.15q-2.25-2.55-4.5-5.4t-4.2-5.55q-2-2.7-2.85-3.9a6.66,6.66,0,0,0-.45,2.1q-.15,1.5-.15,1.8a9.1,9.1,0,0,0-.3,2.7,3.34,3.34,0,0,1-.3,1.5q0,1.5.15,7.05t.3,11.85q.15,6.3.3,11.85t.15,7.05a2.37,2.37,0,0,0-.3,1.5,2.66,2.66,0,0,1-.3,1.2v2.7a10.42,10.42,0,0,0-2.25,2.55,10.42,10.42,0,0,1-2.25,2.55q-.6.6-2,1.8t-3.15,2.55q-1.8,1.35-3.45,2.7t-2.25,1.95l-3,1.2a15.91,15.91,0,0,1-1.8-.15,15.91,15.91,0,0,0-1.8-.15,3.32,3.32,0,0,1-1-.15,3.32,3.32,0,0,0-1-.15,1.22,1.22,0,0,1-.9-.3l-1.2-1.5v-5.1a24.67,24.67,0,0,0-.3-3.75,19,19,0,0,0-.6-2.85V401q0-2.1.15-4.05t.15-2.55v-6.15q0-2-.15-3.6a7.15,7.15,0,0,0-.45-2.25q0-1.5-.15-4.5t-.15-6.15V362.9a51.64,51.64,0,0,0-.45-5.55q-.45-3.75-.75-7.65t-.75-7.2q-.45-3.3-.45-4.2,0-1.2-.3-4.2t-.75-6.15q-.45-3.15-.75-6a22,22,0,0,0-.6-3.75,20.34,20.34,0,0,0-.45-2.85q-.45-2.25-.9-4.65l-.9-4.8a21.61,21.61,0,0,1-.45-3.3,1.39,1.39,0,0,0,1.5-.9,2.9,2.9,0,0,0,.45-1.5q.15-1.2.3-2.55a23.14,23.14,0,0,0,.15-2.55v-1.5q.6,0,2-1.8a8.1,8.1,0,0,1,1.95-2.1,36.81,36.81,0,0,0,3.9-3.3,12.08,12.08,0,0,0,2.4-1,11.91,11.91,0,0,0,2.7-1.65,1.22,1.22,0,0,1,.9-.3,2.66,2.66,0,0,0,1.2-.3,3.34,3.34,0,0,0,1.5-.3,1.22,1.22,0,0,0,.9.3,2.09,2.09,0,0,1,.9.15,2.09,2.09,0,0,0,.9.15h1.8a5.15,5.15,0,0,1,1.5,1.5q.9,1.2,1.5,2.1a5.26,5.26,0,0,0,.6,1.5q.6,1.2,1.35,2.55a16,16,0,0,1,1.2,2.7,8.27,8.27,0,0,1,.45,1.65,18.68,18.68,0,0,0,2.4,3.9q1.8,2.4,1.8,3a24.73,24.73,0,0,0,2.1,2.85q1.8,2.25,4.05,4.8t4.2,5.1a47.18,47.18,0,0,1,2.85,4.05q1.8,1.8,6,6.9t8.85,10.95q4.65,5.85,8.85,11.1t6,7.35v-.9l.3-.6a28,28,0,0,0-.3-3.15q-.3-2.25-.6-4.65t-.6-4.5a25.67,25.67,0,0,1-.3-2.7q0-2.1-.6-9.6t-1.2-16.35q-.6-8.85-1.2-16.35t-.9-9.6a11.15,11.15,0,0,0-.3-2.7,6.65,6.65,0,0,1-.3-2.1l-2.4-.6a6.67,6.67,0,0,1-2.1-.9,1.93,1.93,0,0,1-1.5-2.7v-3.6a1.22,1.22,0,0,1,.3-.9q.3-.6,1.2-2.25a10.62,10.62,0,0,1,1.5-2.25,2.46,2.46,0,0,1,.9-1.5,2.46,2.46,0,0,0,.9-1.5q.6-.9,2-2.7t1.65-1.5a11.82,11.82,0,0,1,3.6-3.3q2.7-1.8,4.2-2.7a19.61,19.61,0,0,1,2.1-1.2,15,15,0,0,1,2.7-1.2l1.8-.9a2.13,2.13,0,0,1,1.8-.3h.6a1.33,1.33,0,0,1,.6.15,2.09,2.09,0,0,0,.9.15h2.7a4.89,4.89,0,0,1,1.5,1.8q.9,1.5,1.2,2.1a8.81,8.81,0,0,0,.3,2.1,24.84,24.84,0,0,1,.6,2.7q0,.6.45,3.75a15.13,15.13,0,0,1,.15,4.65q0,1.2.45,6.45t.75,11.55q.3,6.3.6,11.7t.3,6.6q.3,1.5.6,4.05t.45,5.25q.15,2.7.3,4.65t.15,2.25q.6,4.5,1.65,13.5t2.55,20.4q1.5,11.4,3.15,23.85t3.15,23.7l2.7,20.25q1.2,9,1.8,13.2l-.3,1.5a6.65,6.65,0,0,1-.3,2.1q0,.6-1.65,2.7a23.36,23.36,0,0,0-1.95,2.7q-.3.3-1.65,1.35t-2.85,2.25q-1.5,1.2-2.85,2.25t-1.65,1.35a8.73,8.73,0,0,1-3.15,1.35,24.48,24.48,0,0,0-3.75,1.35,3.32,3.32,0,0,1-1-.15,2.47,2.47,0,0,0-.75-.15l-1.5-.3a19.3,19.3,0,0,1-2-2.7,19.3,19.3,0,0,0-2-2.7A29.31,29.31,0,0,1,1324,445q-1.65-3.75-3.45-7.95t-3.45-7.95a53,53,0,0,0-2.55-5.25l-2.7-.3-4.5,35.7-2.1,4.2V460q0-2.55.15-5.25t.15-5.25a12.89,12.89,0,0,0-.3-3.45q.3-2.1.9-6.75t1.2-9.75q.6-5.1,1.2-9.75t.9-6.45Z" fill="#f9f9f9"/></g></g></svg>